<?xml version="1.0" encoding="UTF-8"?>
<svg version="1.1" xmlns="http://www.w3.org/2000/svg" width="500" height="500">
<path d="M0 0 C165 0 330 0 500 0 C500 165 500 330 500 500 C335 500 170 500 0 500 C0 335 0 170 0 0 Z " fill="#EBE4CD" transform="translate(0,0)"/>
<path d="M0 0 C3.44017326 2.55406803 6.75536801 5.20248676 10 8 C10.55816406 8.46277344 11.11632812 8.92554688 11.69140625 9.40234375 C14.93560328 12.29531717 15.70082315 14.71179844 16 19 C17.175625 18.938125 18.35125 18.87625 19.5625 18.8125 C24.02283435 18.85190225 27.11734682 19.65575657 31 22 C34.12190425 25.49768902 35.87775522 29.49404943 37.20703125 33.94140625 C38.76217284 38.54788824 40.24558277 42.74761549 44 46 C50.16967256 48.38883328 56.68498136 48.77820275 63.2265625 49.296875 C69.90391153 49.8762223 72.96575844 51.6445624 77.375 56.75 C79.34236261 60.68472523 80.01554274 63.74402319 79 68 C76.32327627 73.57099037 72.59656477 77.60958452 67.84790039 81.46704102 C63.31200137 85.20157572 63.31200137 85.20157572 60 90 C59.83763227 93.81340721 60.69501108 97.25484334 61.625 100.9375 C65.24014004 116.71362889 65.24014004 116.71362889 62.75 123.3125 C60.29851151 127.0772859 58.23313019 128.5889566 54 130 C42.98269016 132.02749105 34.42487887 126.9512011 25.0078125 121.93969727 C21.20810071 120.1283519 21.20810071 120.1283519 17.17236328 120.58911133 C16.25559814 121.08060669 16.25559814 121.08060669 15.3203125 121.58203125 C14.63839844 121.93716797 13.95648438 122.29230469 13.25390625 122.65820312 C12.55136719 123.03912109 11.84882813 123.42003906 11.125 123.8125 C3.61945463 127.80199675 -3.2656655 131.33049898 -12 130 C-15.375 128.0625 -15.375 128.0625 -18 126 C-18.99 125.67 -19.98 125.34 -21 125 C-23.81857803 126.50174202 -23.81857803 126.50174202 -26.875 128.625 C-40.90234093 137.71720041 -56.25339047 141.29020192 -72.8046875 138.31640625 C-88.80058412 134.09866983 -99.48216927 124.97151519 -108.26953125 111.09765625 C-115.36878528 98.38951077 -115.47237683 85.72496822 -111.84375 71.83203125 C-107.52655314 57.34143995 -97.44716213 45.42432536 -84.24609375 38.11328125 C-73.56656305 32.81994864 -57.09260241 31.89102755 -45.45703125 35.03515625 C-29.31159621 41.37525554 -29.31159621 41.37525554 -25.57446289 45.61865234 C-24.07237276 47.2011505 -24.07237276 47.2011505 -21.82348633 47.2487793 C-21.00130615 47.19117432 -20.17912598 47.13356934 -19.33203125 47.07421875 C-18.43935547 47.01943359 -17.54667969 46.96464844 -16.62695312 46.90820312 C-15.69818359 46.83537109 -14.76941406 46.76253906 -13.8125 46.6875 C-12.40194336 46.5956543 -12.40194336 46.5956543 -10.96289062 46.50195312 C-8.64059043 46.34870489 -6.32028542 46.1808714 -4 46 C-3.49210938 44.9378125 -2.98421875 43.875625 -2.4609375 42.78125 C1.15358265 35.32674256 4.66361713 28.40365944 10 22 C9.32582031 21.77570313 8.65164063 21.55140625 7.95703125 21.3203125 C4.15897617 19.62448342 1.0471525 17.30463493 -2.3125 14.875 C-12.89442333 7.40280109 -25.9194708 -0.70892979 -38.8125 -3.125 C-39.56144531 -3.27195313 -40.31039062 -3.41890625 -41.08203125 -3.5703125 C-56.17930667 -5.7934722 -72.37909215 -6.92358537 -87 -2 C-87.93199219 -1.74476563 -88.86398438 -1.48953125 -89.82421875 -1.2265625 C-104.94494768 3.17439732 -117.2462051 11.69824103 -128 23 C-128.90621094 23.94746094 -129.81242187 24.89492187 -130.74609375 25.87109375 C-145.12727048 42.00340311 -152.83307752 64.22371637 -152.22265625 85.80078125 C-150.39320496 112.08710771 -141.95203407 135.28787209 -122.62109375 153.78125 C-102.54297608 170.77733173 -78.82697162 178.6530829 -52.63085938 177.22314453 C-46.45275447 176.69912932 -40.83498927 175.0958835 -35 173 C-34.28505371 172.75862305 -33.57010742 172.51724609 -32.83349609 172.26855469 C-12.87674263 165.50427458 2.66016964 153.55680351 15.65234375 136.87890625 C19.38240892 132.16175005 19.38240892 132.16175005 22.625 131.3125 C25.77892227 132.2254775 27.0681793 133.35269015 29 136 C29.48875524 139.27466013 29.3057994 140.576363 27.34765625 143.2890625 C26.59355469 144.05992187 25.83945312 144.83078125 25.0625 145.625 C21.6663123 149.19685258 18.49201386 152.81880388 15.4375 156.6875 C1.7716909 173.42929019 -22.10999656 187.03340384 -43.75708008 189.81689453 C-49.18144176 190.25972367 -54.62353015 190.22776609 -60.0625 190.25 C-61.91391602 190.2809375 -61.91391602 190.2809375 -63.80273438 190.3125 C-90.5722759 190.42456506 -114.62512322 178.86550253 -134 161 C-134.99386719 160.12794922 -134.99386719 160.12794922 -136.0078125 159.23828125 C-155.23504585 141.48662628 -165.19569952 114.09072664 -166.25390625 88.57421875 C-167.09783932 58.19007874 -156.41016271 33.34407025 -136 11 C-133.47818116 8.43367848 -130.85346791 6.18929866 -128 4 C-126.98421875 3.20980469 -125.9684375 2.41960937 -124.921875 1.60546875 C-112.683851 -7.66194001 -99.94740667 -13.39141555 -85 -17 C-84.35458252 -17.17732666 -83.70916504 -17.35465332 -83.04418945 -17.53735352 C-55.00313913 -24.71941667 -23.19530921 -16.45397279 0 0 Z " fill="#052A46" transform="translate(302,134)"/>
<path d="M0 0 C2.13680182 1.54102385 2.13680182 1.54102385 5.09375 2.3828125 C4.26875 3.3728125 3.44375 4.3628125 2.59375 5.3828125 C-1.53355976 10.83007335 -4.31316892 16.93835599 -7.26953125 23.06640625 C-8.90625 26.3828125 -8.90625 26.3828125 -9.90625 27.3828125 C-13.07253371 27.9049418 -16.27021422 28.08682619 -19.46875 28.3203125 C-20.35111328 28.41376953 -21.23347656 28.50722656 -22.14257812 28.60351562 C-28.34326465 29.02972689 -31.3840141 27.97268351 -36.08129883 23.93041992 C-38.64171534 21.75911822 -41.4252086 20.45577736 -44.46875 19.0703125 C-45.52191406 18.57917969 -46.57507813 18.08804688 -47.66015625 17.58203125 C-60.23848043 12.9351654 -77.77568055 14.00811754 -89.90625 19.4453125 C-100.7878887 25.24543124 -111.87920171 36.12599073 -115.78125 48.05859375 C-119.56987504 61.51914137 -121.31601923 75.44852113 -114.90625 88.3828125 C-111.94675875 93.32804453 -108.51570723 97.89788871 -104.90625 102.3828125 C-104.31714844 103.11886719 -103.72804687 103.85492188 -103.12109375 104.61328125 C-95.27379537 113.34749787 -82.54743986 117.82084552 -71.08203125 118.6640625 C-54.31044321 119.2450969 -40.59884157 113.79388374 -26.90625 104.3828125 C-24.66929336 105.4598657 -22.71969384 106.52139707 -20.71875 108.0078125 C-15.99948406 110.31500918 -11.52326606 110.18078789 -6.5234375 108.65625 C-2.86271469 107.20844001 0.69130475 105.57184735 4.25390625 103.8984375 C5.31480469 103.41890625 6.37570312 102.939375 7.46875 102.4453125 C8.44585937 101.98253906 9.42296875 101.51976562 10.4296875 101.04296875 C13.09375 100.3828125 13.09375 100.3828125 15.4453125 101.75390625 C15.98929688 102.29144531 16.53328125 102.82898438 17.09375 103.3828125 C16.22367368 111.05368942 13.39351452 114.96455731 8.09375 120.3828125 C6.94067469 121.70988791 5.79476735 123.04322672 4.65625 124.3828125 C3.47442106 125.72117508 2.28687916 127.05451402 1.09375 128.3828125 C0.51238281 129.03121094 -0.06898438 129.67960938 -0.66796875 130.34765625 C-11.14476693 141.43944468 -24.2601829 148.46517002 -38.46875 153.5703125 C-39.16516602 153.82063232 -39.86158203 154.07095215 -40.57910156 154.32885742 C-61.66448095 161.64343589 -84.00303888 159.94087642 -104.20483398 150.67822266 C-125.12106857 140.4698628 -142.6581752 124.29973534 -151.81640625 102.59375 C-155.48350394 91.78961271 -158.06497029 80.76490506 -158.90625 69.3828125 C-158.98488281 68.35414063 -159.06351563 67.32546875 -159.14453125 66.265625 C-159.81981841 41.17337588 -150.07247821 19.88531243 -133.23046875 1.78515625 C-132.46347656 0.99238281 -131.69648438 0.19960937 -130.90625 -0.6171875 C-130.17019531 -1.37902344 -129.43414062 -2.14085937 -128.67578125 -2.92578125 C-91.06605089 -39.27555415 -38.19009758 -27.6506226 0 0 Z " fill="#2ECCFB" transform="translate(307.90625,153.6171875)"/>
<path d="M0 0 C3.44017326 2.55406803 6.75536801 5.20248676 10 8 C10.55816406 8.46277344 11.11632812 8.92554688 11.69140625 9.40234375 C14.93560328 12.29531717 15.70082315 14.71179844 16 19 C18.64 19 21.28 19 24 19 C24 19.33 24 19.66 24 20 C23.02160156 20.09087891 23.02160156 20.09087891 22.0234375 20.18359375 C21.14945313 20.26738281 20.27546875 20.35117188 19.375 20.4375 C18.51648438 20.51871094 17.65796875 20.59992188 16.7734375 20.68359375 C13.95139775 20.92512194 13.95139775 20.92512194 11.1328125 21.84375 C6.46238914 22.07668882 4.11110377 19.81369091 0.5 17.0625 C-0.91888551 16.03621873 -2.34081705 15.0141368 -3.765625 13.99609375 C-4.83006836 13.23208252 -4.83006836 13.23208252 -5.91601562 12.45263672 C-27.39878373 -2.52187947 -52.63204218 -8.29582044 -78.60546875 -4.46875 C-81.46387868 -3.77397136 -84.2130465 -2.93850557 -87 -2 C-87.93199219 -1.74476563 -88.86398438 -1.48953125 -89.82421875 -1.2265625 C-104.94494768 3.17439732 -117.2462051 11.69824103 -128 23 C-128.90621094 23.94746094 -129.81242187 24.89492187 -130.74609375 25.87109375 C-145.12727048 42.00340311 -152.83307752 64.22371637 -152.22265625 85.80078125 C-150.39320496 112.08710771 -141.95203407 135.28787209 -122.62109375 153.78125 C-102.54297608 170.77733173 -78.82697162 178.6530829 -52.63085938 177.22314453 C-46.45275447 176.69912932 -40.83498927 175.0958835 -35 173 C-34.28505371 172.75862305 -33.57010742 172.51724609 -32.83349609 172.26855469 C-12.87674263 165.50427458 2.66016964 153.55680351 15.65234375 136.87890625 C19.38240892 132.16175005 19.38240892 132.16175005 22.625 131.3125 C25.77892227 132.2254775 27.0681793 133.35269015 29 136 C29.48875524 139.27466013 29.3057994 140.576363 27.34765625 143.2890625 C26.59355469 144.05992187 25.83945312 144.83078125 25.0625 145.625 C21.6663123 149.19685258 18.49201386 152.81880388 15.4375 156.6875 C1.7716909 173.42929019 -22.10999656 187.03340384 -43.75708008 189.81689453 C-49.18144176 190.25972367 -54.62353015 190.22776609 -60.0625 190.25 C-61.91391602 190.2809375 -61.91391602 190.2809375 -63.80273438 190.3125 C-90.5722759 190.42456506 -114.62512322 178.86550253 -134 161 C-134.99386719 160.12794922 -134.99386719 160.12794922 -136.0078125 159.23828125 C-155.23504585 141.48662628 -165.19569952 114.09072664 -166.25390625 88.57421875 C-167.09783932 58.19007874 -156.41016271 33.34407025 -136 11 C-133.47818116 8.43367848 -130.85346791 6.18929866 -128 4 C-126.98421875 3.20980469 -125.9684375 2.41960937 -124.921875 1.60546875 C-112.683851 -7.66194001 -99.94740667 -13.39141555 -85 -17 C-84.35458252 -17.17732666 -83.70916504 -17.35465332 -83.04418945 -17.53735352 C-55.00313913 -24.71941667 -23.19530921 -16.45397279 0 0 Z " fill="#052B47" transform="translate(302,134)"/>
<path d="M0 0 C1.0828125 0.86625 1.0828125 0.86625 2.1875 1.75 C2.0225 2.36875 1.8575 2.9875 1.6875 3.625 C0.6718938 9.97253875 -0.07499371 15.47486626 3.5 21.125 C6.81905932 25.59296448 10.63811479 29.66684545 14.49145508 33.67724609 C16.74536777 36.04057964 18.13973086 37.60669258 19.1875 40.75 C17.19351178 51.85212084 10.9145802 59.56527621 1.9375 66.0625 C-9.91626194 73.24845931 -21.78764893 76.05241085 -35.3671875 72.93359375 C-45.31281442 69.57548207 -53.73726381 63.0980352 -58.8515625 53.8125 C-63.48075159 43.87667951 -64.67982298 32.36293215 -62.05078125 21.64453125 C-60.25287769 16.94724171 -57.84707512 12.76634942 -54.8125 8.75 C-54.39355469 8.17507812 -53.97460938 7.60015625 -53.54296875 7.0078125 C-49.70514514 2.08101965 -45.46090522 -0.67138023 -39.8125 -3.25 C-39.12414062 -3.57097656 -38.43578125 -3.89195312 -37.7265625 -4.22265625 C-25.80393707 -8.98727422 -10.68301673 -7.00525687 0 0 Z " fill="#FE8139" transform="translate(264.8125,186.25)"/>
<path d="M0 0 C2.45068359 0.07250977 2.45068359 0.07250977 5 1 C6.52978516 3.10131836 6.52978516 3.10131836 7.7890625 5.83984375 C8.25570312 6.82017578 8.72234375 7.80050781 9.203125 8.81054688 C9.67234375 9.84244141 10.1415625 10.87433594 10.625 11.9375 C11.56834563 13.97079226 12.51856526 16.00091347 13.4765625 18.02734375 C14.096521 19.38460571 14.096521 19.38460571 14.72900391 20.76928711 C15.94145638 23.2847659 15.94145638 23.2847659 19 25 C21.47764348 25.53272383 21.47764348 25.53272383 24.25390625 25.81640625 C25.27291016 25.94080078 26.29191406 26.06519531 27.34179688 26.19335938 C28.40462891 26.31517578 29.46746094 26.43699219 30.5625 26.5625 C32.66834602 26.81062083 34.77383794 27.06177164 36.87890625 27.31640625 C37.8129126 27.42412354 38.74691895 27.53184082 39.70922852 27.64282227 C42 28 42 28 44 29 C44.53515625 31.48828125 44.53515625 31.48828125 44 35 C40.75669876 38.85123578 36.79423988 42.04211692 32.95507812 45.28320312 C28.46494746 49.27942643 28.46494746 49.27942643 26.64086914 54.7980957 C26.87041084 57.63086529 27.32039233 60.24260408 28 63 C28.24878906 64.07894531 28.49757813 65.15789062 28.75390625 66.26953125 C29.02074219 67.10871094 29.28757812 67.94789063 29.5625 68.8125 C30.69097346 72.66031925 31.42616035 75.95147671 31 80 C30 81 30 81 27.03515625 81.37890625 C20.97437868 81.29384813 16.00413021 77.44858096 10.93945312 74.46679688 C6.194455 71.75150388 6.194455 71.75150388 0.8828125 70.9453125 C-2.80790825 72.29557619 -6.14790046 74.0024461 -9.5625 75.9375 C-20.70445105 82.14722147 -20.70445105 82.14722147 -24.75 81.6875 C-27 81 -27 81 -28 80 C-27.82469236 73.56755806 -26.57073748 67.17040683 -25.40234375 60.859375 C-24.41155895 54.88743553 -24.41155895 54.88743553 -26.72265625 49.54296875 C-27.49480469 48.76566406 -28.26695312 47.98835938 -29.0625 47.1875 C-29.87589844 46.33285156 -30.68929688 45.47820312 -31.52734375 44.59765625 C-32.34332031 43.74042969 -33.15929687 42.88320312 -34 42 C-35.40191808 40.3981649 -36.77970933 38.77467967 -38.125 37.125 C-38.70507812 36.42632812 -39.28515625 35.72765625 -39.8828125 35.0078125 C-41 33 -41 33 -40.6796875 30.7421875 C-40.45539063 30.16726562 -40.23109375 29.59234375 -40 29 C-38.10579701 28.53497472 -36.20949918 28.07848383 -34.3125 27.625 C-33.12914062 27.33238281 -31.94578125 27.03976563 -30.7265625 26.73828125 C-27 26 -27 26 -23.5234375 25.91796875 C-19.83557505 25.80137357 -17.35765016 25.56779168 -14 24 C-10.6186242 19.88943439 -8.81255316 14.84977652 -6.86279297 9.95507812 C-5.18583219 6.15510587 -2.9256642 2.9256642 0 0 Z " fill="#FCB30A" transform="translate(321,168)"/>
<path d="M0 0 C1.0209375 0.00580078 1.0209375 0.00580078 2.0625 0.01171875 C4 0.3125 4 0.3125 7 2.3125 C7.38095093 4.92454529 7.38095093 4.92454529 7.38818359 8.27514648 C7.39764008 9.52661972 7.40709656 10.77809296 7.4168396 12.06748962 C7.41146949 13.43952754 7.40531644 14.81156257 7.3984375 16.18359375 C7.4004578 17.58602551 7.40336887 18.98845624 7.40713501 20.3908844 C7.41156196 23.33238715 7.40511674 26.27361685 7.39111328 29.21508789 C7.37403649 32.98601029 7.38385002 36.75629145 7.40183067 40.52719021 C7.41267221 43.42426889 7.40922029 46.32119562 7.4014473 49.21827888 C7.39944547 50.60855243 7.40190397 51.99883976 7.40888596 53.38909721 C7.4165038 55.33288179 7.40283417 57.27671469 7.38818359 59.22045898 C7.38579681 60.32695297 7.38341003 61.43344696 7.38095093 62.57347107 C7 65.3125 7 65.3125 5.60122681 67.17274475 C2.60582772 69.30487358 -0.44168625 68.54206863 -4 68.3125 C-5 67.3125 -5 67.3125 -5.0625 64.75 C-5.041875 63.945625 -5.02125 63.14125 -5 62.3125 C-5.66 62.3125 -6.32 62.3125 -7 62.3125 C-7.33 63.3025 -7.66 64.2925 -8 65.3125 C-12.80624226 67.90787082 -16.46101252 68.99272653 -22 68.3125 C-29.62551065 65.8201152 -33.84995018 60.89591636 -37.875 54.1875 C-40.14284454 48.08493652 -40.34442483 40.7397648 -37.96875 34.68359375 C-34.11909759 28.36374772 -28.52704719 24.57602359 -22 21.3125 C-17.56728835 20.86922884 -14.64287092 21.28450046 -10.7578125 23.33203125 C-10.05027832 23.70046143 -9.34274414 24.0688916 -8.61376953 24.44848633 C-8.08122559 24.73361084 -7.54868164 25.01873535 -7 25.3125 C-7.01571045 24.66176514 -7.0314209 24.01103027 -7.04760742 23.34057617 C-7.10994649 20.39380576 -7.14898684 17.44717402 -7.1875 14.5 C-7.21263672 13.47583984 -7.23777344 12.45167969 -7.26367188 11.39648438 C-7.27333984 10.41357422 -7.28300781 9.43066406 -7.29296875 8.41796875 C-7.3086792 7.51199951 -7.32438965 6.60603027 -7.34057617 5.67260742 C-6.70363322 1.25875255 -4.23808081 -0.10434669 0 0 Z " fill="#072945" transform="translate(186,354.6875)"/>
<path d="M0 0 C1.95697588 1.23049638 3.84551785 2.50239694 5.69921875 3.8828125 C6.02921875 2.5628125 6.35921875 1.2428125 6.69921875 -0.1171875 C8.32385717 -0.17114228 9.94900416 -0.20995945 11.57421875 -0.2421875 C12.93160156 -0.27699219 12.93160156 -0.27699219 14.31640625 -0.3125 C16.69921875 -0.1171875 16.69921875 -0.1171875 18.69921875 1.8828125 C19.01806641 4.24267578 19.01806641 4.24267578 19.11328125 7.203125 C19.15203369 8.28932129 19.19078613 9.37551758 19.23071289 10.49462891 C19.26156982 11.65397949 19.29242676 12.81333008 19.32421875 14.0078125 C19.38113892 15.76424072 19.38113892 15.76424072 19.43920898 17.55615234 C19.70576096 26.33363044 19.81859529 35.10200454 19.69921875 43.8828125 C16.17259149 45.80642737 13.74931287 46.2349946 9.69921875 45.8828125 C9.03921875 45.2228125 8.37921875 44.5628125 7.69921875 43.8828125 C7.69921875 42.5628125 7.69921875 41.2428125 7.69921875 39.8828125 C7.03921875 39.8828125 6.37921875 39.8828125 5.69921875 39.8828125 C5.69921875 40.5428125 5.69921875 41.2028125 5.69921875 41.8828125 C0.09291694 45.78284854 -4.47838775 47.1037746 -11.30078125 45.8828125 C-17.91439791 43.23736584 -22.79358384 38.02401098 -26.43359375 32.01171875 C-28.69393751 26.46267664 -28.06713438 20.22131655 -26.23828125 14.640625 C-23.20350774 8.02679794 -19.76624525 3.3705788 -13.30078125 -0.1171875 C-8.63397453 -1.67278974 -4.46674694 -2.16891277 0 0 Z " fill="#05233E" transform="translate(356.30078125,377.1171875)"/>
<path d="M0 0 C6.65151587 2.6995692 11.32014021 7.77261554 15.109375 13.75 C16.33603814 16.84893847 16.30177537 19.55036527 16.3125 22.875 C16.32925781 24.06867188 16.34601563 25.26234375 16.36328125 26.4921875 C15.69852861 32.91098179 12.3052905 38.21065728 7.3984375 42.3515625 C1.08719291 47.10584807 -5.10528367 49.03559311 -13 48 C-20.690352 45.84206695 -26.24729845 39.74127524 -30.16796875 32.98828125 C-32.65506208 27.23176946 -33.1381261 20.82085191 -31.34375 14.796875 C-25.62412776 1.87841788 -13.19998564 -1.71085167 0 0 Z " fill="#062845" transform="translate(126,376)"/>
<path d="M0 0 C4.18604629 2.18903338 7.08466637 3.77739018 9.73046875 7.74609375 C7.42046875 10.71609375 5.11046875 13.68609375 2.73046875 16.74609375 C1.43109375 16.08609375 0.13171875 15.42609375 -1.20703125 14.74609375 C-5.86917416 12.66583378 -10.19579981 11.82359712 -15.26953125 12.74609375 C-17.55681859 14.58493256 -17.55681859 14.58493256 -17.39453125 17.37109375 C-17.33265625 18.54671875 -17.33265625 18.54671875 -17.26953125 19.74609375 C-11.9345606 22.22961457 -6.68935187 24.26282405 -1.08203125 26.05859375 C3.97991712 27.85353328 7.73934291 29.39763653 10.87109375 33.86328125 C12.8018823 38.09346343 12.4387275 41.62131751 11.02734375 45.85546875 C8.32607579 51.94476772 4.01073348 56.28388288 -2.26953125 58.74609375 C-12.05974057 59.62367945 -21.34482222 59.48887261 -29.39453125 53.37109375 C-31.26953125 50.74609375 -31.26953125 50.74609375 -31.39453125 48.24609375 C-29.94143042 45.0169808 -27.88552247 43.09377818 -25.26953125 40.74609375 C-24.60953125 41.01421875 -23.94953125 41.28234375 -23.26953125 41.55859375 C-22.27953125 41.95046875 -21.28953125 42.34234375 -20.26953125 42.74609375 C-19.64175781 43.01035156 -19.01398438 43.27460938 -18.3671875 43.546875 C-14.20256549 45.23350695 -10.84113573 46.27767567 -6.26953125 45.74609375 C-5.27953125 45.08609375 -4.28953125 44.42609375 -3.26953125 43.74609375 C-3.01922148 41.16229198 -3.01922148 41.16229198 -3.26953125 38.74609375 C-4.70602209 38.1602797 -6.1438095 37.57764531 -7.58203125 36.99609375 C-8.49082031 36.62613281 -9.39960938 36.25617188 -10.3359375 35.875 C-12.25908992 35.13493203 -14.20565345 34.45253188 -16.171875 33.8359375 C-22.57547198 31.80681418 -26.71445314 29.59433292 -30.26953125 23.74609375 C-32.09668342 18.26463724 -31.91026551 13.46442654 -29.89453125 8.05859375 C-23.21178683 -1.87270698 -10.76068226 -4.12685664 0 0 Z " fill="#06233E" transform="translate(280.26953125,364.25390625)"/>
<path d="M0 0 C1.828125 1.58203125 1.828125 1.58203125 3 3 C3 6.15747633 1.71004464 7.35264841 -0.3125 9.8125 C-3 12 -3 12 -4.9375 12 C-7 11 -7 11 -9.5 9.4375 C-15.27339837 7.06628281 -21.58173736 6.69396569 -27.484375 8.94921875 C-30.48576913 10.68542667 -32.53533354 12.32236141 -34.5 15.1875 C-35.79541119 22.47418797 -35.80342916 30.41495846 -32 37 C-30.06229704 38.22939389 -30.06229704 38.22939389 -28 39 C-27.34 39.33 -26.68 39.66 -26 40 C-15.16116842 40.88005202 -15.16116842 40.88005202 -6 36 C-2 36 -2 36 -0.296875 37.2421875 C0.21359375 37.78101563 0.7240625 38.31984375 1.25 38.875 C1.77078125 39.40867187 2.2915625 39.94234375 2.828125 40.4921875 C4 42 4 42 4 44 C-4.07624419 50.99248348 -11.66642467 55.65451407 -22.48046875 55.2890625 C-29.70919823 54.45971989 -36.92895381 51.80869944 -41.59375 46.0234375 C-48.11999846 36.71393602 -50.49546022 28.49011932 -49 17 C-45.83073114 6.8919531 -39.61955669 0.59651628 -30.875 -5 C-20.11901302 -8.76833883 -9.16500387 -6.15492907 0 0 Z " fill="#072944" transform="translate(87,369)"/>
<path d="M0 0 C6.01262811 3.21879039 10.63039504 7.53908478 13.16015625 13.953125 C13.70493247 17.69722336 13.82378372 21.2202205 13.16015625 24.953125 C11.16015625 26.953125 11.16015625 26.953125 8.17919922 27.18017578 C6.93283691 27.16970215 5.68647461 27.15922852 4.40234375 27.1484375 C3.7392923 27.1456076 3.07624084 27.14277771 2.39309692 27.13986206 C0.27360042 27.12865935 -1.84547479 27.10355551 -3.96484375 27.078125 C-5.40103557 27.06809528 -6.837234 27.05896941 -8.2734375 27.05078125 C-11.79571003 27.02872 -15.31773578 26.99418994 -18.83984375 26.953125 C-18.83984375 27.613125 -18.83984375 28.273125 -18.83984375 28.953125 C-18.17984375 28.953125 -17.51984375 28.953125 -16.83984375 28.953125 C-16.83984375 29.613125 -16.83984375 30.273125 -16.83984375 30.953125 C-16.22109375 31.2625 -15.60234375 31.571875 -14.96484375 31.890625 C-13.58984375 32.578125 -12.21484375 33.265625 -10.83984375 33.953125 C-8.73130339 34.1883982 -8.73130339 34.1883982 -6.40234375 34.203125 C-5.22865234 34.24179687 -5.22865234 34.24179687 -4.03125 34.28125 C-1.36052866 33.88135589 -0.52006936 33.00613378 1.16015625 30.953125 C4.61940788 32.2022992 7.30708828 33.62840295 10.16015625 35.953125 C8.36902607 40.51236545 5.22651251 42.98277527 0.84765625 45.0390625 C-4.87037232 46.9838571 -10.98902258 47.07351765 -16.6328125 44.85546875 C-23.1991422 41.13024388 -28.96668761 36.084709 -31.83984375 28.953125 C-32.93793339 21.160912 -32.35742465 14.70460404 -27.7890625 8.1875 C-20.16469416 -0.55225689 -11.32430053 -4.17457021 0 0 Z " fill="#05233E" transform="translate(231.83984375,377.046875)"/>
<path d="M0 0 C2.24257664 1.28282986 4.34704191 2.68969461 6.5 4.125 C5.92647107 7.99632028 4.01295648 10.20672796 1.5 13.125 C-4.375 11.25 -4.375 11.25 -5.5 10.125 C-8.17058851 9.98384839 -10.82432238 10.08252893 -13.5 10.125 C-13.83 11.445 -14.16 12.765 -14.5 14.125 C-10.13488898 16.3883909 -5.87225727 18.38230262 -1.25 20.0625 C2.88104578 21.70856286 5.43555796 22.99611592 7.5 27.125 C8.17843378 31.05193436 7.91459732 34.13457307 6.375 37.8125 C1.56272778 43.74763574 -3.20227561 46.62910872 -10.75 47.5 C-17.2166451 46.85333549 -23.35189805 44.99786654 -27.625 39.875 C-28.24375 38.9675 -28.8625 38.06 -29.5 37.125 C-26.09073056 32.37637471 -26.09073056 32.37637471 -23.6640625 31.34375 C-20.81163879 31.05541836 -19.21377491 31.86488918 -16.625 33.0625 C-12.72615577 34.74084863 -9.80877273 35.57855502 -5.5 35.125 C-5.5568251 33.16009158 -5.5568251 33.16009158 -6.5 31.125 C-9.07055986 29.8974171 -9.07055986 29.8974171 -12.1875 29.125 C-18.13438768 27.30985732 -22.19387943 25.73860331 -26.375 21 C-28.07870882 16.64607746 -28.38266279 12.7248931 -27.5 8.125 C-22.01539179 -1.99608114 -10.15820014 -5.00413181 0 0 Z " fill="#07203E" transform="translate(444.5,376.875)"/>
<path d="M0 0 C2 2 2 2 2.1953125 4.8203125 C2.17210937 5.91085937 2.14890625 7.00140625 2.125 8.125 C2.10695313 9.22070312 2.08890625 10.31640625 2.0703125 11.4453125 C2.04710937 12.28835938 2.02390625 13.13140625 2 14 C2.61488281 13.96519531 3.22976563 13.93039062 3.86328125 13.89453125 C5.07564453 13.85392578 5.07564453 13.85392578 6.3125 13.8125 C7.11300781 13.77769531 7.91351563 13.74289062 8.73828125 13.70703125 C11 14 11 14 12.7734375 15.3203125 C14.64006931 17.87652804 14.32635853 19.93222981 14 23 C12 25 12 25 9.3984375 25.1953125 C8.40070313 25.17210937 7.40296875 25.14890625 6.375 25.125 C4.87066406 25.09792969 4.87066406 25.09792969 3.3359375 25.0703125 C2.56507813 25.04710937 1.79421875 25.02390625 1 25 C1.33 25.66 1.66 26.32 2 27 C2.13905142 28.43513247 2.22523433 29.87564161 2.28125 31.31640625 C2.31863281 32.16267578 2.35601562 33.00894531 2.39453125 33.88085938 C2.46499715 35.67252002 2.53530898 37.46418672 2.60546875 39.25585938 C2.64285156 40.10083984 2.68023437 40.94582031 2.71875 41.81640625 C2.74904297 42.59443604 2.77933594 43.37246582 2.81054688 44.17407227 C2.80798236 46.01810083 2.80798236 46.01810083 4 47 C5.093125 46.938125 6.18625 46.87625 7.3125 46.8125 C11 47 11 47 13.5 48.625 C15 51 15 51 15.1875 54 C13.82820307 57.43401329 12.34487606 58.70003393 9.0234375 60.29296875 C5.52037046 61.51701341 2.55077533 62.02413254 -1 61 C-5.13003492 58.26121141 -8.25731487 55.11402769 -11 51 C-11.22705078 48.36450195 -11.22705078 48.36450195 -11.1953125 45.23828125 C-11.18564453 43.56088867 -11.18564453 43.56088867 -11.17578125 41.84960938 C-11.15902344 40.68236328 -11.14226562 39.51511719 -11.125 38.3125 C-11.11597656 37.13365234 -11.10695313 35.95480469 -11.09765625 34.74023438 C-11.07406423 31.82661974 -11.0411454 28.91341108 -11 26 C-13.31 26 -15.62 26 -18 26 C-18.05395478 24.37536158 -18.09277195 22.75021459 -18.125 21.125 C-18.15980469 19.76761719 -18.15980469 19.76761719 -18.1953125 18.3828125 C-18 16 -18 16 -16 14 C-13.375 13.875 -13.375 13.875 -11 14 C-11.03480469 13.24074219 -11.06960938 12.48148437 -11.10546875 11.69921875 C-11.13253906 10.70535156 -11.15960938 9.71148437 -11.1875 8.6875 C-11.22230469 7.70136719 -11.25710938 6.71523438 -11.29296875 5.69921875 C-11 3 -11 3 -9.7421875 1.1640625 C-6.56038807 -0.96189317 -3.73847608 -0.29670445 0 0 Z " fill="#051F3A" transform="translate(312,362)"/>
<path d="M0 0 C2.9375 0.875 2.9375 0.875 5.9375 2.875 C6.32161275 5.484621 6.54043197 7.8808074 6.625 10.5 C6.67624023 11.55960938 6.67624023 11.55960938 6.72851562 12.640625 C6.81101308 14.38485688 6.87593335 16.12990395 6.9375 17.875 C7.91332031 17.91238281 8.88914062 17.94976562 9.89453125 17.98828125 C11.16683594 18.05402344 12.43914062 18.11976563 13.75 18.1875 C15.01457031 18.24550781 16.27914062 18.30351562 17.58203125 18.36328125 C20.9375 18.875 20.9375 18.875 22.859375 20.265625 C24.45217526 22.64328337 24.41547394 24.07543838 23.9375 26.875 C21.72593536 29.7305047 20.50107933 30.76111609 16.921875 31.484375 C15.32085937 31.55398437 15.32085937 31.55398437 13.6875 31.625 C12.07101562 31.71007812 12.07101562 31.71007812 10.421875 31.796875 C9.60203125 31.82265625 8.7821875 31.8484375 7.9375 31.875 C7.77314453 33.23044922 7.77314453 33.23044922 7.60546875 34.61328125 C7.44691406 35.79277344 7.28835938 36.97226563 7.125 38.1875 C6.97417969 39.35925781 6.82335937 40.53101563 6.66796875 41.73828125 C5.93383904 44.89072059 5.58824592 46.09314467 2.9375 47.875 C-3.13329646 48.52544248 -3.13329646 48.52544248 -5.7421875 46.69921875 C-7.53258025 44.22551042 -7.53429708 42.34027359 -7.6875 39.3125 C-7.81836738 35.44744668 -7.81836738 35.44744668 -9.0625 31.875 C-11.84235792 31.51733098 -14.59874208 31.43090567 -17.3984375 31.31640625 C-20.0625 30.875 -20.0625 30.875 -21.88671875 29.5234375 C-23.75457706 26.90471257 -23.50799834 24.99348836 -23.0625 21.875 C-21.42578125 19.69921875 -21.42578125 19.69921875 -19.0625 17.875 C-16.046875 17.484375 -16.046875 17.484375 -12.8125 17.625 C-11.73484375 17.66109375 -10.6571875 17.6971875 -9.546875 17.734375 C-8.31710937 17.80398437 -8.31710937 17.80398437 -7.0625 17.875 C-7.10890625 16.91078125 -7.1553125 15.9465625 -7.203125 14.953125 C-7.23921875 13.68984375 -7.2753125 12.4265625 -7.3125 11.125 C-7.35890625 9.87203125 -7.4053125 8.6190625 -7.453125 7.328125 C-7.0625 3.875 -7.0625 3.875 -5.23828125 1.4140625 C-3.0625 -0.125 -3.0625 -0.125 0 0 Z " fill="#061B35" transform="translate(359.0625,110.125)"/>
<path d="M0 0 C3.40972541 1.16075759 4.14650084 1.94476613 5.9375 5 C6.23046875 7.578125 6.23046875 7.578125 6.125 10.25 C6.09792969 11.14203125 6.07085937 12.0340625 6.04296875 12.953125 C6.00816406 13.62859375 5.97335937 14.3040625 5.9375 15 C6.75734375 14.96519531 7.5771875 14.93039062 8.421875 14.89453125 C9.49953125 14.86746094 10.5771875 14.84039062 11.6875 14.8125 C12.75484375 14.77769531 13.8221875 14.74289062 14.921875 14.70703125 C18.28253863 15.03352059 19.61578434 15.57854477 21.9375 18 C22.67674051 23.91392405 22.67674051 23.91392405 20.796875 26.67578125 C18.15752463 28.55548666 15.95724745 28.51506734 12.75 28.6875 C11.11998047 28.78611328 11.11998047 28.78611328 9.45703125 28.88671875 C8.20986328 28.94279297 8.20986328 28.94279297 6.9375 29 C6.81632812 29.91523438 6.69515625 30.83046875 6.5703125 31.7734375 C6.40273438 32.96195312 6.23515625 34.15046875 6.0625 35.375 C5.90007812 36.55835938 5.73765625 37.74171875 5.5703125 38.9609375 C4.9375 42 4.9375 42 2.9375 44 C-3.19639831 44.55762712 -3.19639831 44.55762712 -5.7734375 42.8984375 C-7.70200909 40.05817753 -7.35053339 37.69712405 -7.25 34.3125 C-7.22292969 33.13300781 -7.19585937 31.95351563 -7.16796875 30.73828125 C-7.13316406 29.83464844 -7.09835937 28.93101562 -7.0625 28 C-7.88234375 28.04640625 -8.7021875 28.0928125 -9.546875 28.140625 C-11.16335938 28.19476563 -11.16335938 28.19476563 -12.8125 28.25 C-14.41351563 28.31960938 -14.41351563 28.31960938 -16.046875 28.390625 C-19.0625 28 -19.0625 28 -21.4609375 26.1796875 C-23.0625 24 -23.0625 24 -22.9375 20.875 C-22.0625 18 -22.0625 18 -20.0625 16 C-17.2421875 15.5859375 -17.2421875 15.5859375 -13.9375 15.375 C-12.84179688 15.30023438 -11.74609375 15.22546875 -10.6171875 15.1484375 C-9.77414062 15.09945313 -8.93109375 15.05046875 -8.0625 15 C-8.03671875 14.25234375 -8.0109375 13.5046875 -7.984375 12.734375 C-7.52472983 4.75326343 -7.52472983 4.75326343 -5.375 1.25 C-3.0625 0 -3.0625 0 0 0 Z " fill="#051E39" transform="translate(360.0625,276)"/>
<path d="M0 0 C3.4375 2 3.4375 2 6 4 C5.40962704 7.98501745 4.02218319 10.33760052 1 13 C-2.66193496 13.72816574 -6.27202549 13.92929704 -10 14 C-11.05832 17.17495999 -11.14014386 19.50454287 -11.17578125 22.83984375 C-11.19962891 23.98517578 -11.22347656 25.13050781 -11.24804688 26.31054688 C-11.29094303 28.72443052 -11.32223297 31.13854889 -11.34179688 33.55273438 C-11.36951172 34.69935547 -11.39722656 35.84597656 -11.42578125 37.02734375 C-11.44036377 38.07656006 -11.45494629 39.12577637 -11.4699707 40.20678711 C-12.12811772 43.67517033 -13.22781202 44.87274056 -16 47 C-19.0625 47.4375 -19.0625 47.4375 -22 47 C-23.65834045 45.71372986 -23.65834045 45.71372986 -25 44 C-25.31064889 41.03447627 -25.44415071 38.28338271 -25.43359375 35.31640625 C-25.4388356 34.46449203 -25.44407745 33.61257782 -25.44947815 32.73484802 C-25.45590004 30.93351328 -25.45455917 29.13213661 -25.44604492 27.33081055 C-25.43754136 24.57589911 -25.46628169 21.82306553 -25.49804688 19.06835938 C-25.49965916 17.31770895 -25.49908083 15.56705486 -25.49609375 13.81640625 C-25.50732773 12.99338516 -25.51856171 12.17036407 -25.53013611 11.32240295 C-25.48390672 7.5237767 -25.44408139 5.60886963 -23.15649414 2.47241211 C-20.24465382 0.48426437 -18.46146051 0.56731744 -15 1 C-12.625 2 -12.625 2 -11 3 C-10.484375 2.505 -9.96875 2.01 -9.4375 1.5 C-6.04826907 -0.58568057 -3.92467225 -0.47366734 0 0 Z " fill="#072643" transform="translate(409,376)"/>
<path d="M0 0 C3.76115969 2.06495042 7.09650288 4.08725592 9 8 C9.66229238 11.84865462 9.87899886 15.37671475 7.98046875 18.8828125 C5.84579702 21.55276445 4.26005253 22.91331582 1 24 C-6.63119919 24.75060976 -6.63119919 24.75060976 -10.375 21.6875 C-13.57575916 18.41053229 -15.31808964 16.25245475 -15.5625 11.6875 C-15.51948929 8.75799287 -15.34004485 7.42882941 -13.50390625 5.11328125 C-9.069782 1.30601864 -5.99266817 -0.57621809 0 0 Z " fill="#EEEDDC" transform="translate(121,387)"/>
<path d="M0 0 C2.76916852 1.53214766 4.46296898 3.23228778 6 6 C6.89645618 10.98517093 6.6655652 15.36936527 4.75 20.0625 C2.02402602 23.08054262 0.1282075 23.82831625 -3.875 24.4375 C-8.18064435 23.83470979 -9.99464156 22.07366204 -13 19 C-15.07097877 15.32871945 -15.66700013 12.16875079 -15 8 C-11.15121109 2.0871918 -7.3650869 -1.01089428 0 0 Z " fill="#EFF1E5" transform="translate(174,387)"/>
<path d="M0 0 C4.04779013 0.03867315 6.52847482 0.63251079 9.75 3.25 C11.75913502 7.26827004 11.49579315 11.90361531 10.75 16.25 C8.19265751 20.14514304 5.18154368 21.92863305 0.6875 22.9375 C-3.36235647 21.98966125 -5.3622363 20.2033947 -8.25 17.25 C-10.31165186 13.59525352 -10.85648657 10.40876507 -10.25 6.25 C-7.8125 3.4375 -7.8125 3.4375 -5.25 1.25 C-3.68966377 -0.31033623 -2.16052864 0.04292441 0 0 Z " fill="#F0F1E3" transform="translate(351.25,388.75)"/>
<path d="M0 0 C1.41249023 -0.01063477 1.41249023 -0.01063477 2.85351562 -0.02148438 C11.7309034 0.05995955 11.7309034 0.05995955 15.5625 3.4375 C16.1875 6.375 16.1875 6.375 15.5625 9.4375 C13.10146899 12.10947652 11.55278271 13.29603104 7.9375 13.8125 C5.5625 13.4375 5.5625 13.4375 2.5625 11.4375 C2.5625 12.0975 2.5625 12.7575 2.5625 13.4375 C0.29225032 13.51847324 -1.97882075 13.57667704 -4.25 13.625 C-6.14685547 13.67720703 -6.14685547 13.67720703 -8.08203125 13.73046875 C-11.4375 13.4375 -11.4375 13.4375 -13.359375 12.109375 C-15.07714491 9.44558688 -14.87819924 7.52239469 -14.4375 4.4375 C-10.97530169 -1.01152802 -5.79565592 -0.12247126 0 0 Z " fill="#092541" transform="translate(350.4375,127.5625)"/>
<path d="M0 0 C0.721875 0.5775 1.44375 1.155 2.1875 1.75 C2.0225 2.36875 1.8575 2.9875 1.6875 3.625 C0.6718938 9.97253875 -0.07499371 15.47486626 3.5 21.125 C6.81905932 25.59296448 10.63811479 29.66684545 14.49145508 33.67724609 C16.74536777 36.04057964 18.13973086 37.60669258 19.1875 40.75 C18.5275 41.74 17.8675 42.73 17.1875 43.75 C17.001875 42.904375 16.81625 42.05875 16.625 41.1875 C15.01128472 37.32861563 13.19207077 35.62102858 10.19921875 32.81640625 C5.71647938 28.211806 -1.70593945 20.30356253 -1.90234375 13.75390625 C-1.80089114 11.46211783 -1.69673021 9.17044767 -1.58984375 6.87890625 C-1.84227214 3.3316231 -2.17513972 2.11060025 -4.8125 -0.25 C-16.01292185 -4.2469548 -28.83727302 -5.23054448 -39.8125 -0.25 C-41.50457001 0.7063874 -43.18066893 1.69410931 -44.8125 2.75 C-45.8025 3.08 -46.7925 3.41 -47.8125 3.75 C-48.52072484 5.0617316 -49.18358515 6.39844966 -49.8125 7.75 C-50.76130443 8.8600219 -51.74208739 9.94335879 -52.75 11 C-55.99068687 14.65270574 -57.34940633 18.11687006 -58.8125 22.75 C-59.1425 22.75 -59.4725 22.75 -59.8125 22.75 C-60.56652958 16.71776334 -58.23287529 13.41908373 -54.8125 8.75 C-54.36648437 8.12609375 -53.92046875 7.5021875 -53.4609375 6.859375 C-49.67925852 2.00023442 -45.37605036 -0.71011832 -39.8125 -3.25 C-39.12414062 -3.57097656 -38.43578125 -3.89195312 -37.7265625 -4.22265625 C-25.80393707 -8.98727422 -10.68301673 -7.00525687 0 0 Z " fill="#DEB248" transform="translate(264.8125,186.25)"/>
<path d="M0 0 C1.58158962 3.00887781 2.43945339 5.63672037 3 9 C3.99 8.67 4.98 8.34 6 8 C6.26554688 8.85464844 6.53109375 9.70929688 6.8046875 10.58984375 C7.15789062 11.69457031 7.51109375 12.79929688 7.875 13.9375 C8.39707031 15.59072266 8.39707031 15.59072266 8.9296875 17.27734375 C9.70024295 20.12878804 9.70024295 20.12878804 12 21 C11.67 21.66 11.34 22.32 11 23 C9.35 22.67 7.7 22.34 6 22 C6 19.03 6 16.06 6 13 C5.34 13 4.68 13 4 13 C3.58550868 19.21736987 4.57416364 25.22990364 7 31 C7.99 31.33 8.98 31.66 10 32 C10.53625 32.9075 11.0725 33.815 11.625 34.75 C15.70250177 41.26462927 24.97065158 44.21539249 31.9375 46.6875 C34.02623755 47.00397539 35.95176835 47.01918847 38.0625 47 C42 47 42 47 45 48 C45.33 47.01 45.66 46.02 46 45 C48.97 45 51.94 45 55 45 C55 44.34 55 43.68 55 43 C55.99 43 56.98 43 58 43 C58 42.01 58 41.02 58 40 C60.64 39.67 63.28 39.34 66 39 C62.96540451 42.42945852 60.18234083 44.02007182 55.9375 45.6875 C54.89464844 46.10386719 53.85179687 46.52023437 52.77734375 46.94921875 C42.42642906 50.8653876 31.06467592 50.11044699 20.9765625 45.6796875 C10.79898039 39.9364325 3.63491197 31.32093496 0.4921875 20.07421875 C-0.56897872 13.44614084 -0.2095229 6.68921249 0 0 Z " fill="#E14A6D" transform="translate(202,211)"/>
<path d="M0 0 C0.99 0.495 0.99 0.495 2 1 C-11.71780193 19.12007648 -27.13375202 31.48814433 -48.5625 39.1875 C-49.25891602 39.43781982 -49.95533203 39.68813965 -50.67285156 39.94604492 C-59.59382027 43.0407545 -67.85606535 44.38752404 -77.3125 44.375 C-78.32127197 44.37628906 -79.33004395 44.37757813 -80.36938477 44.37890625 C-87.90227319 44.27204816 -94.14367209 43.30283323 -101 40 C-97.90465977 39.01197845 -96.10306585 39.06476273 -93 39.9375 C-77.27969818 43.33271312 -60.82729949 41.06201888 -45.8671875 35.6484375 C-43.93150002 34.9762113 -41.99358402 34.46959979 -40 34 C-40 33.34 -40 32.68 -40 32 C-38.41800369 31.35089846 -36.83434276 30.70585306 -35.25 30.0625 C-34.36828125 29.70285156 -33.4865625 29.34320313 -32.578125 28.97265625 C-30 28 -30 28 -27.75 27.5 C-25.77073238 27.14898873 -25.77073238 27.14898873 -24.75 24.9375 C-24.37875 23.9784375 -24.37875 23.9784375 -24 23 C-23.01 23 -22.02 23 -21 23 C-21 22.34 -21 21.68 -21 21 C-18.6848245 18.42023301 -16.62751353 16.3378919 -13.5625 14.6875 C-10.37548054 12.58873109 -8.68705805 10.08972918 -6.4921875 7.0078125 C-4.54524376 4.38810286 -2.37331477 2.23370802 0 0 Z " fill="#59F0EF" transform="translate(318,268)"/>
<path d="M0 0 C10.23 0 20.46 0 31 0 C30.67 0.66 30.34 1.32 30 2 C28.66666667 2.33333333 27.33333333 2.66666667 26 3 C25.67 3.66 25.34 4.32 25 5 C26.65 5.66 28.3 6.32 30 7 C30 7.66 30 8.32 30 9 C25 7 25 7 20 5 C19.59394531 5.48597656 19.18789062 5.97195313 18.76953125 6.47265625 C16.0517821 8.81843974 13.76194418 8.47085693 10.296875 8.36328125 C6.66439574 7.78875647 4.75808841 6.40448733 2 4 C2 3.34 2 2.68 2 2 C1.34 2 0.68 2 0 2 C0 1.34 0 0.68 0 0 Z " fill="#F7F7ED" transform="translate(213,404)"/>
<path d="M0 0 C3.0625 2.25 3.0625 2.25 5 5 C5 6.32 5 7.64 5 9 C-1.6 9 -8.2 9 -15 9 C-14 4 -14 4 -12 1.6875 C-7.93306451 -0.60015121 -4.566504 -0.96615003 0 0 Z " fill="#E5E7D6" transform="translate(228,387)"/>
<path d="M0 0 C2.9375 0.875 2.9375 0.875 5.9375 2.875 C6.4375 5.75 6.4375 5.75 5.9375 8.875 C3.4834911 11.53935252 1.89897624 12.71475396 -1.6875 13.3125 C-4.0625 12.875 -4.0625 12.875 -5.875 11.75 C-7.64094751 8.96166183 -7.52431576 7.10771032 -7.0625 3.875 C-4.87233593 0.58975389 -3.99350568 -0.16300023 0 0 Z " fill="#1AC6F6" transform="translate(360.0625,128.125)"/>
<path d="M0 0 C0.33 0 0.66 0 1 0 C1 3.3 1 6.6 1 10 C2.4025 10.04125 3.805 10.0825 5.25 10.125 C9.14908042 10.55617793 9.79357175 10.78877109 12.6875 13.75 C14 17 14 17 13.4375 19.6875 C10.98694943 23.62969005 10.98694943 23.62969005 9 25 C6.69 25.33 4.38 25.66 2 26 C2 31.94 2 37.88 2 44 C4.97 43.505 4.97 43.505 8 43 C8 43.99 8 44.98 8 46 C4.625 46.125 4.625 46.125 1 46 C-1.48057628 43.51942372 -1.29019005 42.63807536 -1.4140625 39.2109375 C-1.45273437 38.26992188 -1.49140625 37.32890625 -1.53125 36.359375 C-1.5621875 35.37453125 -1.593125 34.3896875 -1.625 33.375 C-1.66367187 32.38242187 -1.70234375 31.38984375 -1.7421875 30.3671875 C-1.8366314 27.91164615 -1.92219875 25.4561159 -2 23 C-1.21753906 22.93941406 -0.43507813 22.87882812 0.37109375 22.81640625 C1.38300781 22.73261719 2.39492188 22.64882813 3.4375 22.5625 C4.44683594 22.48128906 5.45617187 22.40007812 6.49609375 22.31640625 C8.93640779 22.26788532 8.93640779 22.26788532 10 21 C10.25005386 18.04182893 10.25005386 18.04182893 10 15 C6.99382731 11.99382731 4.17618402 12.40414684 0 12 C0 8.04 0 4.08 0 0 Z " fill="#ECEEEA" transform="translate(315,364)"/>
<path d="M0 0 C2.4440918 0.06811523 2.4440918 0.06811523 5 1 C6.57739258 3.13305664 6.57739258 3.13305664 7.89453125 5.91015625 C8.37470703 6.89951172 8.85488281 7.88886719 9.34960938 8.90820312 C9.83236328 9.94912109 10.31511719 10.99003906 10.8125 12.0625 C11.56563477 13.62967773 11.56563477 13.62967773 12.33398438 15.22851562 C13.57249489 17.81169469 14.79348327 20.40176258 16 23 C15.01 23 14.02 23 13 23 C9.7 16.4 6.4 9.8 3 3 C1.68 3.33 0.36 3.66 -1 4 C-1 5.32 -1 6.64 -1 8 C-1.7425 8.70125 -2.485 9.4025 -3.25 10.125 C-6.90501588 13.94615296 -8.28496146 18.06567124 -10 23 C-10.66 23 -11.32 23 -12 23 C-12.33 23.99 -12.66 24.98 -13 26 C-16.29960141 27.6498007 -19.99127884 27.38258361 -23.625 27.5625 C-24.42679687 27.60568359 -25.22859375 27.64886719 -26.0546875 27.69335938 C-28.0362511 27.79951457 -30.01810271 27.90026855 -32 28 C-32 27.67 -32 27.34 -32 27 C-30.42798828 26.80083984 -30.42798828 26.80083984 -28.82421875 26.59765625 C-27.44529222 26.41942765 -26.06638707 26.24103359 -24.6875 26.0625 C-23.99720703 25.97548828 -23.30691406 25.88847656 -22.59570312 25.79882812 C-19.59857712 25.40789865 -16.87549881 24.9584996 -14 24 C-12.56917631 21.4527225 -11.29109861 18.95457206 -10.0625 16.3125 C-4.46982759 4.46982759 -4.46982759 4.46982759 0 0 Z " fill="#ECE05A" transform="translate(321,168)"/>
<path d="M0 0 C0.66 0 1.32 0 2 0 C3.85541247 4.63853118 5.00096983 9.04737538 4 14 C1.34193247 19.9828744 -1.27323381 23.77814081 -7 27 C-8.99295066 28.64627087 -8.99295066 28.64627087 -10.75 30.4375 C-11.34296875 31.01371094 -11.9359375 31.58992188 -12.546875 32.18359375 C-15.22069382 35.52586727 -15.11538142 38.84626873 -15 43 C-17.27909677 39.58135484 -18.07757223 38.11132808 -18 34 C-15.08026137 29.39579677 -10.95598276 25.91117164 -6.8125 22.4375 C-2.72210334 18.92690714 0.54270279 15.52582779 1.26953125 9.921875 C1.33899027 6.51206837 1.08114544 3.24343631 0 0 Z " fill="#EAEFEE" transform="translate(379,190)"/>
<path d="M0 0 C0.99 0.495 0.99 0.495 2 1 C2 1.99 2 2.98 2 4 C2.90492188 3.98259766 2.90492188 3.98259766 3.828125 3.96484375 C5.02695312 3.95130859 5.02695312 3.95130859 6.25 3.9375 C7.43335938 3.92009766 7.43335938 3.92009766 8.640625 3.90234375 C12.91000492 4.0790565 12.91000492 4.0790565 15 5 C16.89453125 7.484375 16.89453125 7.484375 18.8125 10.75 C19.34701782 11.61214111 19.34701782 11.61214111 19.89233398 12.49169922 C21.7373725 15.52840246 23.09201759 18.26526059 24.265625 21.6484375 C25.77478602 25.69407998 26.83132414 28.02109164 30 31 C37.35196909 33.45581071 45.30434684 33.7341792 53 34 C53 34.33 53 34.66 53 35 C49.59737101 35.08941215 46.21243354 35.11686694 42.80859375 35.05859375 C39.12727038 34.9456518 39.12727038 34.9456518 35.97265625 35.22265625 C32.52281206 35.1781102 30.92928248 34.89283471 28 33 C24.2165782 27.8798318 21.71323119 22.00191134 19.07958984 16.23901367 C17.12708106 12.18961113 15.42965035 8.68233312 11.25 6.6875 C7.49632385 5.89345312 3.81650035 5.39481038 0 5 C0 3.35 0 1.7 0 0 Z " fill="#EDEFEE" transform="translate(318,148)"/>
<path d="M0 0 C3.24393993 0.68621806 6.00101338 1.84804913 8.984375 3.28515625 C10.38623047 3.95708008 10.38623047 3.95708008 11.81640625 4.64257812 C13.26853516 5.34543945 13.26853516 5.34543945 14.75 6.0625 C15.73355469 6.53494141 16.71710938 7.00738281 17.73046875 7.49414062 C20.15526162 8.65945371 22.57834631 9.82818093 25 11 C21.05842614 12.15469014 18.03750918 11.82245557 14 11 C13.34 10.34 12.68 9.68 12 9 C9.94285168 9.01382865 9.94285168 9.01382865 8 10 C6.71563266 11.9837767 6.71563266 11.9837767 6 14 C4.68 13.67 3.36 13.34 2 13 C2.33 10.03 2.66 7.06 3 4 C2.01 3.34 1.02 2.68 0 2 C0 1.34 0 0.68 0 0 Z " fill="#F4F7F1" transform="translate(321,253)"/>
<path d="M0 0 C0.99 0.495 0.99 0.495 2 1 C1.99777939 1.60419769 1.99555878 2.20839539 1.99327087 2.8309021 C1.97102989 9.1582581 1.95601539 15.48560288 1.94506836 21.81298828 C1.94006082 24.16976371 1.93325286 26.52653606 1.92456055 28.88330078 C1.91233749 32.28418744 1.90673575 35.68503277 1.90234375 39.0859375 C1.89718246 40.12801361 1.89202118 41.17008972 1.88670349 42.2437439 C1.88627839 47.87346919 2.14423559 53.34143497 2.87623596 58.92617798 C3.04002667 61.67069721 2.34521901 63.62608409 1 66 C0.67 66 0.34 66 0 66 C0 44.22 0 22.44 0 0 Z " fill="#F3FAEF" transform="translate(193,356)"/>
<path d="M0 0 C1.58158962 3.00887781 2.43945339 5.63672037 3 9 C3.99 8.67 4.98 8.34 6 8 C6.26554688 8.85464844 6.53109375 9.70929688 6.8046875 10.58984375 C7.15789062 11.69457031 7.51109375 12.79929688 7.875 13.9375 C8.39707031 15.59072266 8.39707031 15.59072266 8.9296875 17.27734375 C9.70024295 20.12878804 9.70024295 20.12878804 12 21 C11.67 21.66 11.34 22.32 11 23 C9.35 22.67 7.7 22.34 6 22 C6 19.03 6 16.06 6 13 C5.34 13 4.68 13 4 13 C3.87530901 18.57830016 3.87530901 18.57830016 5 24 C4.34 23.67 3.68 23.34 3 23 C3 22.34 3 21.68 3 21 C2.34 21 1.68 21 1 21 C0.21311555 18.22276075 -0.11949924 15.77389923 -0.09765625 12.890625 C-0.09443359 12.13652344 -0.09121094 11.38242188 -0.08789062 10.60546875 C-0.07951172 9.82816406 -0.07113281 9.05085937 -0.0625 8.25 C-0.05798828 7.45722656 -0.05347656 6.66445312 -0.04882812 5.84765625 C-0.03708565 3.89840492 -0.01915146 1.94919262 0 0 Z " fill="#EC5C67" transform="translate(202,211)"/>
<path d="M0 0 C0.33 0 0.66 0 1 0 C1.39168975 4.43915044 0.31940842 7.22022332 -2 11 C-2.99 11.33 -3.98 11.66 -5 12 C-6.416663 13.43132685 -6.416663 13.43132685 -7.75 15.1875 C-10.42474397 18.44545882 -13.30465281 21.09756794 -16.58203125 23.73828125 C-18.1369442 24.96479293 -18.1369442 24.96479293 -19 27 C-19.99 26.67 -20.98 26.34 -22 26 C-20.73542969 24.78763672 -20.73542969 24.78763672 -19.4453125 23.55078125 C-18.33814448 22.47176157 -17.23139558 21.39231171 -16.125 20.3125 C-15.56941406 19.78205078 -15.01382812 19.25160156 -14.44140625 18.70507812 C-11.2778443 15.59868898 -9.52681596 13.21757233 -8 9 C-6.08984375 6.54296875 -6.08984375 6.54296875 -3.9375 4.1875 C-2.86822266 3.00220703 -2.86822266 3.00220703 -1.77734375 1.79296875 C-1.19082031 1.20128906 -0.60429687 0.60960937 0 0 Z " fill="#E6EDF1" transform="translate(331,274)"/>
<path d="M0 0 C0.928125 0.825 1.85625 1.65 2.8125 2.5 C11.56177349 10.29320837 11.56177349 10.29320837 22 15 C22.45052734 15.46680176 22.90105469 15.93360352 23.36523438 16.41455078 C25.17821776 18.17284142 26.67562267 18.89329325 29.01171875 19.82421875 C30.14770508 20.28344727 30.14770508 20.28344727 31.30664062 20.75195312 C32.09232422 21.06068359 32.87800781 21.36941406 33.6875 21.6875 C34.88342773 22.16799805 34.88342773 22.16799805 36.10351562 22.65820312 C38.06627407 23.44565711 40.03278459 24.22374743 42 25 C42 25.33 42 25.66 42 26 C36.74386256 26.43801145 33.0694517 25.00541239 28.5 22.625 C27.80729004 22.27066895 27.11458008 21.91633789 26.40087891 21.55126953 C16.64231997 16.40851564 7.50108806 10.13181018 0 2 C0 1.34 0 0.68 0 0 Z " fill="#54DEE9" transform="translate(174,281)"/>
<path d="M0 0 C2 1 4 2 6 3 C5.34 8.28 4.68 13.56 4 19 C2.0549 16.08235 1.54723683 14.37462715 1 11 C0.443125 11.33 -0.11375 11.66 -0.6875 12 C-3.34756125 13.15029676 -5.12579479 13.14371026 -8 13 C-9.32 13 -10.64 13 -12 13 C-12 12.34 -12 11.68 -12 11 C-11.39671875 10.98582031 -10.7934375 10.97164063 -10.171875 10.95703125 C-4.80705623 10.63953665 -4.80705623 10.63953665 -0.375 7.75 C1.25582856 5.08950391 1.25582856 5.08950391 0.75 2.1875 C0.5025 1.465625 0.255 0.74375 0 0 Z " fill="#F5F6F2" transform="translate(413,378)"/>
<path d="M0 0 C1.52634923 3.05269846 0.83794444 5.75845689 0.5625 9.125 C0.46066406 10.40632813 0.35882813 11.68765625 0.25390625 13.0078125 C0.17011719 13.99523437 0.08632813 14.98265625 0 16 C-1.24716797 16.05607422 -1.24716797 16.05607422 -2.51953125 16.11328125 C-4.14955078 16.21189453 -4.14955078 16.21189453 -5.8125 16.3125 C-7.43091797 16.39951172 -7.43091797 16.39951172 -9.08203125 16.48828125 C-11.9787477 16.77538459 -11.9787477 16.77538459 -13.859375 18.35546875 C-15.67264788 20.96981081 -15.44911506 22.92035389 -15 26 C-12.0060264 29.47300938 -8.39195091 29.57769703 -4 30 C-4 30.33 -4 30.66 -4 31 C-11.09561034 31.48105833 -11.09561034 31.48105833 -14.9375 29.4375 C-17.66802141 26.21052015 -18.07383065 24.20834731 -18 20 C-16.75 17.125 -16.75 17.125 -14 15 C-10.33504438 14.28912499 -6.72809448 14.07070524 -3 14 C-2.86722656 13.07316406 -2.73445313 12.14632812 -2.59765625 11.19140625 C-2.42105469 9.99386719 -2.24445313 8.79632813 -2.0625 7.5625 C-1.80146484 5.77005859 -1.80146484 5.77005859 -1.53515625 3.94140625 C-1 1 -1 1 0 0 Z " fill="#F6F7ED" transform="translate(352,112)"/>
<path d="M0 0 C0.93005859 0.18175781 0.93005859 0.18175781 1.87890625 0.3671875 C8.86696235 1.68952708 15.85437518 2.66840548 22.91015625 3.53515625 C26 4 26 4 28 5 C28.3125 7.75 28.3125 7.75 28 11 C25.5 13.375 25.5 13.375 23 15 C23.69941596 11.85262818 24.76078698 8.97411124 26 6 C24.783125 6.04125 23.56625 6.0825 22.3125 6.125 C14.9470312 6.125 6.49241689 5.74139279 0 2 C0 1.34 0 0.68 0 0 Z " fill="#E2D037" transform="translate(337,192)"/>
<path d="M0 0 C5.52706913 0.72724594 10.69960141 2.33445973 16 4 C16.33 5.65 16.66 7.3 17 9 C11.52667068 10.46845421 8.88077452 9.44038726 4 7 C5.32 5.68 6.64 4.36 8 3 C7.05125 2.87625 6.1025 2.7525 5.125 2.625 C2 2 2 2 0 0 Z " fill="#ECF0E8" transform="translate(422,403)"/>
<path d="M0 0 C0 0.66 0 1.32 0 2 C-6 5 -6 5 -8.25 5.9375 C-10.14458459 6.8743884 -10.14458459 6.8743884 -10.92578125 8.86328125 C-12.03374715 11.06712615 -13.24296345 12.47353929 -14.9375 14.25 C-18.17818687 17.90270574 -19.53690633 21.36687006 -21 26 C-21.33 26 -21.66 26 -22 26 C-22.75402958 19.96776334 -20.42037529 16.66908373 -17 12 C-16.55398437 11.37609375 -16.10796875 10.7521875 -15.6484375 10.109375 C-12.05561257 5.49289604 -6.19867246 0 0 0 Z " fill="#EE9521" transform="translate(227,183)"/>
<path d="M0 0 C1.39613065 0.14295891 2.79189308 0.28951558 4.1875 0.4375 C4.96480469 0.51871094 5.74210938 0.59992188 6.54296875 0.68359375 C9 1 9 1 11.41015625 1.53515625 C14.41402078 2.07431142 17.19984795 2.05894014 20.25 2 C25.60311449 1.95127996 30.69889699 2.28120637 36 3 C35.67 3.66 35.34 4.32 35 5 C10.01734161 5.82555811 10.01734161 5.82555811 0 1 C0 0.67 0 0.34 0 0 Z " fill="#49DCDA" transform="translate(217,307)"/>
<path d="M0 0 C3.08825418 2.81971034 3.87063503 4.9219586 4.375 9.125 C3.87221293 14.32046641 1.78659541 17.67429666 -1 22 C-1.5775 22.99 -2.155 23.98 -2.75 25 C-6.11493995 27.99105774 -9.62199235 27.89709811 -14 28 C-11.72062639 26.24663569 -9.46652272 24.67769081 -7 23.1875 C-2.84903673 20.16075595 -0.61780302 16.85340905 1 12 C1.23294845 5.91431338 1.23294845 5.91431338 0 0 Z " fill="#F3F5ED" transform="translate(290,396)"/>
<path d="M0 0 C2.91227269 3.28804981 4.49701212 5.59885603 5 10 C5.99 10.33 6.98 10.66 8 11 C8.53625 11.9075 9.0725 12.815 9.625 13.75 C13.47422662 19.8999138 21.53168389 22.38514881 28 25 C28 25.33 28 25.66 28 26 C19.5196155 25.29330129 13.42934458 22.14946549 7.60546875 15.92578125 C3.507624 11.01036164 0.49022737 6.53636496 0 0 Z " fill="#E84890" transform="translate(204,232)"/>
<path d="M0 0 C9.24 0 18.48 0 28 0 C28 0.33 28 0.66 28 1 C27.40461426 1.01981934 26.80922852 1.03963867 26.19580078 1.06005859 C23.50507847 1.15516126 20.81514852 1.26489842 18.125 1.375 C17.18785156 1.4059375 16.25070313 1.436875 15.28515625 1.46875 C13.94130859 1.52675781 13.94130859 1.52675781 12.5703125 1.5859375 C11.32918701 1.63306885 11.32918701 1.63306885 10.06298828 1.68115234 C7.78013915 1.82599137 7.78013915 1.82599137 6 4 C9.65079826 5.61064629 13.0507432 6.44894091 17 7 C17 7.33 17 7.66 17 8 C8.39636076 8.68829114 8.39636076 8.68829114 4.4375 6.125 C3.633125 5.42375 2.82875 4.7225 2 4 C2 3.34 2 2.68 2 2 C1.34 2 0.68 2 0 2 C0 1.34 0 0.68 0 0 Z " fill="#B5C0BD" transform="translate(213,404)"/>
<path d="M0 0 C1.155 0.165 2.31 0.33 3.5 0.5 C13.57804904 1.61623961 23.971027 1.43271043 34 0 C34 0.66 34 1.32 34 2 C22.4136712 5.04082654 12.59362616 5.40989005 1 2 C0.67 1.34 0.34 0.68 0 0 Z " fill="#41ECF4" transform="translate(224,271)"/>
<path d="M0 0 C0 3 0 3 -1.328125 4.40234375 C-1.96234375 4.90894531 -2.5965625 5.41554687 -3.25 5.9375 C-7.21457529 9.24606643 -10.86816454 12.7738725 -14.5 16.4375 C-15.04043945 16.98204834 -15.58087891 17.52659668 -16.13769531 18.08764648 C-17.42716016 19.38975721 -18.7138786 20.69458678 -20 22 C-20.66 21.67 -21.32 21.34 -22 21 C-5.90977444 2.95488722 -5.90977444 2.95488722 0 0 Z " fill="#2FAFF6" transform="translate(189,143)"/>
<path d="M0 0 C0.33 0.99 0.66 1.98 1 3 C0.67 3.66 0.34 4.32 0 5 C-0.23029956 7.37123246 -0.41119942 9.74741943 -0.5625 12.125 C-0.64628906 13.40632813 -0.73007813 14.68765625 -0.81640625 16.0078125 C-0.90728516 17.48894531 -0.90728516 17.48894531 -1 19 C-2.953125 18.4140625 -2.953125 18.4140625 -5 17 C-5.609375 13.9609375 -5.609375 13.9609375 -5.75 10.375 C-5.80671875 9.18648438 -5.8634375 7.99796875 -5.921875 6.7734375 C-5.94765625 5.85820312 -5.9734375 4.94296875 -6 4 C-5.34 4.66 -4.68 5.32 -4 6 C-2.68 4.02 -1.36 2.04 0 0 Z " fill="#F7F6EB" transform="translate(148,387)"/>
<path d="M0 0 C1.75 1.31640625 1.75 1.31640625 2.75 3.31640625 C0.77 2.65640625 -1.21 1.99640625 -3.25 1.31640625 C-3.58 2.30640625 -3.91 3.29640625 -4.25 4.31640625 C-5.875 5.25390625 -5.875 5.25390625 -8.25 6.31640625 C-9.36375 6.95578125 -10.4775 7.59515625 -11.625 8.25390625 C-12.22699219 8.59550781 -12.82898438 8.93710937 -13.44921875 9.2890625 C-15.12015074 10.24232739 -16.77937341 11.21603767 -18.4375 12.19140625 C-21.25 13.31640625 -21.25 13.31640625 -23.42578125 12.38671875 C-24.02777344 12.03351563 -24.62976563 11.6803125 -25.25 11.31640625 C-24.51136719 11.03667969 -23.77273438 10.75695312 -23.01171875 10.46875 C-16.26679097 7.80334652 -10.50264185 4.73610354 -4.625 0.4765625 C-2.25 -0.68359375 -2.25 -0.68359375 0 0 Z " fill="#4EF0F3" transform="translate(283.25,258.68359375)"/>
<path d="M0 0 C0.99 0.495 0.99 0.495 2 1 C2 3.31 2 5.62 2 8 C2.65226562 7.94199219 3.30453125 7.88398438 3.9765625 7.82421875 C12.01338977 7.40933829 12.01338977 7.40933829 15.625 10.1875 C18 13 18 13 18.375 15.8125 C18.25125 16.534375 18.1275 17.25625 18 18 C17.34 17.01 16.68 16.02 16 15 C13.71670218 12.18187566 12.5871937 11.11865572 8.984375 10.390625 C7.38335937 10.32101562 7.38335937 10.32101562 5.75 10.25 C4.67234375 10.19328125 3.5946875 10.1365625 2.484375 10.078125 C1.25460937 10.03945313 1.25460937 10.03945313 0 10 C0 6.7 0 3.4 0 0 Z " fill="#F0F4F4" transform="translate(366,281)"/>
<path d="M0 0 C0.99580078 0.84498047 0.99580078 0.84498047 2.01171875 1.70703125 C1.35171875 4.67703125 0.69171875 7.64703125 0.01171875 10.70703125 C-0.64828125 10.37703125 -1.30828125 10.04703125 -1.98828125 9.70703125 C-1.65828125 7.39703125 -1.32828125 5.08703125 -0.98828125 2.70703125 C-1.64828125 2.37703125 -2.30828125 2.04703125 -2.98828125 1.70703125 C-4.07109375 2.35671875 -4.07109375 2.35671875 -5.17578125 3.01953125 C-8.39939868 4.95370171 -11.32569957 5.89312421 -14.98828125 6.70703125 C-15.97828125 6.37703125 -16.96828125 6.04703125 -17.98828125 5.70703125 C-15.603629 4.45021453 -13.21001423 3.22750946 -10.80078125 2.01953125 C-10.12724609 1.66052734 -9.45371094 1.30152344 -8.75976562 0.93164062 C-3.65710274 -1.58235426 -3.65710274 -1.58235426 0 0 Z " fill="#53E2E3" transform="translate(322.98828125,255.29296875)"/>
<path d="M0 0 C0.33 0 0.66 0 1 0 C1.06058594 0.62648438 1.12117188 1.25296875 1.18359375 1.8984375 C1.26738281 2.71570313 1.35117187 3.53296875 1.4375 4.375 C1.51871094 5.18710938 1.59992188 5.99921875 1.68359375 6.8359375 C1.89090114 9.04272805 1.89090114 9.04272805 3 11 C5.19048016 11.35505295 5.19048016 11.35505295 7.75 11.4375 C11.87358677 11.79145595 14.86484443 12.06711254 18 15 C18.8125 18.1875 18.8125 18.1875 19 21 C18.34 21.33 17.68 21.66 17 22 C16.690625 21.030625 16.38125 20.06125 16.0625 19.0625 C15.30476658 16.15934208 15.30476658 16.15934208 14 15 C11.65276034 14.602507 9.29671452 14.25631277 6.9375 13.9375 C5.64714844 13.76089844 4.35679687 13.58429688 3.02734375 13.40234375 C2.02832031 13.26957031 1.02929688 13.13679687 0 13 C0 8.71 0 4.42 0 0 Z " fill="#E4E9EB" transform="translate(366,115)"/>
<path d="M0 0 C1.23593891 3.70781672 0.5678132 4.67510253 -0.9375 8.1875 C-1.31777344 9.08855469 -1.69804687 9.98960937 -2.08984375 10.91796875 C-2.39019531 11.60503906 -2.69054687 12.29210937 -3 13 C-3.66 13 -4.32 13 -5 13 C-5.33 13.99 -5.66 14.98 -6 16 C-9.29960141 17.6498007 -12.99127884 17.38258361 -16.625 17.5625 C-17.42679687 17.60568359 -18.22859375 17.64886719 -19.0546875 17.69335938 C-21.0362511 17.79951457 -23.01810271 17.90026855 -25 18 C-25 17.67 -25 17.34 -25 17 C-23.42798828 16.80083984 -23.42798828 16.80083984 -21.82421875 16.59765625 C-20.44529222 16.41942765 -19.06638707 16.24103359 -17.6875 16.0625 C-16.99720703 15.97548828 -16.30691406 15.88847656 -15.59570312 15.79882812 C-12.59857712 15.40789865 -9.87549881 14.9584996 -7 14 C-5.64672435 11.65567452 -4.4560284 9.37973289 -3.3125 6.9375 C-2.99216797 6.27427734 -2.67183594 5.61105469 -2.34179688 4.92773438 C-1.5521402 3.28949142 -0.77487638 1.64528546 0 0 Z " fill="#E1C240" transform="translate(314,178)"/>
<path d="M0 0 C4.29 0 8.58 0 13 0 C13.24414062 4.8828125 13.24414062 4.8828125 13.48828125 9.765625 C14.01711803 13.10819638 14.73772333 14.5497057 17 17 C13.83884224 15.63016497 13.0072908 15.0109362 11 12 C10.5859375 9.51953125 10.5859375 9.51953125 10.375 6.8125 C10.26285156 5.46091797 10.26285156 5.46091797 10.1484375 4.08203125 C10.07496094 3.05142578 10.07496094 3.05142578 10 2 C7.03 2 4.06 2 1 2 C0.67 1.34 0.34 0.68 0 0 Z " fill="#E8EAE6" transform="translate(340,304)"/>
<path d="M0 0 C2 2 2 2 2.13525391 4.70556641 C2.08288574 5.82624512 2.03051758 6.94692383 1.9765625 8.1015625 C1.89921875 9.91914063 1.89921875 9.91914063 1.8203125 11.7734375 C1.75585938 13.04445312 1.69140625 14.31546875 1.625 15.625 C1.56828125 16.90375 1.5115625 18.1825 1.453125 19.5 C1.31130977 22.66720687 1.15986504 25.83366113 1 29 C0.67 29 0.34 29 0 29 C-1.22070017 19.34338973 -1.8123533 9.60834926 0 0 Z " fill="#1A95D3" transform="translate(150,204)"/>
<path d="M0 0 C3.88773727 0.32397811 7.60196189 0.92762943 11.4375 1.625 C12.7059375 1.810625 12.7059375 1.810625 14 2 C14.33 1.67 14.66 1.34 15 1 C16.51928038 0.92820036 18.04167482 0.91607993 19.5625 0.9375 C20.38878906 0.94652344 21.21507812 0.95554687 22.06640625 0.96484375 C22.70449219 0.97644531 23.34257812 0.98804688 24 1 C24 1.33 24 1.66 24 2 C21.36 2.33 18.72 2.66 16 3 C15.67 4.65 15.34 6.3 15 8 C14.443125 7.65066406 13.88625 7.30132812 13.3125 6.94140625 C8.06701224 3.81360696 4.10262216 2.3328703 -2 2 C-1.34 1.34 -0.68 0.68 0 0 Z " fill="#EDF0EE" transform="translate(348,374)"/>
<path d="M0 0 C0.99 0 1.98 0 3 0 C1.125 5.75 1.125 5.75 0 8 C-3.375 9.6875 -3.375 9.6875 -7 11 C-7.99 10.67 -8.98 10.34 -10 10 C-8.71034824 8.62437146 -7.37310707 7.29233607 -6 6 C-5.34 6 -4.68 6 -4 6 C-3.71125 5.38125 -3.4225 4.7625 -3.125 4.125 C-2 2 -2 2 0 0 Z " fill="#E5E9E5" transform="translate(139,411)"/>
<path d="M0 0 C5.30643041 -0.50537432 7.86680312 0.69344249 12 4 C14.24967421 6.02470679 14.94029486 7.23444747 15.17578125 10.25390625 C15.1863808 12.51161136 15.13001688 14.74637414 15 17 C14.34 17 13.68 17 13 17 C12.90203125 16.32453125 12.8040625 15.6490625 12.703125 14.953125 C11.78652598 9.40806172 11.78652598 9.40806172 9.3125 4.4375 C6.25905701 2.53941382 3.54956374 2.27304336 0 2 C0 1.34 0 0.68 0 0 Z " fill="#DAE3E0" transform="translate(115,387)"/>
<path d="M0 0 C5.75 2.625 5.75 2.625 8 6 C6.68 5.67 5.36 5.34 4 5 C3.566875 5.928125 3.566875 5.928125 3.125 6.875 C2 9 2 9 0 11 C-0.99 10.67 -1.98 10.34 -3 10 C-2.34 9.01 -1.68 8.02 -1 7 C-0.960008 5.00039988 -0.95653201 2.99952758 -1 1 C-0.67 0.67 -0.34 0.34 0 0 Z " fill="#F1F1EB" transform="translate(327,410)"/>
<path d="M0 0 C3.66881155 0.70554068 6.70450534 2.27735506 10 4 C9.01 4.495 9.01 4.495 8 5 C8 5.99 8 6.98 8 8 C7.01 8 6.02 8 5 8 C5 9.65 5 11.3 5 13 C4.01 13 3.02 13 2 13 C2.33 10.03 2.66 7.06 3 4 C2.01 3.34 1.02 2.68 0 2 C0 1.34 0 0.68 0 0 Z " fill="#ACF9F9" transform="translate(321,253)"/>
<path d="M0 0 C0.33 0 0.66 0 1 0 C1.66 5.94 2.32 11.88 3 18 C4.98 17.67 6.96 17.34 9 17 C9 17.99 9 18.98 9 20 C5.625 20.125 5.625 20.125 2 20 C0 18 0 18 -0.22705078 16.12060547 C-0.21657715 15.37697754 -0.20610352 14.63334961 -0.1953125 13.8671875 C-0.18886719 13.06152344 -0.18242187 12.25585938 -0.17578125 11.42578125 C-0.15064453 10.16314453 -0.15064453 10.16314453 -0.125 8.875 C-0.11597656 8.02550781 -0.10695313 7.17601562 -0.09765625 6.30078125 C-0.07405647 4.20040116 -0.03818483 2.10016556 0 0 Z " fill="#F0F2E9" transform="translate(314,390)"/>
<path d="M0 0 C0.33 0 0.66 0 1 0 C1.33 7.92 1.66 15.84 2 24 C0.35 23.01 -1.3 22.02 -3 21 C-2.34 20.34 -1.68 19.68 -1 19 C-0.73974206 17.07888518 -0.73974206 17.07888518 -0.83984375 14.90234375 C-0.8562793 13.70061523 -0.8562793 13.70061523 -0.87304688 12.47460938 C-0.89431641 11.63736328 -0.91558594 10.80011719 -0.9375 9.9375 C-0.99922153 6.95429282 -1.02058442 3.98474033 -1 1 C-0.67 0.67 -0.34 0.34 0 0 Z " fill="#EFF0E7" transform="translate(178,357)"/>
<path d="M0 0 C0.66 0.33 1.32 0.66 2 1 C-8.51286851 14.64436125 -8.51286851 14.64436125 -14 19 C-14.99 19 -15.98 19 -17 19 C-16 16 -16 16 -13.8125 14.8125 C-10.46070503 12.65245436 -8.78050385 10.22094065 -6.4921875 7.0078125 C-4.54524376 4.38810286 -2.37331477 2.23370802 0 0 Z " fill="#68FBFB" transform="translate(318,268)"/>
<path d="M0 0 C1.32 0.33 2.64 0.66 4 1 C0.46037668 5.38239078 -3.1912706 9.2004719 -7.58203125 12.73828125 C-9.1369442 13.96479293 -9.1369442 13.96479293 -10 16 C-10.99 15.67 -11.98 15.34 -13 15 C-11.71802734 13.75283203 -11.71802734 13.75283203 -10.41015625 12.48046875 C-9.29400823 11.38307952 -8.17813718 10.28540855 -7.0625 9.1875 C-6.49853516 8.64029297 -5.93457031 8.09308594 -5.35351562 7.52929688 C-1.98970438 4.22039606 -1.98970438 4.22039606 0 0 Z " fill="#F8F7F6" transform="translate(322,285)"/>
<path d="M0 0 C0.928125 0.825 1.85625 1.65 2.8125 2.5 C8.68106632 7.5301997 14.94019461 12.75943359 22 16 C13.3615378 16 7.83411374 9.77938633 1.875 4.125 C0 2 0 2 0 0 Z " fill="#49DFF2" transform="translate(174,281)"/>
<path d="M0 0 C2.62643772 0.54011421 3.44570334 1.15843323 4.9375 3.3984375 C5.23046875 6.53515625 5.23046875 6.53515625 5.125 10.0859375 C5.09792969 11.26542969 5.07085937 12.44492187 5.04296875 13.66015625 C5.00816406 14.56378906 4.97335937 15.46742188 4.9375 16.3984375 C4.6075 16.3984375 4.2775 16.3984375 3.9375 16.3984375 C3.87691406 15.54378906 3.81632812 14.68914062 3.75390625 13.80859375 C3.67011719 12.70386719 3.58632813 11.59914063 3.5 10.4609375 C3.41878906 9.35878906 3.33757812 8.25664062 3.25390625 7.12109375 C3.23331916 4.48733847 3.23331916 4.48733847 1.9375 3.3984375 C-0.73788915 3.35528606 -3.38944821 3.35163309 -6.0625 3.3984375 C-7.0525 3.3984375 -8.0425 3.3984375 -9.0625 3.3984375 C-6.66976663 -0.19066255 -3.95575266 0.04495173 0 0 Z " fill="#C7CDC9" transform="translate(310.0625,359.6015625)"/>
<path d="M0 0 C1.13598633 0.00483398 1.13598633 0.00483398 2.29492188 0.00976562 C3.47344727 0.02233398 3.47344727 0.02233398 4.67578125 0.03515625 C5.47306641 0.03966797 6.27035156 0.04417969 7.09179688 0.04882812 C9.05732382 0.06059775 11.0228121 0.07853277 12.98828125 0.09765625 C12.65828125 0.75765625 12.32828125 1.41765625 11.98828125 2.09765625 C11.19164062 2.07445312 10.395 2.05125 9.57421875 2.02734375 C1.59330725 1.85917033 1.59330725 1.85917033 -6.01171875 4.09765625 C-6.34171875 3.10765625 -6.67171875 2.11765625 -7.01171875 1.09765625 C-4.30455633 0.19526878 -2.77395107 -0.02085677 0 0 Z " fill="#F1BD18" transform="translate(234.01171875,180.90234375)"/>
<path d="M0 0 C0 0.66 0 1.32 0 2 C-0.60328125 2.03738281 -1.2065625 2.07476562 -1.828125 2.11328125 C-6.49359002 2.49705337 -9.39215091 2.80844119 -13 6 C-13.99 6 -14.98 6 -16 6 C-16 6.66 -16 7.32 -16 8 C-16.66 8 -17.32 8 -18 8 C-16.79539911 4.25235277 -14.49089391 2.5889638 -11.0859375 0.75 C-7.43863872 -0.56138833 -3.81652532 -0.31155309 0 0 Z " fill="#E6EBE8" transform="translate(71,376)"/>
<path d="M0 0 C0 0.33 0 0.66 0 1 C-1.85625 1.1546875 -1.85625 1.1546875 -3.75 1.3125 C-7.2792866 1.73801682 -9.37160966 2.48112592 -12 5 C-12.53625 4.71125 -13.0725 4.4225 -13.625 4.125 C-16.35280484 2.83288192 -19.12612718 1.91441408 -22 1 C-22 0.67 -22 0.34 -22 0 C-16.375 -0.25 -16.375 -0.25 -13 2 C-12.154375 1.484375 -11.30875 0.96875 -10.4375 0.4375 C-6.41263214 -1.24562656 -4.19785702 -0.92352855 0 0 Z " fill="#E9EDE7" transform="translate(410,375)"/>
<path d="M0 0 C2.17827741 1.01134308 3.97031466 1.97492101 5.8125 3.53125 C8.41494837 5.27860819 10.14562542 5.48326483 13.25 5.6875 C14.14203125 5.75324219 15.0340625 5.81898438 15.953125 5.88671875 C16.62859375 5.92410156 17.3040625 5.96148437 18 6 C16 8 16 8 12.625 8.1875 C5.95023474 7.84225352 5.95023474 7.84225352 2.25 4.5625 C0 2 0 2 0 0 Z " fill="#E8EAE3" transform="translate(303,417)"/>
<path d="M0 0 C0.33 0.99 0.66 1.98 1 3 C1.66 3 2.32 3 3 3 C3 3.66 3 4.32 3 5 C4.65 5 6.3 5 8 5 C7.54625 5.433125 7.0925 5.86625 6.625 6.3125 C4.79975666 8.10798342 4.79975666 8.10798342 3 11 C2.67 10.01 2.34 9.02 2 8 C-1.50294871 6.28432339 -1.50294871 6.28432339 -5 5 C-4.360625 4.731875 -3.72125 4.46375 -3.0625 4.1875 C-0.66868314 3.11332248 -0.66868314 3.11332248 0 0 Z " fill="#0C375C" transform="translate(363,123)"/>
<path d="M0 0 C2.05078125 0.03255208 4.1015625 0.06510417 6.15234375 0.09765625 C6.15234375 0.42765625 6.15234375 0.75765625 6.15234375 1.09765625 C4.17234375 1.42765625 2.19234375 1.75765625 0.15234375 2.09765625 C0.15234375 3.41765625 0.15234375 4.73765625 0.15234375 6.09765625 C1.80234375 6.42765625 3.45234375 6.75765625 5.15234375 7.09765625 C5.15234375 7.42765625 5.15234375 7.75765625 5.15234375 8.09765625 C-1.59765625 7.34765625 -1.59765625 7.34765625 -3.84765625 5.09765625 C-3.1001104 0.16385362 -3.1001104 0.16385362 0 0 Z " fill="#D9E0DD" transform="translate(432.84765625,385.90234375)"/>
<path d="M0 0 C0 0.66 0 1.32 0 2 C-1.11375 1.7525 -1.11375 1.7525 -2.25 1.5 C-5.19006578 0.88074304 -5.19006578 0.88074304 -9 1 C-11.75041666 3.41666771 -11.75041666 3.41666771 -14 6 C-14.66 5.67 -15.32 5.34 -16 5 C-15.525625 4.38125 -15.05125 3.7625 -14.5625 3.125 C-12.97582559 1.09294454 -12.97582559 1.09294454 -12 -1 C-7.65429709 -2.44856764 -4.27334122 -1.42444707 0 0 Z " fill="#F4F6F1" transform="translate(263,406)"/>
<path d="M0 0 C-2.66273687 2.18724815 -4.60054676 3.43342446 -8 4 C-8.64710938 4.11472656 -9.29421875 4.22945313 -9.9609375 4.34765625 C-11.96115478 4.66176979 -13.98182091 4.83724362 -16 5 C-16.66 4.34 -17.32 3.68 -18 3 C-15.02148438 2.70703125 -15.02148438 2.70703125 -12.04296875 2.4140625 C-9.70011858 2.07334609 -9.70011858 2.07334609 -7 0 C-2.44444444 -1.22222222 -2.44444444 -1.22222222 0 0 Z " fill="#3AFDF9" transform="translate(310,262)"/>
<path d="M0 0 C3.04189468 2.94971605 5.96422641 5.98726771 8.8125 9.125 C9.41707031 9.78757812 10.02164063 10.45015625 10.64453125 11.1328125 C12 13 12 13 12 16 C6.69145909 12.46097273 3.26074268 7.393851 0 2 C0 1.34 0 0.68 0 0 Z " fill="#37CFEA" transform="translate(195,247)"/>
<path d="M0 0 C-0.33 0.99 -0.66 1.98 -1 3 C-3.0625 3.6875 -3.0625 3.6875 -5 4 C-5 5.32 -5 6.64 -5 8 C-7.5 10.25 -7.5 10.25 -10 12 C-9.53702457 5.51834396 -7.10579377 0 0 0 Z " fill="#EEDD3D" transform="translate(325,168)"/>
<path d="M0 0 C0.70125 0.7425 1.4025 1.485 2.125 2.25 C4.92478751 5.09191836 4.92478751 5.09191836 8.3125 7.1875 C9.199375 7.785625 10.08625 8.38375 11 9 C11 9.66 11 10.32 11 11 C8.15301606 10.91626518 6.448839 10.40889548 4.33203125 8.48046875 C0 3.59278504 0 3.59278504 0 0 Z " fill="#EAEDE9" transform="translate(414,413)"/>
<path d="M0 0 C0.33 0.66 0.66 1.32 1 2 C0.34 2 -0.32 2 -1 2 C-1.061875 2.61875 -1.12375 3.2375 -1.1875 3.875 C-1.455625 4.57625 -1.72375 5.2775 -2 6 C-3.66072849 6.68132451 -5.327767 7.34742127 -7 8 C-8.34410262 10.01735205 -8.34410262 10.01735205 -9 12 C-9.66 12 -10.32 12 -11 12 C-9.60991124 6.74855359 -6.1957125 4.12699328 -2 1 C-1.34 0.67 -0.68 0.34 0 0 Z " fill="#142331" transform="translate(160,378)"/>
<path d="M0 0 C2.31 0 4.62 0 7 0 C7 0.66 7 1.32 7 2 C5.04072937 3.7143618 3.04119788 5.38405168 1 7 C0 6 0 6 -0.0625 2.9375 C-0.041875 1.968125 -0.02125 0.99875 0 0 Z " fill="#000D25" transform="translate(364,377)"/>
<path d="M0 0 C0.66 0 1.32 0 2 0 C1.67 4.29 1.34 8.58 1 13 C-0.98 13 -2.96 13 -5 13 C-4.01 12.34 -3.02 11.68 -2 11 C-1.19907746 8.35308332 -1.19907746 8.35308332 -0.8125 5.375 C-0.65394531 4.37210937 -0.49539063 3.36921875 -0.33203125 2.3359375 C-0.22246094 1.56507813 -0.11289062 0.79421875 0 0 Z " fill="#F8F9ED" transform="translate(300,363)"/>
<path d="M0 0 C0 0.33 0 0.66 0 1 C-0.65226562 1.06058594 -1.30453125 1.12117187 -1.9765625 1.18359375 C-2.85054688 1.26738281 -3.72453125 1.35117188 -4.625 1.4375 C-5.99205078 1.56705078 -5.99205078 1.56705078 -7.38671875 1.69921875 C-10.15420308 1.97359249 -10.15420308 1.97359249 -13.4375 2.75 C-14.283125 2.8325 -15.12875 2.915 -16 3 C-17.66015625 1.515625 -17.66015625 1.515625 -19 0 C-12.41816638 -0.8931507 -6.57849492 -0.95494281 0 0 Z " fill="#245B84" transform="translate(326,153)"/>
<path d="M0 0 C0.66 0 1.32 0 2 0 C2.33 1.65 2.66 3.3 3 5 C5.64 5.33 8.28 5.66 11 6 C10.67 6.66 10.34 7.32 10 8 C4.375 8.25 4.375 8.25 1 6 C1 5.34 1 4.68 1 4 C0.01 3.67 -0.98 3.34 -2 3 C-1.34 2.01 -0.68 1.02 0 0 Z " fill="#F4F3E6" transform="translate(179,417)"/>
<path d="M0 0 C0.33 0 0.66 0 1 0 C1 1.65 1 3.3 1 5 C-3.29 5 -7.58 5 -12 5 C-11.67 4.34 -11.34 3.68 -11 3 C-8.41682273 2.60534792 -5.85811719 2.49193848 -3.25 2.34375 C-2.5075 2.2303125 -1.765 2.116875 -1 2 C-0.67 1.34 -0.34 0.68 0 0 Z " fill="#D6D9D5" transform="translate(351,287)"/>
<path d="M0 0 C3.56748826 0.57079812 6.25639947 2.20203732 9.31640625 4.01171875 C11.16951801 5.09950825 13.06311839 6.07029683 15 7 C9.22621075 6.5188509 5.04140164 4.81532819 0 2 C0 1.34 0 0.68 0 0 Z " fill="#E93D8D" transform="translate(217,251)"/>
<path d="M0 0 C0.66 0 1.32 0 2 0 C2.28875 1.134375 2.5775 2.26875 2.875 3.4375 C3.24625 4.613125 3.6175 5.78875 4 7 C4.66 7.33 5.32 7.66 6 8 C5.67 8.66 5.34 9.32 5 10 C3.35 9.67 1.7 9.34 0 9 C0 6.03 0 3.06 0 0 Z " fill="#FE5267" transform="translate(208,224)"/>
<path d="M0 0 C1.32 0 2.64 0 4 0 C3 5 2 10 1 15 C0.67 15 0.34 15 0 15 C0 10.05 0 5.1 0 0 Z " fill="#F7C133" transform="translate(263,188)"/>
<path d="M0 0 C0.33 0.99 0.66 1.98 1 3 C-0.40691607 3.72750788 -1.82606022 4.43140353 -3.25 5.125 C-4.03890625 5.51945312 -4.8278125 5.91390625 -5.640625 6.3203125 C-8 7 -8 7 -12 5 C-8.04 3.35 -4.08 1.7 0 0 Z " fill="#3FDEE3" transform="translate(270,265)"/>
<path d="M0 0 C1.65 0.99 3.3 1.98 5 3 C4.34 5.97 3.68 8.94 3 12 C2.34 11.67 1.68 11.34 1 11 C1.33 8.69 1.66 6.38 2 4 C1.01 3.67 0.02 3.34 -1 3 C-0.67 2.01 -0.34 1.02 0 0 Z " fill="#6FFBFB" transform="translate(320,254)"/>
<path d="M0 0 C0.33 0 0.66 0 1 0 C1.22354607 1.89409978 1.42819951 3.7904348 1.625 5.6875 C1.74101562 6.74324219 1.85703125 7.79898437 1.9765625 8.88671875 C2.0010326 12.13716346 1.40852563 14.10230796 0 17 C-0.66 17 -1.32 17 -2 17 C-1.34 11.39 -0.68 5.78 0 0 Z " fill="#BEC7C8" transform="translate(142,394)"/>
<path d="M0 0 C0 0.99 0 1.98 0 3 C-2 5 -2 5 -4.375 5.125 C-5.24125 5.08375 -6.1075 5.0425 -7 5 C-8.32 5 -9.64 5 -11 5 C-11 4.34 -11 3.68 -11 3 C-10.37351562 2.95101563 -9.74703125 2.90203125 -9.1015625 2.8515625 C-8.28429687 2.77679688 -7.46703125 2.70203125 -6.625 2.625 C-5.81289063 2.55539062 -5.00078125 2.48578125 -4.1640625 2.4140625 C-1.79665809 2.17107412 -1.79665809 2.17107412 0 0 Z " fill="#FBF8F3" transform="translate(412,386)"/>
<path d="M0 0 C4.62 0.99 9.24 1.98 14 3 C14 3.33 14 3.66 14 4 C8.0819503 5.32854177 5.22270869 4.66464729 0 2 C0 1.34 0 0.68 0 0 Z " fill="#E8DF46" transform="translate(337,192)"/>
<path d="M0 0 C0 0.66 0 1.32 0 2 C-0.94875 2.45375 -1.8975 2.9075 -2.875 3.375 C-6.00313679 4.80238254 -6.00313679 4.80238254 -8 7 C-8.99 7 -9.98 7 -11 7 C-11 6.34 -11 5.68 -11 5 C-9.54462432 4.16151196 -8.08559627 3.32936066 -6.625 2.5 C-5.81289062 2.0359375 -5.00078125 1.571875 -4.1640625 1.09375 C-2 0 -2 0 0 0 Z " fill="#E4A921" transform="translate(227,183)"/>
<path d="M0 0 C-0.309375 0.5775 -0.61875 1.155 -0.9375 1.75 C-1.93811769 3.86895512 -2.6154404 5.6926424 -3 8 C-2.67 8.66 -2.34 9.32 -2 10 C-3.32 9.34 -4.64 8.68 -6 8 C-5.62403791 5.21788056 -5.32681541 3.4120716 -3.5625 1.1875 C-2 0 -2 0 0 0 Z " fill="#0B1422" transform="translate(255,407)"/>
<path d="M0 0 C0.66 0 1.32 0 2 0 C3.75 2.1875 3.75 2.1875 5 5 C4.1875 7.8125 4.1875 7.8125 3 10 C2.01 10 1.02 10 0 10 C0.33 9.67 0.66 9.34 1 9 C1.14636054 5.63370749 1.07193479 3.21580438 0 0 Z " fill="#D9DFDD" transform="translate(324,376)"/>
<path d="M0 0 C4.62 1.65 9.24 3.3 14 5 C13.67 5.66 13.34 6.32 13 7 C9.88452559 6.32116957 7.14862279 5.25893098 4.25 3.9375 C3.45078125 3.57527344 2.6515625 3.21304687 1.828125 2.83984375 C1.22484375 2.56269531 0.6215625 2.28554688 0 2 C0 1.34 0 0.68 0 0 Z " fill="#231738" transform="translate(219,254)"/>
<path d="M0 0 C8.03501094 -0.78774617 8.03501094 -0.78774617 12.0625 2.5 C12.701875 3.325 13.34125 4.15 14 5 C13.67 5.66 13.34 6.32 13 7 C12.154375 6.195625 11.30875 5.39125 10.4375 4.5625 C7.1484842 1.78371338 4.31370396 1.25882224 0 1 C0 0.67 0 0.34 0 0 Z " fill="#D8E5E3" transform="translate(219,387)"/>
<path d="M0 0 C0.66 0 1.32 0 2 0 C0.58192622 4.47238653 -1.11304374 8.71146306 -3 13 C-4.09658936 9.71023192 -3.79953138 8.28696233 -3 5 C-2.34 5 -1.68 5 -1 5 C-0.67 3.35 -0.34 1.7 0 0 Z " fill="#0C2633" transform="translate(312,177)"/>
<path d="M0 0 C1.32 0.33 2.64 0.66 4 1 C3.01 1 2.02 1 1 1 C0.87625 1.5775 0.7525 2.155 0.625 2.75 C-0.00648824 5.02335767 -0.88858191 6.9253529 -2 9 C-2.99 8.01 -3.98 7.02 -5 6 C-4.34 6 -3.68 6 -3 6 C-3 5.01 -3 4.02 -3 3 C-2.01 3 -1.02 3 0 3 C0 2.01 0 1.02 0 0 Z " fill="#E3FAF8" transform="translate(329,258)"/>
<path d="M0 0 C3.94139078 1.66751148 6.7892812 4.22710649 10 7 C9.34 7.66 8.68 8.32 8 9 C6.66368764 7.6905332 5.33102075 6.37734515 4 5.0625 C3.2575 4.33160156 2.515 3.60070312 1.75 2.84765625 C0 1 0 1 0 0 Z " fill="#EAEEED" transform="translate(308,138)"/>
<path d="M0 0 C0.99 0.33 1.98 0.66 3 1 C2.01 1.66 1.02 2.32 0 3 C-1.01187895 4.65948148 -2.0126546 6.32580562 -3 8 C-3.99 8.495 -3.99 8.495 -5 9 C-4.5206753 4.68607774 -3.2542015 2.83430453 0 0 Z " fill="#0E2132" transform="translate(102,381)"/>
<path d="M0 0 C0.70511719 0.16371094 1.41023438 0.32742188 2.13671875 0.49609375 C5.09658688 1.01699824 7.81061273 1.09866732 10.8125 1.0625 C11.78832031 1.05347656 12.76414062 1.04445313 13.76953125 1.03515625 C14.50558594 1.02355469 15.24164063 1.01195312 16 1 C15.67 1.66 15.34 2.32 15 3 C11.35242308 3.85612549 7.74121237 4.15815621 4 4 C1.3125 2.0625 1.3125 2.0625 0 0 Z " fill="#36D2D9" transform="translate(285,262)"/>
<path d="M0 0 C0.99 0.33 1.98 0.66 3 1 C1.35 2.65 -0.3 4.3 -2 6 C-2.66 5.67 -3.32 5.34 -4 5 C-4 4.34 -4 3.68 -4 3 C-3.34 3 -2.68 3 -2 3 C-2 2.34 -2 1.68 -2 1 C-1.34 0.67 -0.68 0.34 0 0 Z " fill="#EA6F4E" transform="translate(270,245)"/>
<path d="M0 0 C-1.49097658 3.7952131 -3.75700849 5.61042731 -7 8 C-7.66 7.67 -8.32 7.34 -9 7 C-7.88121617 5.82737096 -6.75476949 4.66204862 -5.625 3.5 C-4.68527344 2.52546875 -4.68527344 2.52546875 -3.7265625 1.53125 C-2 0 -2 0 0 0 Z " fill="#19394D" transform="translate(172,141)"/>
<path d="M0 0 C0 0.66 0 1.32 0 2 C-5.28 1.67 -10.56 1.34 -16 1 C-16 0.67 -16 0.34 -16 0 C-13.7089095 -0.19441368 -11.41709663 -0.38033135 -9.125 -0.5625 C-7.21074219 -0.71912109 -7.21074219 -0.71912109 -5.2578125 -0.87890625 C-2 -1 -2 -1 0 0 Z " fill="#FAFCF8" transform="translate(233,394)"/>
<path d="M0 0 C0.66 0.33 1.32 0.66 2 1 C0.6875 3.9375 0.6875 3.9375 -1 7 C-1.99 7.33 -2.98 7.66 -4 8 C-3.40072174 4.64404172 -2.15377564 2.62198774 0 0 Z " fill="#ECECEB" transform="translate(288,374)"/>
<path d="M0 0 C0.66 0.33 1.32 0.66 2 1 C-0.31 3.97 -2.62 6.94 -5 10 C-5.33 9.01 -5.66 8.02 -6 7 C-4.78515625 5.17578125 -4.78515625 5.17578125 -3.0625 3.3125 C-2.49660156 2.68988281 -1.93070312 2.06726563 -1.34765625 1.42578125 C-0.90292969 0.95527344 -0.45820313 0.48476563 0 0 Z " fill="#67E6E9" transform="translate(318,268)"/>
<path d="M0 0 C0 1.65 0 3.3 0 5 C-0.639375 5.12375 -1.27875 5.2475 -1.9375 5.375 C-2.9584375 5.684375 -2.9584375 5.684375 -4 6 C-4.33 6.66 -4.66 7.32 -5 8 C-3.91891892 0 -3.91891892 0 0 0 Z " fill="#31CAF0" transform="translate(358,128)"/>
<path d="M0 0 C0.33 0 0.66 0 1 0 C0.25 6.625 0.25 6.625 -2 10 C-2.99 9.67 -3.98 9.34 -5 9 C-4.360625 8.071875 -3.72125 7.14375 -3.0625 6.1875 C-0.91377907 3.15780057 -0.91377907 3.15780057 0 0 Z " fill="#DEE4E5" transform="translate(291,408)"/>
<path d="M0 0 C4.29 0 8.58 0 13 0 C13.33 0.99 13.66 1.98 14 3 C9.38 2.34 4.76 1.68 0 1 C0 0.67 0 0.34 0 0 Z " fill="#BAC7CC" transform="translate(219,375)"/>
<path d="M0 0 C0.99 0 1.98 0 3 0 C7 5.14285714 7 5.14285714 7 9 C5.83037314 7.69013727 4.66437056 6.3770374 3.5 5.0625 C2.8503125 4.33160156 2.200625 3.60070312 1.53125 2.84765625 C0 1 0 1 0 0 Z " fill="#DE4596" transform="translate(209,243)"/>
<path d="M0 0 C0.66 0.99 1.32 1.98 2 3 C-0.625 7.875 -0.625 7.875 -4 9 C-2.80100302 5.9168649 -1.52299523 2.93720508 0 0 Z " fill="#083D62" transform="translate(196,192)"/>
<path d="M0 0 C3.7952131 1.49097658 5.61042731 3.75700849 8 7 C7.67 7.66 7.34 8.32 7 9 C6.401875 8.21625 5.80375 7.4325 5.1875 6.625 C3.08914751 3.85425677 3.08914751 3.85425677 0 2 C0 1.34 0 0.68 0 0 Z " fill="#F3F3EF" transform="translate(445,396)"/>
<path d="M0 0 C5.625 -0.25 5.625 -0.25 9 2 C9.66 2 10.32 2 11 2 C10.67 2.99 10.34 3.98 10 5 C9.46375 4.71125 8.9275 4.4225 8.375 4.125 C5.64719516 2.83288192 2.87387282 1.91441408 0 1 C0 0.67 0 0.34 0 0 Z " fill="#F7F7F1" transform="translate(388,375)"/>
<path d="M0 0 C0.66 0.33 1.32 0.66 2 1 C1.34 2.32 0.68 3.64 0 5 C-0.66 5 -1.32 5 -2 5 C-2.33 5.99 -2.66 6.98 -3 8 C-3.36923077 3.44615385 -3.36923077 3.44615385 -1.5 1.1875 C-1.005 0.795625 -0.51 0.40375 0 0 Z " fill="#D7E2D7" transform="translate(265,376)"/>
<path d="M0 0 C0.99 0.33 1.98 0.66 3 1 C1.625 3.5 1.625 3.5 0 6 C-0.66 6 -1.32 6 -2 6 C-1.125 1.125 -1.125 1.125 0 0 Z " fill="#F5F5F6" transform="translate(377,208)"/>
<path d="M0 0 C1 3 1 3 -0.4375 6.1875 C-1.2109375 7.5796875 -1.2109375 7.5796875 -2 9 C-2.66 9 -3.32 9 -4 9 C-2.94124926 5.59687262 -1.99097846 2.98646769 0 0 Z " fill="#DDCA46" transform="translate(314,178)"/>
<path d="M0 0 C0.33 0 0.66 0 1 0 C1.06058594 0.61488281 1.12117188 1.22976562 1.18359375 1.86328125 C1.26738281 2.67152344 1.35117187 3.47976562 1.4375 4.3125 C1.51871094 5.11300781 1.59992188 5.91351563 1.68359375 6.73828125 C1.95265693 9.16087179 1.95265693 9.16087179 3 12 C2.01 12.33 1.02 12.66 0 13 C0 8.71 0 4.42 0 0 Z " fill="#F8FAF5" transform="translate(366,115)"/>
<path d="M0 0 C0.99 0 1.98 0 3 0 C1.70700306 2.88437779 0.34058637 4.87219421 -2 7 C-2.66 6.67 -3.32 6.34 -4 6 C-3.525625 5.38125 -3.05125 4.7625 -2.5625 4.125 C-0.97582559 2.09294454 -0.97582559 2.09294454 0 0 Z " fill="#F1F3F5" transform="translate(139,411)"/>
<path d="M0 0 C0.99 0.33 1.98 0.66 3 1 C0.37801226 3.15377564 -1.64404172 4.40072174 -5 5 C-3.35 3.35 -1.7 1.7 0 0 Z " fill="#081320" transform="translate(401,377)"/>
<path d="M0 0 C-0.33 0.99 -0.66 1.98 -1 3 C-1.66 2.67 -2.32 2.34 -3 2 C-4.53668865 1.77532169 -6.07968054 1.59203195 -7.625 1.4375 C-8.44226563 1.35371094 -9.25953125 1.26992188 -10.1015625 1.18359375 C-10.72804688 1.12300781 -11.35453125 1.06242187 -12 1 C-12 0.67 -12 0.34 -12 0 C-3.42857143 -1.28571429 -3.42857143 -1.28571429 0 0 Z " fill="#B7BCBC" transform="translate(376,376)"/>
<path d="M0 0 C3.66881155 0.70554068 6.70450534 2.27735506 10 4 C5.82412255 5.39195915 3.86525224 3.82323219 0 2 C0 1.34 0 0.68 0 0 Z " fill="#ADE4E8" transform="translate(321,253)"/>
<path d="M0 0 C0.99 0.33 1.98 0.66 3 1 C1.35 2.65 -0.3 4.3 -2 6 C-2.66 5.34 -3.32 4.68 -4 4 C-2.68 2.68 -1.36 1.36 0 0 Z " fill="#27B8F4" transform="translate(210,174)"/>
</svg>
