<svg fill="none" height="32" viewBox="0 0 32 32" width="32" xmlns="http://www.w3.org/2000/svg"><path d="m5.99987 6.00001c4.66473-2.33238 8.50003.5 10.00003 2.5 1.5-2.00001 5.3352-4.83238 10-2.5 6 2.99998 4.4999 10.49999-.0001 14.99999-2.1957 2.1958-6.0627 6.0628-8.8911 8.2137-.6535.4969-1.5473.4747-2.1861-.0409-2.5927-2.0928-6.75769-6.0078-8.92273-8.1728-4.50001-4.5-5.99999684-12.00001 0-14.99999z" fill="#f8312f"/><path d="m15.9998 8.49998v3.04922c1.2697-2.68419 4.4254-6.26869 9.658-5.71174-4.5096-2.03123-8.1948.71162-9.658 2.66252z" fill="#ca0b4a"/><path d="m11.9456 5.53691c-1.6842-.58686-3.72061-.64946-5.94573.4631-5.99999684 2.99998-4.50001 10.49999 0 14.99999 2.16504 2.165 6.33003 6.08 8.92273 8.1728.6388.5156 1.5326.5378 2.1861.0409.2542-.1933.5168-.4005.7858-.6191-2.8547-2.1422-6.861-5.5184-9.03552-7.4621-4.9568-4.4305-6.60905-11.81462 0-14.76825 1.07381-.4799 2.10772-.73771 3.08662-.82734z" fill="#ca0b4a"/><ellipse cx="23.4771" cy="12.5937" fill="#f37366" rx="2.83554" ry="4.78125" transform="matrix(.8660254 .5 -.5 .8660254 9.442185 -10.051314)"/></svg>