<svg fill="none" height="32" viewBox="0 0 32 32" width="32" xmlns="http://www.w3.org/2000/svg" xmlns:xlink="http://www.w3.org/1999/xlink"><filter id="a" color-interpolation-filters="sRGB" filterUnits="userSpaceOnUse" height="10.4344" width="14.8887" x="3.61035" y="2.3625"><feFlood flood-opacity="0" result="BackgroundImageFix"/><feBlend in="SourceGraphic" in2="BackgroundImageFix" mode="normal" result="shape"/><feColorMatrix in="SourceAlpha" result="hardAlpha" type="matrix" values="0 0 0 0 0 0 0 0 0 0 0 0 0 0 0 0 0 0 127 0"/><feOffset dx="-.2" dy="-.2"/><feGaussianBlur stdDeviation=".2"/><feComposite in2="hardAlpha" k2="-1" k3="1" operator="arithmetic"/><feColorMatrix type="matrix" values="0 0 0 0 0.317647 0 0 0 0 0.458824 0 0 0 0 0.886275 0 0 0 1 0"/><feBlend in2="shape" mode="normal" result="effect1_innerShadow_18_1526"/><feColorMatrix in="SourceAlpha" result="hardAlpha" type="matrix" values="0 0 0 0 0 0 0 0 0 0 0 0 0 0 0 0 0 0 127 0"/><feOffset dx=".2" dy=".2"/><feGaussianBlur stdDeviation=".2"/><feComposite in2="hardAlpha" k2="-1" k3="1" operator="arithmetic"/><feColorMatrix type="matrix" values="0 0 0 0 0.317647 0 0 0 0 0.458824 0 0 0 0 0.886275 0 0 0 1 0"/><feBlend in2="effect1_innerShadow_18_1526" mode="normal" result="effect2_innerShadow_18_1526"/><feColorMatrix in="SourceAlpha" result="hardAlpha" type="matrix" values="0 0 0 0 0 0 0 0 0 0 0 0 0 0 0 0 0 0 127 0"/><feOffset dx="-.25" dy=".25"/><feGaussianBlur stdDeviation=".25"/><feComposite in2="hardAlpha" k2="-1" k3="1" operator="arithmetic"/><feColorMatrix type="matrix" values="0 0 0 0 0.372549 0 0 0 0 0.607843 0 0 0 0 0.960784 0 0 0 1 0"/><feBlend in2="effect2_innerShadow_18_1526" mode="normal" result="effect3_innerShadow_18_1526"/></filter><filter id="b" color-interpolation-filters="sRGB" filterUnits="userSpaceOnUse" height="10.4344" width="14.8887" x="13.2979" y="2.3625"><feFlood flood-opacity="0" result="BackgroundImageFix"/><feBlend in="SourceGraphic" in2="BackgroundImageFix" mode="normal" result="shape"/><feColorMatrix in="SourceAlpha" result="hardAlpha" type="matrix" values="0 0 0 0 0 0 0 0 0 0 0 0 0 0 0 0 0 0 127 0"/><feOffset dx="-.2" dy="-.2"/><feGaussianBlur stdDeviation=".2"/><feComposite in2="hardAlpha" k2="-1" k3="1" operator="arithmetic"/><feColorMatrix type="matrix" values="0 0 0 0 0.317647 0 0 0 0 0.458824 0 0 0 0 0.886275 0 0 0 1 0"/><feBlend in2="shape" mode="normal" result="effect1_innerShadow_18_1526"/><feColorMatrix in="SourceAlpha" result="hardAlpha" type="matrix" values="0 0 0 0 0 0 0 0 0 0 0 0 0 0 0 0 0 0 127 0"/><feOffset dx=".2" dy=".2"/><feGaussianBlur stdDeviation=".2"/><feComposite in2="hardAlpha" k2="-1" k3="1" operator="arithmetic"/><feColorMatrix type="matrix" values="0 0 0 0 0.317647 0 0 0 0 0.458824 0 0 0 0 0.886275 0 0 0 1 0"/><feBlend in2="effect1_innerShadow_18_1526" mode="normal" result="effect2_innerShadow_18_1526"/><feColorMatrix in="SourceAlpha" result="hardAlpha" type="matrix" values="0 0 0 0 0 0 0 0 0 0 0 0 0 0 0 0 0 0 127 0"/><feOffset dx="-.25" dy=".25"/><feGaussianBlur stdDeviation=".25"/><feComposite in2="hardAlpha" k2="-1" k3="1" operator="arithmetic"/><feColorMatrix type="matrix" values="0 0 0 0 0.372549 0 0 0 0 0.607843 0 0 0 0 0.960784 0 0 0 1 0"/><feBlend in2="effect2_innerShadow_18_1526" mode="normal" result="effect3_innerShadow_18_1526"/></filter><filter id="c" color-interpolation-filters="sRGB" filterUnits="userSpaceOnUse" height="9" width="3.64063" x="13.7791" y="15.8"><feFlood flood-opacity="0" result="BackgroundImageFix"/><feBlend in="SourceGraphic" in2="BackgroundImageFix" mode="normal" result="shape"/><feColorMatrix in="SourceAlpha" result="hardAlpha" type="matrix" values="0 0 0 0 0 0 0 0 0 0 0 0 0 0 0 0 0 0 127 0"/><feOffset dx="-.3" dy=".3"/><feGaussianBlur stdDeviation=".3"/><feComposite in2="hardAlpha" k2="-1" k3="1" operator="arithmetic"/><feColorMatrix type="matrix" values="0 0 0 0 0.392157 0 0 0 0 0.164706 0 0 0 0 0.254902 0 0 0 1 0"/><feBlend in2="shape" mode="normal" result="effect1_innerShadow_18_1526"/><feColorMatrix in="SourceAlpha" result="hardAlpha" type="matrix" values="0 0 0 0 0 0 0 0 0 0 0 0 0 0 0 0 0 0 127 0"/><feOffset dx=".2" dy="-.2"/><feGaussianBlur stdDeviation=".2"/><feComposite in2="hardAlpha" k2="-1" k3="1" operator="arithmetic"/><feColorMatrix type="matrix" values="0 0 0 0 0.501961 0 0 0 0 0.333333 0 0 0 0 0.360784 0 0 0 1 0"/><feBlend in2="effect1_innerShadow_18_1526" mode="normal" result="effect2_innerShadow_18_1526"/></filter><linearGradient id="d"><stop offset="0" stop-color="#3669d9"/><stop offset="1" stop-color="#3669d9" stop-opacity="0"/></linearGradient><radialGradient id="e" cx="0" cy="0" gradientTransform="matrix(-2.52884759 -3.84672929 14.36599037 -9.44423104 13.103 11.8416)" gradientUnits="userSpaceOnUse" r="1" xlink:href="#d"/><linearGradient id="f"><stop offset="0" stop-color="#3d89ec"/><stop offset="1" stop-color="#3d89ec" stop-opacity="0"/></linearGradient><linearGradient id="g" gradientUnits="userSpaceOnUse" x1="6.58184" x2="8.37699" xlink:href="#f" y1="2.02319" y2="6.49275"/><radialGradient id="h" cx="0" cy="0" gradientTransform="matrix(1.64860649 -2.56450157 5.62523971 3.61622188 18.7439 11.8416)" gradientUnits="userSpaceOnUse" r="1" xlink:href="#d"/><linearGradient id="i" gradientUnits="userSpaceOnUse" x1="25.2651" x2="23.4699" xlink:href="#f" y1="2.02319" y2="6.49275"/><linearGradient id="j" gradientUnits="userSpaceOnUse" x1="15.7486" x2="16.0863" y1="7.06334" y2="7.24966"><stop offset="0" stop-color="#1a6dd8"/><stop offset="1" stop-color="#1a6dd8" stop-opacity="0"/></linearGradient><linearGradient id="k" gradientUnits="userSpaceOnUse" x1="21.4177" x2="14.4132" y1="16.5702" y2="23.4337"><stop offset="0" stop-color="#f4c654"/><stop offset="1" stop-color="#dc9729"/></linearGradient><linearGradient id="l" gradientUnits="userSpaceOnUse" x1="12.5359" x2="14.802" y1="30.6677" y2="17.5275"><stop offset="0" stop-color="#fa8547"/><stop offset="1" stop-color="#fa8547" stop-opacity="0"/></linearGradient><linearGradient id="m" gradientUnits="userSpaceOnUse" x1="23.9633" x2="16.047" y1="18.6135" y2="18.6135"><stop offset="0" stop-color="#f9a842"/><stop offset="1" stop-color="#faa742"/></linearGradient><linearGradient id="n" gradientUnits="userSpaceOnUse" x1="12.5407" x2="23.8552" y1="19.1699" y2="19.1699"><stop offset="0" stop-color="#faa945"/><stop offset="1" stop-color="#ec9936"/></linearGradient><radialGradient id="o" cx="0" cy="0" gradientTransform="matrix(-10.5257 0 0 -8.96905 18.9879 20.1317)" gradientUnits="userSpaceOnUse" r="1"><stop offset=".893104" stop-color="#f7b44d" stop-opacity="0"/><stop offset="1" stop-color="#f7b44d"/></radialGradient><radialGradient id="p" cx="0" cy="0" gradientTransform="matrix(10.128 0 0 8.88135 14.0778 20.1317)" gradientUnits="userSpaceOnUse" r="1"><stop offset=".878757" stop-color="#d2801f" stop-opacity="0"/><stop offset=".98268" stop-color="#d2801f"/></radialGradient><linearGradient id="q" gradientUnits="userSpaceOnUse" x1="16.4229" x2="16.4229" y1="24.5" y2="23.6835"><stop offset="0" stop-color="#693b2e"/><stop offset="1" stop-color="#693b2e" stop-opacity="0"/></linearGradient><g filter="url(#a)"><path d="m14.0346 3.55204 4.2645 7.28416-6.0157 1.7107c-4.15512-1.3749-6.60265-4.01786-8.07808-6.7344-.62225-1.14569-.61719-3.25 1.85576-3.25h6.24762c.7102 0 1.3671.37664 1.7259.98954z" fill="#4686ec"/><path d="m14.0346 3.55204 4.2645 7.28416-6.0157 1.7107c-4.15512-1.3749-6.60265-4.01786-8.07808-6.7344-.62225-1.14569-.61719-3.25 1.85576-3.25h6.24762c.7102 0 1.3671.37664 1.7259.98954z" fill="url(#e)"/><path d="m14.0346 3.55204 4.2645 7.28416-6.0157 1.7107c-4.15512-1.3749-6.60265-4.01786-8.07808-6.7344-.62225-1.14569-.61719-3.25 1.85576-3.25h6.24762c.7102 0 1.3671.37664 1.7259.98954z" fill="url(#g)"/></g><g filter="url(#b)"><path d="m17.8123 3.55204-4.2644 7.28416 6.0156 1.7107c4.1551-1.3749 6.6027-4.01786 8.0781-6.7344.6223-1.14569.6172-3.25-1.8558-3.25h-6.2475c-.7103 0-1.3672.37664-1.726.98954z" fill="#4686ec"/><path d="m17.8123 3.55204-4.2644 7.28416 6.0156 1.7107c4.1551-1.3749 6.6027-4.01786 8.0781-6.7344.6223-1.14569.6172-3.25-1.8558-3.25h-6.2475c-.7103 0-1.3672.37664-1.726.98954z" fill="url(#h)"/><path d="m17.8123 3.55204-4.2644 7.28416 6.0156 1.7107c4.1551-1.3749 6.6027-4.01786 8.0781-6.7344.6223-1.14569.6172-3.25-1.8558-3.25h-6.2475c-.7103 0-1.3672.37664-1.726.98954z" fill="url(#i)"/></g><path d="m17.8123 3.55204-4.2644 7.28416 6.0156 1.7107c4.1551-1.3749 6.6027-4.01786 8.0781-6.7344.6223-1.14569.6172-3.25-1.8558-3.25h-6.2475c-.7103 0-1.3672.37664-1.726.98954z" fill="url(#j)"/><circle cx="16.047" cy="20.1318" fill="url(#k)" r="10.0477"/><circle cx="16.047" cy="20.1318" fill="url(#l)" r="10.0477"/><circle cx="16.047" cy="20.1317" fill="url(#m)" r="8.68832"/><circle cx="16.047" cy="20.1317" fill="url(#n)" r="7.58486"/><circle cx="16.047" cy="20.1317" fill="url(#o)" r="7.58486"/><circle cx="16.047" cy="20.1317" fill="url(#p)" r="7.58486"/><g filter="url(#c)"><path d="m17.2197 16.8c0-.4418-.3581-.8-.8-.8h-1.9406c-.2209 0-.4.1791-.4.4v1.1766c0 .2209.1791.4.4.4h.4438c.138 0 .25.1119.25.25v5.7734c0 .2761.2238.5.5.5h1.0468c.2762 0 .5-.2239.5-.5z" fill="#6f3955"/></g><path d="m17.2197 16.8c0-.4418-.3581-.8-.8-.8h-1.9406c-.2209 0-.4.1791-.4.4v1.1766c0 .2209.1791.4.4.4h.4438c.138 0 .25.1119.25.25v5.7734c0 .2761.2238.5.5.5h1.0468c.2762 0 .5-.2239.5-.5z" fill="url(#q)"/></svg>