<svg fill="none" height="32" viewBox="0 0 32 32" width="32" xmlns="http://www.w3.org/2000/svg" xmlns:xlink="http://www.w3.org/1999/xlink"><filter id="a" color-interpolation-filters="sRGB" filterUnits="userSpaceOnUse" height="13.5344" width="7.94275" x="7.62341" y="16.1248"><feFlood flood-opacity="0" result="BackgroundImageFix"/><feBlend in="SourceGraphic" in2="BackgroundImageFix" mode="normal" result="shape"/><feGaussianBlur result="effect1_foregroundBlur_18_6002" stdDeviation=".25"/></filter><filter id="b" color-interpolation-filters="sRGB" filterUnits="userSpaceOnUse" height="6.36401" width="6.36365" x="18.1233" y="16"><feFlood flood-opacity="0" result="BackgroundImageFix"/><feBlend in="SourceGraphic" in2="BackgroundImageFix" mode="normal" result="shape"/><feColorMatrix in="SourceAlpha" result="hardAlpha" type="matrix" values="0 0 0 0 0 0 0 0 0 0 0 0 0 0 0 0 0 0 127 0"/><feOffset dx="-.5" dy=".5"/><feGaussianBlur stdDeviation=".25"/><feComposite in2="hardAlpha" k2="-1" k3="1" operator="arithmetic"/><feColorMatrix type="matrix" values="0 0 0 0 0.0470588 0 0 0 0 0.47451 0 0 0 0 0.792157 0 0 0 1 0"/><feBlend in2="shape" mode="normal" result="effect1_innerShadow_18_6002"/></filter><filter id="c" color-interpolation-filters="sRGB" filterUnits="userSpaceOnUse" height="11.8823" width="8.19329" x="8.31355" y="16.0156"><feFlood flood-opacity="0" result="BackgroundImageFix"/><feBlend in="SourceGraphic" in2="BackgroundImageFix" mode="normal" result="shape"/><feColorMatrix in="SourceAlpha" result="hardAlpha" type="matrix" values="0 0 0 0 0 0 0 0 0 0 0 0 0 0 0 0 0 0 127 0"/><feOffset dx=".25"/><feGaussianBlur stdDeviation=".25"/><feComposite in2="hardAlpha" k2="-1" k3="1" operator="arithmetic"/><feColorMatrix type="matrix" values="0 0 0 0 0.254902 0 0 0 0 0.188235 0 0 0 0 0.141176 0 0 0 1 0"/><feBlend in2="shape" mode="normal" result="effect1_innerShadow_18_6002"/><feColorMatrix in="SourceAlpha" result="hardAlpha" type="matrix" values="0 0 0 0 0 0 0 0 0 0 0 0 0 0 0 0 0 0 127 0"/><feOffset dx="-.2"/><feGaussianBlur stdDeviation=".15"/><feComposite in2="hardAlpha" k2="-1" k3="1" operator="arithmetic"/><feColorMatrix type="matrix" values="0 0 0 0 0.694118 0 0 0 0 0.470588 0 0 0 0 0.407843 0 0 0 1 0"/><feBlend in2="effect1_innerShadow_18_6002" mode="normal" result="effect2_innerShadow_18_6002"/></filter><filter id="d" color-interpolation-filters="sRGB" filterUnits="userSpaceOnUse" height="1.41487" width="1.41487" x="13.6099" y="21.008"><feFlood flood-opacity="0" result="BackgroundImageFix"/><feBlend in="SourceGraphic" in2="BackgroundImageFix" mode="normal" result="shape"/><feGaussianBlur result="effect1_foregroundBlur_18_6002" stdDeviation=".075"/></filter><filter id="e" color-interpolation-filters="sRGB" filterUnits="userSpaceOnUse" height="1.12634" width="1.32634" x="13.7988" y="21.0625"><feFlood flood-opacity="0" result="BackgroundImageFix"/><feBlend in="SourceGraphic" in2="BackgroundImageFix" mode="normal" result="shape"/><feColorMatrix in="SourceAlpha" result="hardAlpha" type="matrix" values="0 0 0 0 0 0 0 0 0 0 0 0 0 0 0 0 0 0 127 0"/><feOffset dx="-.1"/><feGaussianBlur stdDeviation=".1"/><feComposite in2="hardAlpha" k2="-1" k3="1" operator="arithmetic"/><feColorMatrix type="matrix" values="0 0 0 0 0.694118 0 0 0 0 0.482353 0 0 0 0 0.419608 0 0 0 1 0"/><feBlend in2="shape" mode="normal" result="effect1_innerShadow_18_6002"/><feColorMatrix in="SourceAlpha" result="hardAlpha" type="matrix" values="0 0 0 0 0 0 0 0 0 0 0 0 0 0 0 0 0 0 127 0"/><feOffset dx=".1"/><feGaussianBlur stdDeviation=".1"/><feComposite in2="hardAlpha" k2="-1" k3="1" operator="arithmetic"/><feColorMatrix type="matrix" values="0 0 0 0 0.290196 0 0 0 0 0.184314 0 0 0 0 0.164706 0 0 0 1 0"/><feBlend in2="effect1_innerShadow_18_6002" mode="normal" result="effect2_innerShadow_18_6002"/></filter><filter id="f" color-interpolation-filters="sRGB" filterUnits="userSpaceOnUse" height="2.13208" width="9.6416" x="6.8584" y="26.7782"><feFlood flood-opacity="0" result="BackgroundImageFix"/><feBlend in="SourceGraphic" in2="BackgroundImageFix" mode="normal" result="shape"/><feGaussianBlur result="effect1_foregroundBlur_18_6002" stdDeviation=".25"/></filter><filter id="g" color-interpolation-filters="sRGB" filterUnits="userSpaceOnUse" height="2.02209" width="28.4375" x="2.14832" y="27.9095"><feFlood flood-opacity="0" result="BackgroundImageFix"/><feBlend in="SourceGraphic" in2="BackgroundImageFix" mode="normal" result="shape"/><feColorMatrix in="SourceAlpha" result="hardAlpha" type="matrix" values="0 0 0 0 0 0 0 0 0 0 0 0 0 0 0 0 0 0 127 0"/><feOffset dx=".5"/><feGaussianBlur stdDeviation=".5"/><feComposite in2="hardAlpha" k2="-1" k3="1" operator="arithmetic"/><feColorMatrix type="matrix" values="0 0 0 0 0.25098 0 0 0 0 0.545098 0 0 0 0 0.352941 0 0 0 1 0"/><feBlend in2="shape" mode="normal" result="effect1_innerShadow_18_6002"/></filter><filter id="h" color-interpolation-filters="sRGB" filterUnits="userSpaceOnUse" height="14.0802" width="14.2762" x="15.5885" y="3.14658"><feFlood flood-opacity="0" result="BackgroundImageFix"/><feBlend in="SourceGraphic" in2="BackgroundImageFix" mode="normal" result="shape"/><feGaussianBlur result="effect1_foregroundBlur_18_6002" stdDeviation=".3"/></filter><filter id="i" color-interpolation-filters="sRGB" filterUnits="userSpaceOnUse" height="14.0802" width="14.2762" x="2.81235" y="3.14658"><feFlood flood-opacity="0" result="BackgroundImageFix"/><feBlend in="SourceGraphic" in2="BackgroundImageFix" mode="normal" result="shape"/><feGaussianBlur result="effect1_foregroundBlur_18_6002" stdDeviation=".3"/></filter><radialGradient id="j" cx="0" cy="0" gradientTransform="matrix(0 4.73002 -2.5818 0 9.59305 4.67442)" gradientUnits="userSpaceOnUse" r="1"><stop offset="0" stop-color="#f1b379"/><stop offset="1" stop-color="#cd915f"/></radialGradient><linearGradient id="k" gradientUnits="userSpaceOnUse" x1="5.81228" x2="7.50578" y1="8.19254" y2="8.19254"><stop offset="0" stop-color="#8e694b"/><stop offset="1" stop-color="#8e694b" stop-opacity="0"/></linearGradient><linearGradient id="l" gradientUnits="userSpaceOnUse" x1="9.62498" x2="8.36723" y1="10.5625" y2="7.88223"><stop offset="0" stop-color="#9f6a42"/><stop offset="1" stop-color="#9f6a42" stop-opacity="0"/></linearGradient><linearGradient id="m" gradientUnits="userSpaceOnUse" x1="8.11626" x2="8.11626" y1="4.02028" y2="4.19381"><stop offset="0" stop-color="#d5ad80"/><stop offset="1" stop-color="#d5ad80" stop-opacity="0"/></linearGradient><radialGradient id="n" cx="0" cy="0" gradientTransform="matrix(-2.80503 0 0 -.548434 10.6154 4.26905)" gradientUnits="userSpaceOnUse" r="1"><stop offset="0" stop-color="#ffcb8c"/><stop offset="1" stop-color="#ffcb8c" stop-opacity="0"/></radialGradient><linearGradient id="o" gradientUnits="userSpaceOnUse" x1="5.47765" x2="27.0212" y1="20.7771" y2="20.7771"><stop offset="0" stop-color="#d7905f"/><stop offset="1" stop-color="#e8bc97"/></linearGradient><linearGradient id="p" gradientUnits="userSpaceOnUse" x1="6.08331" x2="13.7907" y1="29.7215" y2="17.8555"><stop offset="0" stop-color="#ba8951"/><stop offset="1" stop-color="#ba8951" stop-opacity="0"/></linearGradient><radialGradient id="q" cx="0" cy="0" gradientTransform="matrix(-1.84918131 -3.36309213 4.22092839 -2.32085877 20.5636 28.3793)" gradientUnits="userSpaceOnUse" r="1"><stop offset="0" stop-color="#beab75"/><stop offset="1" stop-color="#beab75" stop-opacity="0"/></radialGradient><linearGradient id="r" gradientUnits="userSpaceOnUse" x1="27.6563" x2="26.9168" y1="24.0765" y2="24.0765"><stop offset="0" stop-color="#ffe6b1"/><stop offset="1" stop-color="#ffe6b1" stop-opacity="0"/></linearGradient><radialGradient id="s" cx="0" cy="0" gradientTransform="matrix(0 4.71709 -1.06597 0 27.9282 14.916)" gradientUnits="userSpaceOnUse" r="1"><stop offset=".35" stop-color="#9e413e"/><stop offset="1" stop-color="#9e413e" stop-opacity="0"/></radialGradient><linearGradient id="t" gradientUnits="userSpaceOnUse" x1="20.2259" x2="19.0774" y1="9.00546" y2="10.1796"><stop offset="0" stop-color="#b55852"/><stop offset="1" stop-color="#b55852" stop-opacity="0"/></linearGradient><linearGradient id="u" gradientUnits="userSpaceOnUse" x1="4.49865" x2="5.28452" y1="26.3849" y2="26.3849"><stop offset="0" stop-color="#845f3d"/><stop offset="1" stop-color="#845f3d" stop-opacity="0"/></linearGradient><linearGradient id="v" gradientUnits="userSpaceOnUse" x1="11.5948" x2="11.5948" y1="16.6248" y2="29.1592"><stop offset="0" stop-color="#805139"/><stop offset="1" stop-color="#6d4d2f"/></linearGradient><linearGradient id="w" gradientUnits="userSpaceOnUse" x1="18.6233" x2="24.9507" y1="22.3078" y2="16"><stop offset="0" stop-color="#4cccff"/><stop offset="1" stop-color="#3a9ee6"/></linearGradient><linearGradient id="x" gradientUnits="userSpaceOnUse" x1="21.5551" x2="21.5551" y1="22.232" y2="21.0785"><stop offset="0" stop-color="#1e9fe4"/><stop offset="1" stop-color="#1e9fe4" stop-opacity="0"/></linearGradient><linearGradient id="y" gradientUnits="userSpaceOnUse" x1="18.6233" x2="19.801" y1="20.3737" y2="20.3737"><stop offset="0" stop-color="#48e0ff"/><stop offset="1" stop-color="#48e0ff" stop-opacity="0"/></linearGradient><linearGradient id="z" gradientUnits="userSpaceOnUse" x1="19.5102" x2="20.2994" y1="14.9738" y2="17.3415"><stop offset="0" stop-color="#43b3f2"/><stop offset="1" stop-color="#43b3f2" stop-opacity="0"/></linearGradient><linearGradient id="A" gradientUnits="userSpaceOnUse" x1="8.51355" x2="16.2566" y1="23.4679" y2="23.4232"><stop offset="0" stop-color="#70504d"/><stop offset="1" stop-color="#9b665e"/></linearGradient><linearGradient id="B" gradientUnits="userSpaceOnUse" x1="16.1171" x2="16.1171" y1="2.9408" y2="17.9099"><stop offset="0" stop-color="#ea6d2e"/><stop offset="1" stop-color="#ca222b"/></linearGradient><radialGradient id="C" cx="0" cy="0" gradientTransform="matrix(-.45975245 3.57585566 -6.67374564 -.85805222 16.9565 1.93029)" gradientUnits="userSpaceOnUse" r="1"><stop offset="0" stop-color="#ff853f"/><stop offset="1" stop-color="#ff853f" stop-opacity="0"/></radialGradient><linearGradient id="D" gradientUnits="userSpaceOnUse" x1="29.3125" x2="1.43751" y1="29.9317" y2="29.9317"><stop offset="0" stop-color="#3fd47b"/><stop offset="1" stop-color="#40dc7f"/></linearGradient><linearGradient id="E" gradientUnits="userSpaceOnUse" x1="16.1171" x2="16.1171" y1="30.4683" y2="28.9206"><stop offset=".107097" stop-color="#3fd17b"/><stop offset="1" stop-color="#3fd17b" stop-opacity="0"/></linearGradient><radialGradient id="F" cx="0" cy="0" gradientTransform="matrix(-2.81571357 1.81829213 -2.98155468 -4.61708207 30.0858 27.6187)" gradientUnits="userSpaceOnUse" r="1"><stop offset="0" stop-color="#5cee92"/><stop offset="1" stop-color="#5cee92" stop-opacity="0"/></radialGradient><linearGradient id="G" gradientUnits="userSpaceOnUse" x1="7.82284" x2="16.856" y1="27.9096" y2="27.9096"><stop offset="0" stop-color="#9fa1a3"/><stop offset="1" stop-color="#c4c1c7"/></linearGradient><linearGradient id="H" gradientUnits="userSpaceOnUse" x1="7.40106" x2="8.55148" y1="27.9096" y2="27.9096"><stop offset="0" stop-color="#59675c"/><stop offset="1" stop-color="#59675c" stop-opacity="0"/></linearGradient><linearGradient id="I" gradientUnits="userSpaceOnUse" x1="17.2077" x2="15.6962" y1="27.4686" y2="28.4091"><stop offset="0" stop-color="#e3dadd"/><stop offset="1" stop-color="#e3dadd" stop-opacity="0"/></linearGradient><linearGradient id="J"><stop offset="0" stop-color="#ff8337"/><stop offset="1" stop-color="#f24747"/></linearGradient><linearGradient id="K" gradientUnits="userSpaceOnUse" x1="15.946" x2="29.6497" xlink:href="#J" y1="3.70152" y2="17.8102"/><linearGradient id="L" gradientUnits="userSpaceOnUse" x1="16.731" x2="3.02732" xlink:href="#J" y1="3.70152" y2="17.8102"/><path d="m6.09192 4.42812c0-.1933.1567-.35.35-.35h3.34869c.1933 0 .34999.15671.34999.35v10.30268h-4.04868z" fill="url(#j)"/><path d="m6.09192 4.42812c0-.1933.1567-.35.35-.35h3.34869c.1933 0 .34999.15671.34999.35v10.30268h-4.04868z" fill="url(#k)"/><path d="m6.09192 4.42812c0-.1933.1567-.35.35-.35h3.34869c.1933 0 .34999.15671.34999.35v10.30268h-4.04868z" fill="url(#l)"/><path d="m6.09192 4.42812c0-.1933.1567-.35.35-.35h3.34869c.1933 0 .34999.15671.34999.35v10.30268h-4.04868z" fill="url(#m)"/><path d="m6.09192 4.42812c0-.1933.1567-.35.35-.35h3.34869c.1933 0 .34999.15671.34999.35v10.30268h-4.04868z" fill="url(#n)"/><path d="m27.6563 29.1593h-23.01568v-13.4411l11.50788-10.75287 11.5078 10.75287z" fill="url(#o)"/><path d="m27.6563 29.1593h-23.01568v-13.4411l11.50788-10.75287 11.5078 10.75287z" fill="url(#p)"/><path d="m27.6563 29.1593h-23.01568v-13.4411l11.50788-10.75287 11.5078 10.75287z" fill="url(#q)"/><path d="m27.6563 29.1593h-23.01568v-13.4411l11.50788-10.75287 11.5078 10.75287z" fill="url(#r)"/><path d="m27.6563 29.1593h-23.01568v-13.4411l11.50788-10.75287 11.5078 10.75287z" fill="url(#s)"/><path d="m27.6563 29.1593h-23.01568v-13.4411l11.50788-10.75287 11.5078 10.75287z" fill="url(#t)"/><path d="m27.6563 29.1593h-23.01568v-13.4411l11.50788-10.75287 11.5078 10.75287z" fill="url(#u)"/><g filter="url(#a)"><path d="m15.0662 29.1592h-6.94279v-11.0069c0-.8387.53228-1.5275 1.18027-1.5275h4.58222c.648 0 1.1803.6888 1.1803 1.5275z" fill="url(#v)"/></g><g filter="url(#b)"><path d="m23.6493 21.8641h-4.1883c-.4703 0-.8377-.3822-.8377-.8378v-4.1886c0-.4703.3821-.8377.8377-.8377h4.1883c.4702 0 .8376.3821.8376.8377v4.1886c0 .4703-.3674.8378-.8376.8378z" fill="url(#w)"/><path d="m23.6493 21.8641h-4.1883c-.4703 0-.8377-.3822-.8377-.8378v-4.1886c0-.4703.3821-.8377.8377-.8377h4.1883c.4702 0 .8376.3821.8376.8377v4.1886c0 .4703-.3674.8378-.8376.8378z" fill="url(#x)"/></g><path d="m23.6493 21.8641h-4.1883c-.4703 0-.8377-.3822-.8377-.8378v-4.1886c0-.4703.3821-.8377.8377-.8377h4.1883c.4702 0 .8376.3821.8376.8377v4.1886c0 .4703-.3674.8378-.8376.8378z" fill="url(#y)"/><path d="m23.6493 21.8641h-4.1883c-.4703 0-.8377-.3822-.8377-.8378v-4.1886c0-.4703.3821-.8377.8377-.8377h4.1883c.4702 0 .8376.3821.8376.8377v4.1886c0 .4703-.3674.8378-.8376.8378z" fill="url(#z)"/><g filter="url(#c)"><path d="m16.2568 27.8979h-7.74325v-10.4343c0-.7949.59365-1.448 1.31636-1.448h5.11059c.7227 0 1.3163.6531 1.3163 1.448z" fill="url(#A)"/></g><g filter="url(#d)"><path d="m14.3173 22.2729c.3079 0 .5575-.2496.5575-.5575s-.2496-.5574-.5575-.5574c-.3078 0-.5574.2495-.5574.5574s.2496.5575.5574.5575z" fill="#62393d"/></g><g filter="url(#e)"><path d="m14.462 22.1888c.311 0 .5631-.2521.5631-.5631 0-.3111-.2521-.5632-.5631-.5632-.3111 0-.5632.2521-.5632.5632 0 .311.2521.5631.5632.5631z" fill="#895d56"/></g><path d="m29.7382 15.8467-12.7405-12.55163c-.4724-.47237-1.2417-.47237-1.7141 0 0 0-.0135 0-.0135.0135l-12.76751 12.56513c-.47237.4723-.47237 1.2281 0 1.687.47238.4589 1.24167.4724 1.71404 0l11.74177-11.56894c.0974-.09589.2536-.09589.3509 0l11.7014 11.52844c.4723.4724 1.2416.4724 1.714 0s.4859-1.2147.0135-1.6735z" fill="url(#B)"/><path d="m29.7382 15.8467-12.7405-12.55163c-.4724-.47237-1.2417-.47237-1.7141 0 0 0-.0135 0-.0135.0135l-12.76751 12.56513c-.47237.4723-.47237 1.2281 0 1.687.47238.4589 1.24167.4724 1.71404 0l11.74177-11.56894c.0974-.09589.2536-.09589.3509 0l11.7014 11.52844c.4723.4724 1.2416.4724 1.714 0s.4859-1.2147.0135-1.6735z" fill="url(#C)"/><g filter="url(#f)"><path d="m7.3584 27.2782h8.6417v1.1321h-8.6417z" fill="#68552b"/></g><g filter="url(#g)"><path d="m2.14832 29.9317c0-1.1168.90532-2.0222 2.0221-2.0222h23.89328c1.1168 0 2.0221.9054 2.0221 2.0222z" fill="url(#D)"/></g><path d="m2.14832 29.9317c0-1.1168.90532-2.0222 2.0221-2.0222h23.89328c1.1168 0 2.0221.9054 2.0221 2.0222z" fill="url(#E)"/><path d="m2.14832 29.9317c0-1.1168.90532-2.0222 2.0221-2.0222h23.89328c1.1168 0 2.0221.9054 2.0221 2.0222z" fill="url(#F)"/><path d="m7.56262 27.7776c0-.4142.33579-.75.75-.75h8.01308c.4871 0 .882.3949.882.882h-9.64508z" fill="url(#G)"/><path d="m7.56262 27.7776c0-.4142.33579-.75.75-.75h8.01308c.4871 0 .882.3949.882.882h-9.64508z" fill="url(#H)"/><path d="m7.56262 27.7776c0-.4142.33579-.75.75-.75h8.01308c.4871 0 .882.3949.882.882h-9.64508z" fill="url(#I)"/><g filter="url(#h)"><path d="m16.3385 3.89661 12.7762 12.58019" stroke="url(#K)" stroke-linecap="round" stroke-width=".3"/></g><g filter="url(#i)"><path d="m16.3385 3.89661-12.77617 12.58019" stroke="url(#L)" stroke-linecap="round" stroke-opacity=".5" stroke-width=".3"/></g></svg>