<svg width="80" height="80" viewBox="0 0 80 80" fill="none" xmlns="http://www.w3.org/2000/svg">
<path d="M80 14C79.8333 7.33333 76.3167 4 69.45 4H10.5C3.66667 4 0.166667 7.33333 0 14V69.95C0.166667 76.65 3.66667 80 10.5 80H69.45C76.3167 80 79.8333 76.65 80 69.95V14Z" fill="url(#paint0_linear_3_13784)"/>
<path d="M80 10.5C80 3.5 76.4833 0 69.45 0H10.5C3.5 0 0 3.5 0 10.5V14C0.166667 7.33333 3.66667 4 10.5 4H69.45C76.3167 4 79.8333 7.33333 80 14V10.5Z" fill="url(#paint1_linear_3_13784)"/>
<path d="M16.3115 31.8615C16.7449 32.1282 17.2449 32.1949 17.8115 32.0615L33.2615 27.9115C33.7949 27.7782 34.2115 27.4782 34.5115 27.0115C34.7449 26.5449 34.7782 26.0282 34.6115 25.4615L34.3615 24.5115C34.2282 23.9449 33.9449 23.5449 33.5115 23.3115C33.0115 23.0115 32.4949 22.9282 31.9615 23.0615L16.5115 27.2115C15.9449 27.3449 15.5449 27.6615 15.3115 28.1615C15.0115 28.5949 14.9282 29.0949 15.0615 29.6615L15.3115 30.6115C15.4782 31.1782 15.8115 31.5949 16.3115 31.8615Z" fill="#3D465D"/>
<path d="M45.1616 27.0613C45.4282 27.528 45.8282 27.828 46.3616 27.9613L61.8116 32.1113C62.3782 32.2447 62.8949 32.1947 63.3616 31.9613C63.8282 31.6613 64.1449 31.228 64.3116 30.6613L64.5616 29.7113C64.6949 29.1447 64.6282 28.6613 64.3616 28.2613C64.0949 27.728 63.6782 27.3947 63.1116 27.2613L47.6616 23.1113C47.1282 22.978 46.6282 23.0613 46.1616 23.3613C45.6949 23.5947 45.3949 23.9947 45.2616 24.5613L45.0116 25.5113C44.8449 26.078 44.8949 26.5947 45.1616 27.0613Z" fill="#3D465D"/>
<path d="M16.8115 36.1113C16.8115 36.678 17.0115 37.1613 17.4115 37.5613L21.9615 42.1113L17.4115 46.7113C17.0115 47.078 16.8115 47.5447 16.8115 48.1113C16.8115 48.678 17.0115 49.1613 17.4115 49.5613C17.7782 49.928 18.2449 50.1113 18.8115 50.1113C19.3782 50.1113 19.8615 49.928 20.2615 49.5613L24.8115 44.9613L29.4115 49.5613C29.7782 49.928 30.2449 50.1113 30.8115 50.1113C31.3782 50.1113 31.8615 49.928 32.2615 49.5613C32.6282 49.1613 32.8115 48.678 32.8115 48.1113C32.8115 47.5447 32.6282 47.078 32.2615 46.7113L27.6615 42.1113L32.2615 37.5613C32.6282 37.1613 32.8115 36.678 32.8115 36.1113C32.8115 35.5447 32.6282 35.078 32.2615 34.7113C31.8615 34.3113 31.3782 34.1113 30.8115 34.1113C30.2449 34.1113 29.7782 34.3113 29.4115 34.7113L24.8115 39.2613L20.2615 34.7113C19.8615 34.3113 19.3782 34.1113 18.8115 34.1113C18.2449 34.1113 17.7782 34.3113 17.4115 34.7113C17.0115 35.078 16.8115 35.5447 16.8115 36.1113ZM46.8115 36.1113C46.8115 36.678 47.0115 37.1613 47.4115 37.5613L51.9615 42.1113L47.4115 46.7113C47.0115 47.078 46.8115 47.5447 46.8115 48.1113C46.8115 48.678 47.0115 49.1613 47.4115 49.5613C47.7782 49.928 48.2449 50.1113 48.8115 50.1113C49.3782 50.1113 49.8615 49.928 50.2615 49.5613L54.8115 44.9613L59.4115 49.5613C59.7782 49.928 60.2449 50.1113 60.8115 50.1113C61.3782 50.1113 61.8615 49.928 62.2615 49.5613C62.6282 49.1613 62.8115 48.678 62.8115 48.1113C62.8115 47.5447 62.6282 47.078 62.2615 46.7113L57.6615 42.1113L62.2615 37.5613C62.6282 37.1613 62.8115 36.678 62.8115 36.1113C62.8115 35.5447 62.6282 35.078 62.2615 34.7113C61.8615 34.3113 61.3782 34.1113 60.8115 34.1113C60.2449 34.1113 59.7782 34.3113 59.4115 34.7113L54.8115 39.2613L50.2615 34.7113C49.8615 34.3113 49.3782 34.1113 48.8115 34.1113C48.2449 34.1113 47.7782 34.3113 47.4115 34.7113C47.0115 35.078 46.8115 35.5447 46.8115 36.1113Z" fill="#3D465D"/>
<path d="M45.6615 59.9613C45.9615 60.1613 46.2449 60.378 46.5115 60.6113C46.9115 60.978 47.3949 61.1447 47.9615 61.1113C48.4949 61.078 48.9449 60.8613 49.3115 60.4613C49.6782 60.028 49.8449 59.5447 49.8115 59.0113C49.7782 58.4447 49.5615 57.978 49.1615 57.6113C48.7949 57.3113 48.4115 57.0113 48.0115 56.7113C45.7449 54.978 43.0115 54.1113 39.8115 54.1113C36.5449 54.1113 33.7615 54.978 31.4615 56.7113C31.4615 56.7447 31.4449 56.7613 31.4115 56.7613C30.9782 57.0947 30.6115 57.4447 30.3115 57.8113C29.9449 58.2113 29.7782 58.6947 29.8115 59.2613C29.8449 59.7947 30.0782 60.2447 30.5115 60.6113C30.9115 60.978 31.3949 61.1447 31.9615 61.1113C32.4949 61.078 32.9449 60.8613 33.3115 60.4613C33.4782 60.2613 33.6615 60.078 33.8615 59.9113C35.4949 58.7113 37.4782 58.1113 39.8115 58.1113C42.0782 58.1113 44.0115 58.7113 45.6115 59.9113L45.6615 59.9613Z" fill="#3D465D"/>
<defs>
<linearGradient id="paint0_linear_3_13784" x1="40" y1="-1.09798e-07" x2="40" y2="80" gradientUnits="userSpaceOnUse">
<stop stop-color="#E26081"/>
<stop offset="1" stop-color="#D44947"/>
</linearGradient>
<linearGradient id="paint1_linear_3_13784" x1="39.75" y1="-0.25" x2="39.75" y2="43.25" gradientUnits="userSpaceOnUse">
<stop stop-color="#F37F98"/>
<stop offset="1" stop-color="#D74854"/>
</linearGradient>
</defs>
</svg>
