<svg fill="none" height="32" viewBox="0 0 32 32" width="32" xmlns="http://www.w3.org/2000/svg" xmlns:xlink="http://www.w3.org/1999/xlink"><filter id="a" color-interpolation-filters="sRGB" filterUnits="userSpaceOnUse" height="26.8751" width="14.7796" x="7.68237" y="2.69604"><feFlood flood-opacity="0" result="BackgroundImageFix"/><feBlend in="SourceGraphic" in2="BackgroundImageFix" mode="normal" result="shape"/><feColorMatrix in="SourceAlpha" result="hardAlpha" type="matrix" values="0 0 0 0 0 0 0 0 0 0 0 0 0 0 0 0 0 0 127 0"/><feOffset/><feGaussianBlur stdDeviation=".25"/><feComposite in2="hardAlpha" k2="-1" k3="1" operator="arithmetic"/><feColorMatrix type="matrix" values="0 0 0 0 0.968627 0 0 0 0 0.431373 0 0 0 0 0.337255 0 0 0 1 0"/><feBlend in2="shape" mode="normal" result="effect1_innerShadow_18_15539"/></filter><linearGradient id="b" gradientUnits="userSpaceOnUse" x1="18.4074" x2="18.4074" y1="7.96602" y2="23.7116"><stop offset="0" stop-color="#ffbd61"/><stop offset="1" stop-color="#eb5c74"/></linearGradient><linearGradient id="c" gradientUnits="userSpaceOnUse" x1="15.0722" x2="15.0722" y1="11.05" y2="26.5859"><stop offset="0" stop-color="#ffa547"/><stop offset="1" stop-color="#f14b49"/></linearGradient><linearGradient id="d" gradientUnits="userSpaceOnUse" x1="15.0722" x2="15.0722" y1="2.69604" y2="13.7608"><stop offset="0" stop-color="#df9844"/><stop offset="1" stop-color="#df9844" stop-opacity="0"/></linearGradient><radialGradient id="e" cx="0" cy="0" gradientTransform="matrix(0 6.45595 -1.40857 0 17.0992 7.9239)" gradientUnits="userSpaceOnUse" r="1"><stop offset="0" stop-color="#fe9052"/><stop offset="1" stop-color="#fe9052" stop-opacity="0"/></radialGradient><linearGradient id="f" gradientUnits="userSpaceOnUse" x1="13.0633" x2="13.493" y1="8.37241" y2="8.63022"><stop offset="0" stop-color="#c76c38"/><stop offset="1" stop-color="#c76c38" stop-opacity="0"/></linearGradient><radialGradient id="g" cx="0" cy="0" gradientTransform="matrix(0 6.6875 -2.4375 0 17.157 7.71616)" gradientUnits="userSpaceOnUse" r="1"><stop offset="0" stop-color="#ffb54b"/><stop offset="1" stop-color="#ffb54b" stop-opacity="0"/></radialGradient><path d="m16.7245 3.80341-8.1571 13.52889c-.18657.3094.03627.7039.3976.7039l4.1265.0001c.3077 0 .5571.2494.5571.5571v8.6371h-.4906v2.3406h.752c.0951.0068.1942-.0344.255-.1339l9.0734-14.8657c.1133-.1856-.0203-.4237-.2378-.4237h-4.7085c-.2565 0-.4643-.2079-.4643-.4643v-10.70842c0-.1651-.1271-.26896-.2618-.27834l-.8415-.0007z" fill="url(#b)"/><g filter="url(#a)"><path d="m16.4931 2.83125-8.74333 14.50105c-.18656.3094.03627.704.39758.704h4.12655c.3077 0 .5571.2494.5571.5571v10.6987c0 .2814.3697.3853.5163.1451l9.0735-14.8657c.1133-.1857-.0203-.4237-.2378-.4237h-4.7086c-.2564 0-.4642-.2079-.4642-.4643v-10.70842c0-.2822-.3714-.3855-.5171-.14383z" fill="url(#c)"/></g><path d="m16.4931 2.83125-8.74333 14.50105c-.18656.3094.03627.704.39758.704h4.12655c.3077 0 .5571.2494.5571.5571v10.6987c0 .2814.3697.3853.5163.1451l9.0735-14.8657c.1133-.1857-.0203-.4237-.2378-.4237h-4.7086c-.2564 0-.4642-.2079-.4642-.4643v-10.70842c0-.2822-.3714-.3855-.5171-.14383z" fill="url(#d)"/><path d="m16.4931 2.83125-8.74333 14.50105c-.18656.3094.03627.704.39758.704h4.12655c.3077 0 .5571.2494.5571.5571v10.6987c0 .2814.3697.3853.5163.1451l9.0735-14.8657c.1133-.1857-.0203-.4237-.2378-.4237h-4.7086c-.2564 0-.4642-.2079-.4642-.4643v-10.70842c0-.2822-.3714-.3855-.5171-.14383z" fill="url(#e)"/><path d="m16.4931 2.83125-8.74333 14.50105c-.18656.3094.03627.704.39758.704h4.12655c.3077 0 .5571.2494.5571.5571v10.6987c0 .2814.3697.3853.5163.1451l9.0735-14.8657c.1133-.1857-.0203-.4237-.2378-.4237h-4.7086c-.2564 0-.4642-.2079-.4642-.4643v-10.70842c0-.2822-.3714-.3855-.5171-.14383z" fill="url(#f)"/><path d="m16.4931 2.83125-8.74333 14.50105c-.18656.3094.03627.704.39758.704h4.12655c.3077 0 .5571.2494.5571.5571v10.6987c0 .2814.3697.3853.5163.1451l9.0735-14.8657c.1133-.1857-.0203-.4237-.2378-.4237h-4.7086c-.2564 0-.4642-.2079-.4642-.4643v-10.70842c0-.2822-.3714-.3855-.5171-.14383z" fill="url(#g)"/></svg>