<svg fill="none" height="32" viewBox="0 0 32 32" width="32" xmlns="http://www.w3.org/2000/svg"><path d="m14 28.2921c5.6841 0 10.292-4.6079 10.292-10.2921 0-5.6841-4.6079-10.29199-10.292-10.29199-5.68415 0-10.29205 4.60789-10.29205 10.29199 0 5.6842 4.6079 10.2921 10.29205 10.2921z" fill="#f4f4f4"/><path d="m26 18c0-6.6274-5.3726-12-12-12-6.62742 0-12 5.3726-12 12s5.37258 12 12 12c6.6274 0 12-5.3726 12-12zm-3 0c0 4.9705-4.0294 9-9 9-4.97056 0-9-4.0295-9-9 0-4.9706 4.02944-9 9-9 4.9706 0 9 4.0294 9 9zm-9 6c-3.3137 0-6-2.6863-6-6s2.6863-6 6-6 6 2.6863 6 6-2.6863 6-6 6zm3-6c0-1.6568-1.3431-3-3-3s-3 1.3432-3 3 1.3431 3 3 3 3-1.3432 3-3z" fill="#f8312f"/><path d="m14.2505 17.742c.3445.344.8874.344 1.2319 0l4.2592-4.2537c.3445-.3441.3445-.8862 0-1.2303-.3445-.344-.8873-.344-1.2318 0l-4.2593 4.2537c-.334.3441-.334.8862 0 1.2303z" fill="#9b9b9b"/><path d="m19.6577 10.093-.45-1.58999c-.54-1.9-.01-3.95003 1.39-5.34003l.89-.88998c.49-.5 1.33-.28002 1.52.38998l.9923 3.33702zm2.3423 2.2369 1.5717.4585c1.8782.5501 3.9046.0102 5.2787-1.4162l.8797-.9067c.4943-.49922.2768-1.35501-.3855-1.54858l-3.3446-.91692z" fill="#46a4fb"/><path d="m15.8499 16.1517c1.2237 1.2228 3.2278 1.1072 4.307-.2406l5.4246-6.7972c.6071-.76058.5492-1.85814-.1445-2.55133s-1.7922-.75098-2.5534-.14444l-6.8025 5.42037c-1.3393 1.088-1.4549 3.0905-.2312 4.3132z" fill="#50e2ff"/><path d="m21.258 10.742c.3441.344.8862.344 1.2303 0l4.2537-4.25371c.344-.34405.344-.88621 0-1.23025-.3441-.34405-.8862-.34405-1.2303 0l-4.2537 4.2537c-.344.34405-.344.89656 0 1.23026z" fill="#46a4fb"/></svg>