<svg fill="none" height="32" viewBox="0 0 32 32" width="32" xmlns="http://www.w3.org/2000/svg" xmlns:xlink="http://www.w3.org/1999/xlink"><filter id="a" color-interpolation-filters="sRGB" filterUnits="userSpaceOnUse" height="16.625" width="15.5312" x="14.7656" y="13.2812"><feFlood flood-opacity="0" result="BackgroundImageFix"/><feBlend in="SourceGraphic" in2="BackgroundImageFix" mode="normal" result="shape"/><feColorMatrix in="SourceAlpha" result="hardAlpha" type="matrix" values="0 0 0 0 0 0 0 0 0 0 0 0 0 0 0 0 0 0 127 0"/><feOffset dx=".5" dy="-.5"/><feGaussianBlur stdDeviation=".5"/><feComposite in2="hardAlpha" k2="-1" k3="1" operator="arithmetic"/><feColorMatrix type="matrix" values="0 0 0 0 0.905882 0 0 0 0 0.556863 0 0 0 0 0.329412 0 0 0 1 0"/><feBlend in2="shape" mode="normal" result="effect1_innerShadow_18_17099"/></filter><filter id="b" color-interpolation-filters="sRGB" filterUnits="userSpaceOnUse" height="10.8438" width="12.344" x="15.4841" y="14.5625"><feFlood flood-opacity="0" result="BackgroundImageFix"/><feBlend in="SourceGraphic" in2="BackgroundImageFix" mode="normal" result="shape"/><feGaussianBlur result="effect1_foregroundBlur_18_17099" stdDeviation=".5"/></filter><filter id="c" color-interpolation-filters="sRGB" filterUnits="userSpaceOnUse" height="8.14063" width="10.5438" x="17.0156" y="15.6406"><feFlood flood-opacity="0" result="BackgroundImageFix"/><feBlend in="SourceGraphic" in2="BackgroundImageFix" mode="normal" result="shape"/><feColorMatrix in="SourceAlpha" result="hardAlpha" type="matrix" values="0 0 0 0 0 0 0 0 0 0 0 0 0 0 0 0 0 0 127 0"/><feOffset dx=".2"/><feGaussianBlur stdDeviation=".2"/><feComposite in2="hardAlpha" k2="-1" k3="1" operator="arithmetic"/><feColorMatrix type="matrix" values="0 0 0 0 0.862745 0 0 0 0 0.321569 0 0 0 0 0.109804 0 0 0 1 0"/><feBlend in2="shape" mode="normal" result="effect1_innerShadow_18_17099"/></filter><filter id="d" color-interpolation-filters="sRGB" filterUnits="userSpaceOnUse" height="7.69063" width="9.89375" x="17.4123" y="15.8656"><feFlood flood-opacity="0" result="BackgroundImageFix"/><feBlend in="SourceGraphic" in2="BackgroundImageFix" mode="normal" result="shape"/><feGaussianBlur result="effect1_foregroundBlur_18_17099" stdDeviation=".075"/></filter><filter id="e" color-interpolation-filters="sRGB" filterUnits="userSpaceOnUse" height="19.75" width="2.25" x="17.7969" y="7.53125"><feFlood flood-opacity="0" result="BackgroundImageFix"/><feBlend in="SourceGraphic" in2="BackgroundImageFix" mode="normal" result="shape"/><feGaussianBlur result="effect1_foregroundBlur_18_17099" stdDeviation=".375"/></filter><filter id="f" color-interpolation-filters="sRGB" filterUnits="userSpaceOnUse" height="16.0348" width="1.75" x="28.134" y="13.8219"><feFlood flood-opacity="0" result="BackgroundImageFix"/><feBlend in="SourceGraphic" in2="BackgroundImageFix" mode="normal" result="shape"/><feGaussianBlur result="effect1_foregroundBlur_18_17099" stdDeviation=".25"/></filter><filter id="g" color-interpolation-filters="sRGB" filterUnits="userSpaceOnUse" height="5.875" width="2.75" x="14.1094" y="6.875"><feFlood flood-opacity="0" result="BackgroundImageFix"/><feBlend in="SourceGraphic" in2="BackgroundImageFix" mode="normal" result="shape"/><feGaussianBlur result="effect1_foregroundBlur_18_17099" stdDeviation=".5"/></filter><filter id="h" color-interpolation-filters="sRGB" filterUnits="userSpaceOnUse" height="5.875" width="2.75" x="4.04688" y="6.875"><feFlood flood-opacity="0" result="BackgroundImageFix"/><feBlend in="SourceGraphic" in2="BackgroundImageFix" mode="normal" result="shape"/><feGaussianBlur result="effect1_foregroundBlur_18_17099" stdDeviation=".5"/></filter><filter id="i" color-interpolation-filters="sRGB" filterUnits="userSpaceOnUse" height="9.6625" width="11.0938" x="5.40625" y="1.68125"><feFlood flood-opacity="0" result="BackgroundImageFix"/><feBlend in="SourceGraphic" in2="BackgroundImageFix" mode="normal" result="shape"/><feColorMatrix in="SourceAlpha" result="hardAlpha" type="matrix" values="0 0 0 0 0 0 0 0 0 0 0 0 0 0 0 0 0 0 127 0"/><feOffset dy="-.1"/><feGaussianBlur stdDeviation=".2"/><feComposite in2="hardAlpha" k2="-1" k3="1" operator="arithmetic"/><feColorMatrix type="matrix" values="0 0 0 0 0.164706 0 0 0 0 0.560784 0 0 0 0 0.886275 0 0 0 1 0"/><feBlend in2="shape" mode="normal" result="effect1_innerShadow_18_17099"/></filter><filter id="j" color-interpolation-filters="sRGB" filterUnits="userSpaceOnUse" height="9.3125" width="11.0156" x="5.53125" y="1.90625"><feFlood flood-opacity="0" result="BackgroundImageFix"/><feBlend in="SourceGraphic" in2="BackgroundImageFix" mode="normal" result="shape"/><feGaussianBlur result="effect1_foregroundBlur_18_17099" stdDeviation=".125"/></filter><linearGradient id="k" gradientUnits="userSpaceOnUse" x1="18.5469" x2="23.6094" y1="17.0625" y2="25.8125"><stop offset="0" stop-color="#fec243"/><stop offset="1" stop-color="#fdb046"/></linearGradient><radialGradient id="l" cx="0" cy="0" gradientTransform="matrix(2.15282377 2.76338357 -3.7588277 2.92832805 15.6661 27.1429)" gradientUnits="userSpaceOnUse" r="1"><stop offset=".224669" stop-color="#d38d3c"/><stop offset="1" stop-color="#d38d3c" stop-opacity="0"/></radialGradient><linearGradient id="m"><stop offset="0" stop-color="#f38362"/><stop offset="1" stop-color="#f38362" stop-opacity="0"/></linearGradient><linearGradient id="n" gradientUnits="userSpaceOnUse" x1="26.0859" x2="26.0859" xlink:href="#m" y1="15.7813" y2="22.0469"/><linearGradient id="o" gradientUnits="userSpaceOnUse" x1="18.8906" x2="25.2031" xlink:href="#m" y1="22.0469" y2="22.0469"/><linearGradient id="p" gradientUnits="userSpaceOnUse" x1="10.9531" x2="10.9531" y1="7.6875" y2="27.7812"><stop offset="0" stop-color="#59c1fa"/><stop offset="1" stop-color="#49a8ff"/></linearGradient><linearGradient id="q" gradientUnits="userSpaceOnUse" x1="2.01563" x2="3.76562" y1="25.4688" y2="25.4688"><stop offset="0" stop-color="#419ce0"/><stop offset="1" stop-color="#449fee" stop-opacity="0"/></linearGradient><linearGradient id="r" gradientUnits="userSpaceOnUse" x1="10.6094" x2="10.6094" y1="28.25" y2="23.875"><stop offset="0" stop-color="#4676f8"/><stop offset="1" stop-color="#439aff" stop-opacity="0"/></linearGradient><linearGradient id="s" gradientUnits="userSpaceOnUse" x1="10.9531" x2="10.9531" y1="7.6875" y2="9.84375"><stop offset=".15942" stop-color="#61c9e8"/><stop offset="1" stop-color="#61c9e8" stop-opacity="0"/></linearGradient><linearGradient id="t" gradientUnits="userSpaceOnUse" x1="653657" x2="653657" y1="8.68482" y2="25.7161"><stop offset="0" stop-color="#80e8ff"/><stop offset=".73945" stop-color="#5bb8ff"/><stop offset="1" stop-color="#54afff"/></linearGradient><linearGradient id="u"><stop offset=".196078" stop-color="#2a81cd"/><stop offset="1" stop-color="#2a81cd" stop-opacity="0"/></linearGradient><linearGradient id="v" gradientUnits="userSpaceOnUse" x1="2.01562" x2="3.85938" xlink:href="#u" y1="15.5" y2="15.5"/><linearGradient id="w"><stop offset="0" stop-color="#51a9f3"/><stop offset="1" stop-color="#51a9f3" stop-opacity="0"/></linearGradient><linearGradient id="x" gradientUnits="userSpaceOnUse" x1="19.8906" x2="18.1406" xlink:href="#w" y1="15.5" y2="15.5"/><linearGradient id="y"><stop offset="0" stop-color="#3c97ee"/><stop offset="1" stop-color="#3c97ee" stop-opacity="0"/></linearGradient><linearGradient id="z" gradientUnits="userSpaceOnUse" x1="19.8906" x2="19.0781" xlink:href="#y" y1="16.1875" y2="16.1875"/><linearGradient id="A" gradientUnits="userSpaceOnUse" x1="2.01562" x2="3.85938" xlink:href="#u" y1="20.1563" y2="20.1563"/><linearGradient id="B" gradientUnits="userSpaceOnUse" x1="19.8906" x2="18.1406" xlink:href="#w" y1="20.1563" y2="20.1563"/><linearGradient id="C" gradientUnits="userSpaceOnUse" x1="19.8906" x2="19.0781" xlink:href="#y" y1="20.8438" y2="20.8438"/><linearGradient id="D" gradientUnits="userSpaceOnUse" x1="2.01562" x2="3.85938" xlink:href="#u" y1="24.8125" y2="24.8125"/><linearGradient id="E" gradientUnits="userSpaceOnUse" x1="19.8906" x2="18.1406" xlink:href="#w" y1="24.8125" y2="24.8125"/><linearGradient id="F" gradientUnits="userSpaceOnUse" x1="19.8906" x2="19.0781" xlink:href="#y" y1="25.5" y2="25.5"/><linearGradient id="G" gradientUnits="userSpaceOnUse" x1="653667" x2="653667" y1="14.4227" y2="27.4301"><stop offset="0" stop-color="#ffd262"/><stop offset="1" stop-color="#ffb84a"/></linearGradient><radialGradient id="H" cx="0" cy="0" gradientTransform="matrix(2.46875416 8.06249818 -9.50432949 2.91024598 8.48437 2.78125)" gradientUnits="userSpaceOnUse" r="1"><stop offset="0" stop-color="#2c94e3"/><stop offset="1" stop-color="#2c9ceb"/></radialGradient><linearGradient id="I" gradientUnits="userSpaceOnUse" x1="12.4375" x2="12.4375" y1="11.3437" y2="6.09375"><stop offset="0" stop-color="#53a9f2"/><stop offset="1" stop-color="#53a9f2" stop-opacity="0"/></linearGradient><linearGradient id="J" gradientUnits="userSpaceOnUse" x1="15.7969" x2="13.8281" y1="4.1875" y2="6.5625"><stop offset="0" stop-color="#61b2f2"/><stop offset="1" stop-color="#61b2f2" stop-opacity="0"/></linearGradient><g filter="url(#a)"><path d="m14.7656 14.7813c0-.5523.4477-1.0001 1-1.0001h13.0313c.5523 0 1 .4478 1 1v14.125c0 .5523-.4477 1-1 1h-13.0313c-.5523 0-1-.4477-1-1z" fill="url(#k)"/><path d="m14.7656 14.7813c0-.5523.4477-1.0001 1-1.0001h13.0313c.5523 0 1 .4478 1 1v14.125c0 .5523-.4477 1-1 1h-13.0313c-.5523 0-1-.4477-1-1z" fill="url(#l)"/></g><g filter="url(#b)"><path d="m17.4841 16.7656c0-.2761-.2238-.5-.5-.5-.2761 0-.5.2239-.5.5zm9.344-.703c.0001-.2762-.2238-.5001-.4999-.5001-.2762 0-.5.2238-.5001.4999zm-.5003 2.8436h-.5zm-8.8437 0v-2.1406h-1v2.1406zm8.344-2.8438-.0003 2.8438 1 .0001.0003-2.8437zm-4.1721 7.3438c-2.2503 0-4.1719-1.9839-4.1719-4.5h-1c0 3.0068 2.3097 5.5 5.1719 5.5zm0 1c2.8622 0 5.1718-2.4932 5.1718-5.5h-1c0 2.5161-1.9216 4.5-4.1718 4.5z" fill="#f19a39"/></g><g filter="url(#c)"><path d="m18.0156 16.1406c0-.2761-.2238-.5-.5-.5-.2761 0-.5.2239-.5.5zm9.3438 0c0-.2761-.2239-.5-.5-.5-.2762 0-.5.2239-.5.5zm-.5 2.1406h-.5zm-8.8438 0v-2.1406h-1v2.1406zm8.3438-2.1406v2.1406l1 .0001v-2.1407zm-4.1719 6.6406c-2.2503 0-4.1719-1.9839-4.1719-4.5h-1c0 3.0068 2.3097 5.5 5.1719 5.5zm0 1c2.8622 0 5.1719-2.4932 5.1719-5.5h-1c0 2.5161-1.9216 4.5-4.1719 4.5z" fill="#e45a3b"/></g><g filter="url(#d)"><path d="m17.8123 16.1406c0-.069-.056-.125-.125-.125-.0691 0-.125.056-.125.125zm9.3437 0c0-.069-.056-.125-.125-.125s-.125.056-.125.125zm-.125 2.1406h.125zm-9.2187 0v-2.1406h-.25v2.1406zm9.0937-2.1406v2.1406h.25v-2.1406zm-4.5469 7.0156c-2.4797 0-4.5468-2.1749-4.5468-4.875h-.25c0 2.8228 2.1641 5.125 4.7968 5.125zm0 .25c2.6328 0 4.7969-2.3022 4.7969-5.125h-.25c0 2.7001-2.0671 4.875-4.5469 4.875z" fill="url(#n)"/><path d="m17.8123 16.1406c0-.069-.056-.125-.125-.125-.0691 0-.125.056-.125.125zm9.3437 0c0-.069-.056-.125-.125-.125s-.125.056-.125.125zm-.125 2.1406h.125zm-9.2187 0v-2.1406h-.25v2.1406zm9.0937-2.1406v2.1406h.25v-2.1406zm-4.5469 7.0156c-2.4797 0-4.5468-2.1749-4.5468-4.875h-.25c0 2.8228 2.1641 5.125 4.7968 5.125zm0 .25c2.6328 0 4.7969-2.3022 4.7969-5.125h-.25c0 2.7001-2.0671 4.875-4.5469 4.875z" fill="url(#o)"/></g><rect fill="url(#p)" height="20.0938" rx="1" width="17.875" x="2.01562" y="7.6875"/><rect fill="url(#q)" height="20.0938" rx="1" width="17.875" x="2.01562" y="7.6875"/><rect fill="url(#r)" height="20.0938" rx="1" width="17.875" x="2.01562" y="7.6875"/><rect fill="url(#s)" height="20.0938" rx="1" width="17.875" x="2.01562" y="7.6875"/><g filter="url(#e)"><path d="m18.9219 8.65625v17.50005" stroke="url(#t)" stroke-linecap="round" stroke-width=".75"/></g><path d="m2.01562 16.1875v-2.2187h17.87498v2.2187z" fill="#3a92ea"/><path d="m2.01562 16.1875v-2.2187h17.87498v2.2187z" fill="url(#v)"/><path d="m2.01562 16.1875v-2.2187h17.87498v2.2187z" fill="url(#x)"/><path d="m2.01562 16.1875v-2.2187h17.87498v2.2187z" fill="url(#z)"/><path d="m2.01562 20.8438v-2.2188h17.87498v2.2188z" fill="#3a91ed"/><path d="m2.01562 20.8438v-2.2188h17.87498v2.2188z" fill="url(#A)"/><path d="m2.01562 20.8438v-2.2188h17.87498v2.2188z" fill="url(#B)"/><path d="m2.01562 20.8438v-2.2188h17.87498v2.2188z" fill="url(#C)"/><path d="m2.01562 25.5v-2.2188h17.87498v2.2188z" fill="#3a8ff0"/><path d="m2.01562 25.5v-2.2188h17.87498v2.2188z" fill="url(#D)"/><path d="m2.01562 25.5v-2.2188h17.87498v2.2188z" fill="url(#E)"/><path d="m2.01562 25.5v-2.2188h17.87498v2.2188z" fill="url(#F)"/><g filter="url(#f)"><path d="m29.0091 14.6969-.0001 14.2848" stroke="url(#G)" stroke-linecap="round" stroke-width=".75"/></g><g filter="url(#g)"><path d="m15.4844 8.25v3.125" stroke="#4eb7f5" stroke-linecap="round" stroke-width=".75"/></g><g filter="url(#h)"><path d="m5.42188 8.25v3.125" stroke="#4eb7f5" stroke-linecap="round" stroke-width=".75"/></g><g filter="url(#i)"><path d="m15.5 10.8438c0 .2761.2239.5.5.5s.5-.2239.5-.5zm-10.09375 0c0 .2761.22386.5.5.5s.5-.2239.5-.5zm10.09375-3.56255v3.56255h1v-3.56255zm-9.09375 3.56255v-3.56255h-1v3.56255zm4.54685-8.06255c2.4914 0 4.5469 2.02077 4.5469 4.5h1c0-3.04361-2.5154-5.5-5.5469-5.5zm0-1c-3.03146 0-5.54685 2.45639-5.54685 5.5h1c0-2.47923 2.05551-4.5 4.54685-4.5z" fill="url(#H)"/></g><g filter="url(#j)"><path d="m16.0469 10.8438c0 .069.0559.125.125.125.069 0 .125-.056.125-.125zm-10.26565 0c0 .069.05596.125.125.125s.125-.056.125-.125zm10.26565-3.56255v3.56255h.25v-3.56255zm-10.01565 3.56255v-3.56255h-.25v3.56255zm5.00785-8.43755c2.7429 0 5.0078 2.18609 5.0078 4.875h.25c0-2.83394-2.3839-5.125-5.2578-5.125zm0-.25c-2.87399 0-5.25785 2.29106-5.25785 5.125h.25c0-2.68891 2.26487-4.875 5.00785-4.875z" fill="url(#I)"/><path d="m16.0469 10.8438c0 .069.0559.125.125.125.069 0 .125-.056.125-.125zm-10.26565 0c0 .069.05596.125.125.125s.125-.056.125-.125zm10.26565-3.56255v3.56255h.25v-3.56255zm-10.01565 3.56255v-3.56255h-.25v3.56255zm5.00785-8.43755c2.7429 0 5.0078 2.18609 5.0078 4.875h.25c0-2.83394-2.3839-5.125-5.2578-5.125zm0-.25c-2.87399 0-5.25785 2.29106-5.25785 5.125h.25c0-2.68891 2.26487-4.875 5.00785-4.875z" fill="url(#J)"/></g></svg>