<svg fill="none" height="32" viewBox="0 0 32 32" width="32" xmlns="http://www.w3.org/2000/svg" xmlns:xlink="http://www.w3.org/1999/xlink"><filter id="a" color-interpolation-filters="sRGB" filterUnits="userSpaceOnUse" height="14.6428" width="8.51249" x="14.5658" y="8.24023"><feFlood flood-opacity="0" result="BackgroundImageFix"/><feBlend in="SourceGraphic" in2="BackgroundImageFix" mode="normal" result="shape"/><feGaussianBlur result="effect1_foregroundBlur_6994_5077" stdDeviation="1"/></filter><filter id="b" color-interpolation-filters="sRGB" filterUnits="userSpaceOnUse" height="10.1016" width="10.1739" x="19.62" y="6.53046"><feFlood flood-opacity="0" result="BackgroundImageFix"/><feBlend in="SourceGraphic" in2="BackgroundImageFix" mode="normal" result="shape"/><feGaussianBlur result="effect1_foregroundBlur_6994_5077" stdDeviation=".75"/></filter><filter id="c" color-interpolation-filters="sRGB" filterUnits="userSpaceOnUse" height="10.4008" width="9.86503" x="7.53455" y="5.98688"><feFlood flood-opacity="0" result="BackgroundImageFix"/><feBlend in="SourceGraphic" in2="BackgroundImageFix" mode="normal" result="shape"/><feGaussianBlur result="effect1_foregroundBlur_6994_5077" stdDeviation=".75"/></filter><filter id="d" color-interpolation-filters="sRGB" filterUnits="userSpaceOnUse" height="6.49353" width="5.27721" x="4.67557" y="15.6053"><feFlood flood-opacity="0" result="BackgroundImageFix"/><feBlend in="SourceGraphic" in2="BackgroundImageFix" mode="normal" result="shape"/><feGaussianBlur result="effect1_foregroundBlur_6994_5077" stdDeviation=".5"/></filter><filter id="e" color-interpolation-filters="sRGB" filterUnits="userSpaceOnUse" height="5.95935" width="4.94377" x="8.46931" y="16.4822"><feFlood flood-opacity="0" result="BackgroundImageFix"/><feBlend in="SourceGraphic" in2="BackgroundImageFix" mode="normal" result="shape"/><feGaussianBlur result="effect1_foregroundBlur_6994_5077" stdDeviation=".125"/></filter><filter id="f" color-interpolation-filters="sRGB" filterUnits="userSpaceOnUse" height="3.99385" width="1.49377" x="8.33493" y="25.1447"><feFlood flood-opacity="0" result="BackgroundImageFix"/><feBlend in="SourceGraphic" in2="BackgroundImageFix" mode="normal" result="shape"/><feGaussianBlur result="effect1_foregroundBlur_6994_5077" stdDeviation=".075"/></filter><filter id="g" color-interpolation-filters="sRGB" filterUnits="userSpaceOnUse" height="5.05935" width="2.01252" x="6.46618" y="16.4322"><feFlood flood-opacity="0" result="BackgroundImageFix"/><feBlend in="SourceGraphic" in2="BackgroundImageFix" mode="normal" result="shape"/><feGaussianBlur result="effect1_foregroundBlur_6994_5077" stdDeviation=".15"/></filter><filter id="h" color-interpolation-filters="sRGB" filterUnits="userSpaceOnUse" height="8.31891" width="7.31754" x="18.942" y="7.36078"><feFlood flood-opacity="0" result="BackgroundImageFix"/><feBlend in="SourceGraphic" in2="BackgroundImageFix" mode="normal" result="shape"/><feGaussianBlur result="effect1_foregroundBlur_6994_5077" stdDeviation=".375"/></filter><filter id="i" color-interpolation-filters="sRGB" filterUnits="userSpaceOnUse" height="3.53735" width="2.98074" x="23.0283" y="8.04779"><feFlood flood-opacity="0" result="BackgroundImageFix"/><feBlend in="SourceGraphic" in2="BackgroundImageFix" mode="normal" result="shape"/><feGaussianBlur result="effect1_foregroundBlur_6994_5077" stdDeviation=".125"/></filter><filter id="j" color-interpolation-filters="sRGB" filterUnits="userSpaceOnUse" height="2.36964" width=".999493" x="22.9998" y="12.8407"><feFlood flood-opacity="0" result="BackgroundImageFix"/><feBlend in="SourceGraphic" in2="BackgroundImageFix" mode="normal" result="shape"/><feGaussianBlur result="effect1_foregroundBlur_6994_5077" stdDeviation=".075"/></filter><filter id="k" color-interpolation-filters="sRGB" filterUnits="userSpaceOnUse" height="3.08926" width="1.41937" x="21.9078" y="7.99779"><feFlood flood-opacity="0" result="BackgroundImageFix"/><feBlend in="SourceGraphic" in2="BackgroundImageFix" mode="normal" result="shape"/><feGaussianBlur result="effect1_foregroundBlur_6994_5077" stdDeviation=".15"/></filter><radialGradient id="l" cx="0" cy="0" gradientTransform="matrix(0 -32.5418 55.321 0 18.8004 29.3301)" gradientUnits="userSpaceOnUse" r="1"><stop offset="0" stop-color="#f12e52"/><stop offset=".596003" stop-color="#ff3b79"/><stop offset="1" stop-color="#ff4ec6"/></radialGradient><radialGradient id="m" cx="0" cy="0" gradientTransform="matrix(-20.91728289 15.77031806 -29.53931357 -39.18007083 22.8833 11.734)" gradientUnits="userSpaceOnUse" r="1"><stop offset=".483055" stop-color="#b91d43" stop-opacity="0"/><stop offset=".833898" stop-color="#b91d43"/></radialGradient><radialGradient id="n" cx="0" cy="0" gradientTransform="matrix(-21.1653919 -8.26779112 11.68768011 -29.92024428 19.8587 18.1521)" gradientUnits="userSpaceOnUse" r="1"><stop offset=".40984" stop-color="#b91d43" stop-opacity="0"/><stop offset=".833898" stop-color="#b91d43"/></radialGradient><radialGradient id="o" cx="0" cy="0" gradientTransform="matrix(0 19.7764 -19.7764 0 15.4272 14.1836)" gradientUnits="userSpaceOnUse" r="1"><stop offset=".671096" stop-color="#ff7af2" stop-opacity="0"/><stop offset=".933555" stop-color="#ffbce6"/></radialGradient><linearGradient id="p"><stop offset=".694491" stop-color="#ff7af2" stop-opacity="0"/><stop offset=".933555" stop-color="#ffbce6"/></linearGradient><linearGradient id="q" gradientUnits="userSpaceOnUse" x1="17.6099" x2="25.613" xlink:href="#p" y1="16.4986" y2="26.023"/><linearGradient id="r" gradientUnits="userSpaceOnUse" x1="16.6177" x2="7.22558" xlink:href="#p" y1="16.8954" y2="27.4781"/><linearGradient id="s" gradientUnits="userSpaceOnUse" x1="19.6875" x2="16.8811" y1="9.71901" y2="6.63558"><stop offset=".40984" stop-color="#c12372" stop-opacity="0"/><stop offset=".833898" stop-color="#b5286e"/></linearGradient><linearGradient id="t"><stop offset="0" stop-color="#ff93ba"/><stop offset="1" stop-color="#ff73a6" stop-opacity="0"/></linearGradient><radialGradient id="u" cx="0" cy="0" gradientTransform="matrix(-6.13869281 -.34589316 .23356282 -4.145125 28.8912 12.4609)" gradientUnits="userSpaceOnUse" r="1" xlink:href="#t"/><radialGradient id="v" cx="0" cy="0" gradientTransform="matrix(-8.84608477 -.26254567 .1772828 -5.97327976 14.9214 11.9599)" gradientUnits="userSpaceOnUse" r="1" xlink:href="#t"/><linearGradient id="w"><stop offset="0" stop-color="#ffd542"/><stop offset="1" stop-color="#ffa847"/></linearGradient><linearGradient id="x" gradientUnits="userSpaceOnUse" x1="9.39432" x2="6.67557" xlink:href="#w" y1="16.1096" y2="25.9072"/><linearGradient id="y"><stop offset=".458251" stop-color="#e88518" stop-opacity="0"/><stop offset="1" stop-color="#e88518"/></linearGradient><linearGradient id="z" gradientUnits="userSpaceOnUse" x1="7.51932" x2="6.74959" xlink:href="#y" y1="25.3447" y2="29.5827"/><linearGradient id="A"><stop offset=".361577" stop-color="#e88518" stop-opacity="0"/><stop offset="1" stop-color="#e88518"/></linearGradient><linearGradient id="B" gradientUnits="userSpaceOnUse" x1="5.83182" x2="1.59734" xlink:href="#A" y1="24.3759" y2="24.2629"/><linearGradient id="C"><stop offset="0" stop-color="#ffff6b"/><stop offset="1" stop-color="#ffff6b" stop-opacity="0"/></linearGradient><radialGradient id="D" cx="0" cy="0" gradientTransform="matrix(-1.71530077 6.96875052 -19.25411368 -4.73924212 10.1443 12.6259)" gradientUnits="userSpaceOnUse" r="1" xlink:href="#C"/><linearGradient id="E"><stop offset=".781564" stop-color="#e88518" stop-opacity="0"/><stop offset="1" stop-color="#e88518"/></linearGradient><linearGradient id="F" gradientUnits="userSpaceOnUse" x1="7.44119" x2="6.42719" xlink:href="#E" y1="22.2978" y2="24.464"/><linearGradient id="G"><stop offset=".776042" stop-color="#e88518" stop-opacity="0"/><stop offset="1" stop-color="#e88518"/></linearGradient><linearGradient id="H" gradientUnits="userSpaceOnUse" x1="9.61528" x2="7.4983" xlink:href="#G" y1="26.8906" y2="27.6008"/><linearGradient id="I"><stop offset="0" stop-color="#fff270" stop-opacity="0"/><stop offset=".548137" stop-color="#fff270"/><stop offset="1" stop-color="#fff270" stop-opacity="0"/></linearGradient><radialGradient id="J" cx="0" cy="0" gradientTransform="matrix(5.71874896 5.35937903 -4.58265426 4.88994138 8.12869 16.7822)" gradientUnits="userSpaceOnUse" r="1" xlink:href="#I"/><linearGradient id="K"><stop offset="0" stop-color="#fff270" stop-opacity="0"/><stop offset=".494792" stop-color="#fff270" stop-opacity=".6"/><stop offset="1" stop-color="#fff270" stop-opacity="0"/></linearGradient><linearGradient id="L" gradientUnits="userSpaceOnUse" x1="9.06619" x2="8.20454" xlink:href="#K" y1="27.4854" y2="26.0778"/><linearGradient id="M"><stop offset="0" stop-color="#ff8a09" stop-opacity=".6"/><stop offset="1" stop-color="#ff8a09" stop-opacity="0"/></linearGradient><linearGradient id="N" gradientUnits="userSpaceOnUse" x1="8.00369" x2="9.68334" xlink:href="#M" y1="16.454" y2="18.8962"/><linearGradient id="O" gradientUnits="userSpaceOnUse" x1="23.6709" x2="22.1808" xlink:href="#w" y1="7.97919" y2="13.349"/><linearGradient id="P" gradientUnits="userSpaceOnUse" x1="22.6432" x2="22.2214" xlink:href="#y" y1="13.0407" y2="15.3635"/><linearGradient id="Q" gradientUnits="userSpaceOnUse" x1="21.7183" x2="19.3975" xlink:href="#A" y1="12.5098" y2="12.4478"/><radialGradient id="R" cx="0" cy="0" gradientTransform="matrix(-.9401213 3.81942974 -10.55282501 -2.5974913 24.0819 6.06984)" gradientUnits="userSpaceOnUse" r="1" xlink:href="#C"/><linearGradient id="S" gradientUnits="userSpaceOnUse" x1="22.6004" x2="22.0446" xlink:href="#E" y1="11.3708" y2="12.558"/><linearGradient id="T" gradientUnits="userSpaceOnUse" x1="23.792" x2="22.6317" xlink:href="#G" y1="13.888" y2="14.2772"/><radialGradient id="U" cx="0" cy="0" gradientTransform="matrix(3.13432542 2.93736236 -2.51165717 2.68007483 22.9772 8.34778)" gradientUnits="userSpaceOnUse" r="1" xlink:href="#I"/><linearGradient id="V" gradientUnits="userSpaceOnUse" x1="23.491" x2="23.0188" xlink:href="#K" y1="14.2139" y2="13.4425"/><linearGradient id="W" gradientUnits="userSpaceOnUse" x1="22.9087" x2="23.8293" xlink:href="#M" y1="8.16794" y2="9.50643"/><path d="m15.0835 29.5514c.5349.2985 1.1786.282 1.7105-.022 3.579-2.0457 9.7973-6.7538 12.2395-12.8694 3.585-7.96318-4.8325-14.31993-10.6501-9.74793-.6067.47676-1.3694 1.02238-1.8945 1.53929-.2377.23402-.6566.25786-.9034.03338-.6903-.62804-1.7689-1.43345-2.4616-1.90212-4.95966-3.35552-13.983874 1.06763-10.13446 10.50768 1.41002 4.237 8.12886 10.2479 12.09406 12.4611z" fill="url(#l)"/><path d="m15.0835 29.5514c.5349.2985 1.1786.282 1.7105-.022 3.579-2.0457 9.7973-6.7538 12.2395-12.8694 3.585-7.96318-4.8325-14.31993-10.6501-9.74793-.6067.47676-1.3694 1.02238-1.8945 1.53929-.2377.23402-.6566.25786-.9034.03338-.6903-.62804-1.7689-1.43345-2.4616-1.90212-4.95966-3.35552-13.983874 1.06763-10.13446 10.50768 1.41002 4.237 8.12886 10.2479 12.09406 12.4611z" fill="url(#m)"/><path d="m15.0835 29.5514c.5349.2985 1.1786.282 1.7105-.022 3.579-2.0457 9.7973-6.7538 12.2395-12.8694 3.585-7.96318-4.8325-14.31993-10.6501-9.74793-.6067.47676-1.3694 1.02238-1.8945 1.53929-.2377.23402-.6566.25786-.9034.03338-.6903-.62804-1.7689-1.43345-2.4616-1.90212-4.95966-3.35552-13.983874 1.06763-10.13446 10.50768 1.41002 4.237 8.12886 10.2479 12.09406 12.4611z" fill="url(#n)"/><path d="m15.0835 29.5514c.5349.2985 1.1786.282 1.7105-.022 3.579-2.0457 9.7973-6.7538 12.2395-12.8694 3.585-7.96318-4.8325-14.31993-10.6501-9.74793-.6067.47676-1.3694 1.02238-1.8945 1.53929-.2377.23402-.6566.25786-.9034.03338-.6903-.62804-1.7689-1.43345-2.4616-1.90212-4.95966-3.35552-13.983874 1.06763-10.13446 10.50768 1.41002 4.237 8.12886 10.2479 12.09406 12.4611z" fill="url(#o)"/><path d="m15.0835 29.5514c.5349.2985 1.1786.282 1.7105-.022 3.579-2.0457 9.7973-6.7538 12.2395-12.8694 3.585-7.96318-4.8325-14.31993-10.6501-9.74793-.6067.47676-1.3694 1.02238-1.8945 1.53929-.2377.23402-.6566.25786-.9034.03338-.6903-.62804-1.7689-1.43345-2.4616-1.90212-4.95966-3.35552-13.983874 1.06763-10.13446 10.50768 1.41002 4.237 8.12886 10.2479 12.09406 12.4611z" fill="url(#q)"/><path d="m15.0835 29.5514c.5349.2985 1.1786.282 1.7105-.022 3.579-2.0457 9.7973-6.7538 12.2395-12.8694 3.585-7.96318-4.8325-14.31993-10.6501-9.74793-.6067.47676-1.3694 1.02238-1.8945 1.53929-.2377.23402-.6566.25786-.9034.03338-.6903-.62804-1.7689-1.43345-2.4616-1.90212-4.95966-3.35552-13.983874 1.06763-10.13446 10.50768 1.41002 4.237 8.12886 10.2479 12.09406 12.4611z" fill="url(#r)"/><path d="m16.0127 8.89563c.8921.80773 2.2674.57335 3.0205-.36536 1.1438-1.42552 2.766-2.89315 4.915-3.02989-1.8248-.35093-3.8127.03474-5.5648 1.41169-.1506.11836-.3109.24097-.4747.36633-.4845.37078-1.0006.76563-1.3921 1.14591-.2533.24594-.6976.27114-.9596.03456-.0393-.03545-.0797-.07144-.1212-.10787.1489.15094.3521.34116.5769.54463z" fill="url(#s)"/><g filter="url(#a)"><path d="m16.5658 12.1187v6.1902c0 2.7146 2.8707 3.6214 3.7438 1.051.7474-2.2001 1.0656-4.5701.4231-6.638-.4351-1.4004-1.4854-2.1667-2.4716-2.4348-1.0375-.282-1.6953.7564-1.6953 1.8316z" fill="#fa1c56"/></g><g filter="url(#b)"><ellipse cx="24.7069" cy="11.5812" fill="url(#u)" rx="4.15761" ry="2.86074" transform="matrix(.71703106 -.69704122 .69704122 .71703106 -1.081288 20.498848)"/></g><g filter="url(#c)"><ellipse cx="12.4671" cy="11.1873" fill="url(#v)" fill-opacity=".5" rx="4.15761" ry="2.86074" transform="matrix(-.62870983 -.77763999 .77763999 -.62870983 11.605596 27.915781)"/></g><g filter="url(#d)"><path d="m8.95278 20.2441-.55846-3.2389c-.1493-.4615-.48438-.5156-.67188-.2031l-2.04687 4.2968z" fill="#a71135"/></g><path d="m6.76759 20.1099c-.11201.3463-.36935.6265-.7048.7676l-2.6348 1.1078c-.40826.1717-.40826.7502 0 .9218l2.64681 1.113c.33619.1413.59388.4225.7055.7696l1.16926 3.6369c.14874.4626.80328.4626.95201 0l1.16553-3.6254c.1114-.3462.368-.6268.703-.7686l2.6609-1.1259c.4069-.1722.4069-.7488 0-.9209l-2.649-1.1209c-.3342-.1414-.5904-.4211-.7022-.7664l-1.17851-3.6428c-.14929-.4614-.80215-.4614-.95144 0z" fill="url(#x)"/><path d="m6.76759 20.1099c-.11201.3463-.36935.6265-.7048.7676l-2.6348 1.1078c-.40826.1717-.40826.7502 0 .9218l2.64681 1.113c.33619.1413.59388.4225.7055.7696l1.16926 3.6369c.14874.4626.80328.4626.95201 0l1.16553-3.6254c.1114-.3462.368-.6268.703-.7686l2.6609-1.1259c.4069-.1722.4069-.7488 0-.9209l-2.649-1.1209c-.3342-.1414-.5904-.4211-.7022-.7664l-1.17851-3.6428c-.14929-.4614-.80215-.4614-.95144 0z" fill="url(#z)"/><path d="m6.76759 20.1099c-.11201.3463-.36935.6265-.7048.7676l-2.6348 1.1078c-.40826.1717-.40826.7502 0 .9218l2.64681 1.113c.33619.1413.59388.4225.7055.7696l1.16926 3.6369c.14874.4626.80328.4626.95201 0l1.16553-3.6254c.1114-.3462.368-.6268.703-.7686l2.6609-1.1259c.4069-.1722.4069-.7488 0-.9209l-2.649-1.1209c-.3342-.1414-.5904-.4211-.7022-.7664l-1.17851-3.6428c-.14929-.4614-.80215-.4614-.95144 0z" fill="url(#B)"/><path d="m6.76759 20.1099c-.11201.3463-.36935.6265-.7048.7676l-2.6348 1.1078c-.40826.1717-.40826.7502 0 .9218l2.64681 1.113c.33619.1413.59388.4225.7055.7696l1.16926 3.6369c.14874.4626.80328.4626.95201 0l1.16553-3.6254c.1114-.3462.368-.6268.703-.7686l2.6609-1.1259c.4069-.1722.4069-.7488 0-.9209l-2.649-1.1209c-.3342-.1414-.5904-.4211-.7022-.7664l-1.17851-3.6428c-.14929-.4614-.80215-.4614-.95144 0z" fill="url(#D)"/><path d="m6.86697 24.2509h-.432c-.10475-.096-.22623-.1745-.36017-.2308l-2.64681-1.113c-.40826-.1716-.40826-.7501 0-.9218l2.6348-1.1078c.33546-.1411.59279-.4213.7048-.7676l1.18225-3.6542c.1493-.4614.80216-.4614.95145 0l1.17851 3.6428c.1118.3453.368.625.7023.7664l2.6489 1.1209c.4069.1721.4069.7487 0 .9209l-7.22418.4302c-.12756.0539.46484.4609.66015.914z" fill="url(#F)"/><path d="m6.86697 24.2509h-.432c-.10475-.096-.22623-.1745-.36017-.2308l-2.64681-1.113c-.40826-.1716-.40826-.7501 0-.9218l2.6348-1.1078c.33546-.1411.59279-.4213.7048-.7676l1.18225-3.6542c.1493-.4614.80216-.4614.95145 0l1.17851 3.6428c.1118.3453.368.625.7023.7664l2.6489 1.1209c.4069.1721.4069.7487 0 .9209l-7.22418.4302c-.12756.0539.46484.4609.66015.914z" fill="url(#F)"/><path d="m6.43497 24.251c.15816.145.27817.3299.34532.5388l1.16927 3.6369c.14873.4626.80327.4626.952 0l1.16554-3.6254c.069-.2144.1936-.4036.3581-.5503z" fill="url(#H)"/><g filter="url(#e)"><path d="m8.76932 16.7822.96706 3.2396c.17831.5974.62502 1.0774 1.20802 1.2983l2.1687.8214" stroke="url(#J)" stroke-linecap="round" stroke-width=".1"/></g><g filter="url(#f)"><path d="m8.53494 28.9385 1.09375-3.5938" stroke="url(#L)" stroke-linecap="round" stroke-width=".1"/></g><g filter="url(#g)"><path d="m6.81619 21.1415 1.3125-4.3593" stroke="url(#N)" stroke-linecap="round" stroke-width=".1"/></g><g filter="url(#h)"><path d="m21.7959 10.1564c-.1302.2866-.3636.5135-.6537.6355l-1.2824.5392c-.2238.0941-.2238.4112 0 .5053l1.3026.5477c.2824.1187.5113.337.6434.6133l.8324 1.7421c.0815.2536.4402.2536.5217 0l.3047-1.5163c.0814-.4052.3578-.744.7384-.905l1.1393-.4821c.223-.0943.223-.4104 0-.5047l-1.214-.5137c-.3343-.1414-.5904-.4207-.7021-.766-.2018-.62375-.5122-1.58304-.5666-1.75124-.0818-.25291-.1393-.25291-.2211 0z" fill="#c01942"/></g><path d="m22.311 9.92523c-.1121.34627-.3694.62647-.7048.76747l-1.2053.5068c-.2238.0941-.2238.4112 0 .5053l1.2113.5093c.3361.1413.5938.4225.7055.7697l.5613 1.7461c.0815.2535.4403.2535.5218 0l.5596-1.7406c.1113-.3462.3679-.6268.7029-.7686l1.22-.5162c.223-.0943.223-.4104 0-.5047l-1.214-.5137c-.3342-.1414-.5905-.4211-.7022-.76642l-.5664-1.75081c-.0819-.25291-.4397-.25291-.5215 0z" fill="url(#O)"/><path d="m22.311 9.92523c-.1121.34627-.3694.62647-.7048.76747l-1.2053.5068c-.2238.0941-.2238.4112 0 .5053l1.2113.5093c.3361.1413.5938.4225.7055.7697l.5613 1.7461c.0815.2535.4403.2535.5218 0l.5596-1.7406c.1113-.3462.3679-.6268.7029-.7686l1.22-.5162c.223-.0943.223-.4104 0-.5047l-1.214-.5137c-.3342-.1414-.5905-.4211-.7022-.76642l-.5664-1.75081c-.0819-.25291-.4397-.25291-.5215 0z" fill="url(#P)"/><path d="m22.311 9.92523c-.1121.34627-.3694.62647-.7048.76747l-1.2053.5068c-.2238.0941-.2238.4112 0 .5053l1.2113.5093c.3361.1413.5938.4225.7055.7697l.5613 1.7461c.0815.2535.4403.2535.5218 0l.5596-1.7406c.1113-.3462.3679-.6268.7029-.7686l1.22-.5162c.223-.0943.223-.4104 0-.5047l-1.214-.5137c-.3342-.1414-.5905-.4211-.7022-.76642l-.5664-1.75081c-.0819-.25291-.4397-.25291-.5215 0z" fill="url(#Q)"/><path d="m22.311 9.92523c-.1121.34627-.3694.62647-.7048.76747l-1.2053.5068c-.2238.0941-.2238.4112 0 .5053l1.2113.5093c.3361.1413.5938.4225.7055.7697l.5613 1.7461c.0815.2535.4403.2535.5218 0l.5596-1.7406c.1113-.3462.3679-.6268.7029-.7686l1.22-.5162c.223-.0943.223-.4104 0-.5047l-1.214-.5137c-.3342-.1414-.5905-.4211-.7022-.76642l-.5664-1.75081c-.0819-.25291-.4397-.25291-.5215 0z" fill="url(#R)"/><path d="m22.2857 12.4413h-.2368c-.0574-.0527-.124-.0957-.1974-.1266l-1.4506-.6099c-.2238-.0941-.2238-.4112 0-.5053l1.444-.6072c.1839-.0773.3249-.2309.3863-.4206l.648-2.00283c.0818-.25291.4396-.25291.5215 0l.6459 1.99653c.0612.1893.2017.3425.3849.4201l1.4518.6143c.223.0943.223.4104 0 .5047l-3.9594.2358c-.0699.0296.2547.2526.3618.501z" fill="url(#S)"/><path d="m22.2857 12.4413h-.2368c-.0574-.0527-.124-.0957-.1974-.1266l-1.4506-.6099c-.2238-.0941-.2238-.4112 0-.5053l1.444-.6072c.1839-.0773.3249-.2309.3863-.4206l.648-2.00283c.0818-.25291.4396-.25291.5215 0l.6459 1.99653c.0612.1893.2017.3425.3849.4201l1.4518.6143c.223.0943.223.4104 0 .5047l-3.9594.2358c-.0699.0296.2547.2526.3618.501z" fill="url(#S)"/><path d="m22.0489 12.4413c.0867.0795.1525.1808.1893.2953l.6408 1.9933c.0816.2535.4403.2535.5218 0l.6388-1.987c.0378-.1175.1061-.2212.1963-.3016z" fill="url(#T)"/><g filter="url(#i)"><path d="m23.3283 8.34778.4022 1.34723c.1783.59739.625 1.07739 1.208 1.29829l.7706.2918" stroke="url(#U)" stroke-linecap="round" stroke-width=".1"/></g><g filter="url(#j)"><path d="m23.1999 15.0104.5994-1.9697" stroke="url(#V)" stroke-linecap="round" stroke-width=".1"/></g><g filter="url(#k)"><path d="m22.2578 10.7371.7194-2.38932" stroke="url(#W)" stroke-linecap="round" stroke-width=".1"/></g></svg>